SplineFontDB: 3.2
FontName: oru_bold
FullName: oru_bold
FamilyName: oru_bold
Weight: Bold
Copyright: (c) 2015-2017 Apple Inc. All rights reserved.
Version: 1.0.0
ItalicAngle: 0
UnderlinePosition: -565
UnderlineWidth: 190
Ascent: 1638
Descent: 410
InvalidEm: 0
sfntRevision: 0x00010000
LayerCount: 2
Layer: 0 1 "Back" 1
Layer: 1 1 "Fore" 0
XUID: [1021 838 1021205173 4381]
BaseHoriz: 4 'hang' 'ideo' 'math' 'romn'
BaseScript: 'cyrl' 3  0 -216 0 0
BaseScript: 'grek' 3  0 -216 0 0
BaseScript: 'latn' 3  0 -216 0 0
BaseScript: 'thai' 3  0 -216 0 0
StyleMap: 0x0000
FSType: 4
OS2Version: 3
OS2_WeightWidthSlopeOnly: 0
OS2_UseTypoMetrics: 0
CreationTime: 1496154401
ModificationTime: 1669378319
PfmFamily: 81
TTFWeight: 700
TTFWidth: 5
LineGap: 0
VLineGap: 0
Panose: 0 0 8 0 0 0 0 0 0 0
OS2TypoAscent: 1950
OS2TypoAOffset: 0
OS2TypoDescent: -494
OS2TypoDOffset: 0
OS2TypoLinegap: 0
OS2WinAscent: 1950
OS2WinAOffset: 0
OS2WinDescent: 494
OS2WinDOffset: 0
HheadAscent: 1950
HheadAOffset: 0
HheadDescent: -494
HheadDOffset: 0
OS2SubXSize: 1331
OS2SubYSize: 1228
OS2SubXOff: 0
OS2SubYOff: 153
OS2SupXSize: 1331
OS2SupYSize: 1228
OS2SupXOff: 0
OS2SupYOff: 716
OS2StrikeYSize: 190
OS2StrikeYPos: 643
OS2CapHeight: 1443
OS2XHeight: 1072
OS2Vendor: 'APPL'
OS2CodePages: 2000019f.00000000
OS2UnicodeRanges: 2000028f.02000003.00000000.00000000
Lookup: 1 0 0 "'locl' Localized Forms in Latin lookup 0" { "'locl' Localized Forms in Latin lookup 0 subtable"  } ['locl' ('latn' <'MOL ' 'ROM ' > ) ]
Lookup: 1 0 0 "'locl' Localized Forms in Latin lookup 1" { "'locl' Localized Forms in Latin lookup 1 subtable"  } ['locl' ('latn' <'AZE ' 'CRT ' 'TRK ' > ) ]
Lookup: 4 0 0 "'locl' Localized Forms in Latin lookup 2" { "'locl' Localized Forms in Latin lookup 2 subtable"  } ['locl' ('latn' <'NLD ' > ) ]
Lookup: 1 0 0 "'locl' Localized Forms in Cyrillic lookup 3" { "'locl' Localized Forms in Cyrillic lookup 3 subtable"  } ['locl' ('cyrl' <'BGR ' > ) ]

StartChar: .notdef
Encoding: 1114112 -1 0
Width: 2048
GlyphClass: 1
Flags: W
LayerCount: 2
Fore
SplineSet
100 -494 m 1,0,-1
 100 -288 l 1,1,-1
 1948 -288 l 1,2,-1
 1948 -494 l 1,3,-1
 100 -494 l 1,0,-1
100 -46 m 1,4,-1
 100 160 l 1,5,-1
 1948 160 l 1,6,-1
 1948 -46 l 1,7,-1
 100 -46 l 1,4,-1
100 401 m 1,8,-1
 100 607 l 1,9,-1
 1948 607 l 1,10,-1
 1948 401 l 1,11,-1
 100 401 l 1,8,-1
100 849 m 1,12,-1
 100 1055 l 1,13,-1
 1948 1055 l 1,14,-1
 1948 849 l 1,15,-1
 100 849 l 1,12,-1
100 1296 m 1,16,-1
 100 1502 l 1,17,-1
 1948 1502 l 1,18,-1
 1948 1296 l 1,19,-1
 100 1296 l 1,16,-1
100 1744 m 1,20,-1
 100 1950 l 1,21,-1
 1948 1950 l 1,22,-1
 1948 1744 l 1,23,-1
 100 1744 l 1,20,-1
EndSplineSet
EndChar

StartChar: exclam
Encoding: 33 33 4
Width: 648
GlyphClass: 2
Flags: W
LayerCount: 2
Fore
SplineSet
174 1443 m 1,0,-1
 474 1443 l 1,1,-1
 450 475 l 1,2,-1
 198 475 l 1,3,-1
 174 1443 l 1,0,-1
324 -25 m 128,-1,5
 256 -25 256 -25 208.5 20.5 c 128,-1,6
 161 66 161 66 161 132 c 128,-1,7
 161 198 161 198 208.5 243.5 c 128,-1,8
 256 289 256 289 324 289 c 128,-1,9
 392 289 392 289 439.5 243.5 c 128,-1,10
 487 198 487 198 487 132 c 128,-1,11
 487 66 487 66 439.5 20.5 c 128,-1,4
 392 -25 392 -25 324 -25 c 128,-1,5
EndSplineSet
Substitution2: "'smcp' Lowercase to Small Capitals lookup 6 subtable" exclam.sc
Substitution2: "'c2sc' Capitals to Small Capitals lookup 5 subtable" exclam.sc
EndChar

StartChar: quotedbl
Encoding: 34 34 5
Width: 929
GlyphClass: 2
Flags: W
LayerCount: 2
Fore
SplineSet
358 880 m 1,0,-1
 108 880 l 1,1,-1
 108 1443 l 1,2,-1
 358 1443 l 1,3,-1
 358 880 l 1,0,-1
821 880 m 1,4,-1
 571 880 l 1,5,-1
 571 1443 l 1,6,-1
 821 1443 l 1,7,-1
 821 880 l 1,4,-1
EndSplineSet
Substitution2: "'smcp' Lowercase to Small Capitals lookup 6 subtable" quotedbl.sc
Substitution2: "'c2sc' Capitals to Small Capitals lookup 5 subtable" quotedbl.sc
EndChar

StartChar: numbersign
Encoding: 35 35 6
Width: 1304
GlyphClass: 2
Flags: W
LayerCount: 2
Fore
SplineSet
630 0 m 1,0,-1
 706 380 l 1,1,-1
 447 380 l 1,2,-1
 370 0 l 1,3,-1
 150 0 l 1,4,-1
 225 380 l 1,5,-1
 0 380 l 1,6,-1
 41 596 l 1,7,-1
 268 596 l 1,8,-1
 322 866 l 1,9,-1
 92 866 l 1,10,-1
 133 1080 l 1,11,-1
 365 1080 l 1,12,-1
 439 1444 l 1,13,-1
 659 1444 l 1,14,-1
 587 1080 l 1,15,-1
 846 1080 l 1,16,-1
 919 1444 l 1,17,-1
 1141 1444 l 1,18,-1
 1068 1080 l 1,19,-1
 1304 1080 l 1,20,-1
 1264 866 l 1,21,-1
 1025 866 l 1,22,-1
 970 596 l 1,23,-1
 1211 596 l 1,24,-1
 1171 380 l 1,25,-1
 928 380 l 1,26,-1
 852 0 l 1,27,-1
 630 0 l 1,0,-1
471 577 m 1,28,-1
 758 577 l 1,29,-1
 821 884 l 1,30,-1
 533 884 l 1,31,-1
 471 577 l 1,28,-1
EndSplineSet
Substitution2: "'case' Case-Sensitive Forms lookup 7 subtable" numbersign.uc
Substitution2: "'smcp' Lowercase to Small Capitals lookup 6 subtable" numbersign.sc
Substitution2: "'c2sc' Capitals to Small Capitals lookup 5 subtable" numbersign.sc
EndChar

StartChar: dollar
Encoding: 36 36 7
Width: 1326
GlyphClass: 2
Flags: W
LayerCount: 2
Fore
SplineSet
741 -137 m 1,0,-1
 600 -137 l 1,1,-1
 600 -9 l 1,2,3
 364 5 364 5 229.5 116.5 c 128,-1,4
 95 228 95 228 94 412 c 1,5,-1
 380 412 l 1,6,7
 385 334 385 334 445 281 c 128,-1,8
 505 228 505 228 600 218 c 1,9,-1
 600 608 l 1,10,-1
 494 633 l 2,11,12
 313 675 313 675 218.5 777.5 c 128,-1,13
 124 880 124 880 124 1036 c 0,14,15
 124 1220 124 1220 249.5 1332.5 c 128,-1,16
 375 1445 375 1445 600 1463 c 1,17,-1
 600 1600 l 1,18,-1
 741 1600 l 1,19,-1
 741 1462 l 1,20,21
 951 1443 951 1443 1076.5 1329.5 c 128,-1,22
 1202 1216 1202 1216 1205 1043 c 1,23,-1
 927 1043 l 1,24,25
 925 1114 925 1114 873 1167 c 128,-1,26
 821 1220 821 1220 741 1231 c 1,27,-1
 741 858 l 1,28,-1
 848 837 l 1,29,30
 1232 753 1232 753 1232 431 c 0,31,32
 1232 241 1232 241 1104.5 126.5 c 128,-1,33
 977 12 977 12 741 -8 c 1,34,-1
 741 -137 l 1,0,-1
949 399 m 0,35,36
 949 472 949 472 898 517 c 128,-1,37
 847 562 847 562 741 583 c 1,38,-1
 741 217 l 1,39,40
 839 223 839 223 894 271 c 128,-1,41
 949 319 949 319 949 399 c 0,35,36
413 1061 m 0,42,43
 413 927 413 927 600 887 c 1,44,-1
 600 1232 l 1,45,46
 518 1227 518 1227 465.5 1179.5 c 128,-1,47
 413 1132 413 1132 413 1061 c 0,42,43
EndSplineSet
Substitution2: "'smcp' Lowercase to Small Capitals lookup 6 subtable" dollar.sc
Substitution2: "'c2sc' Capitals to Small Capitals lookup 5 subtable" dollar.sc
EndChar

StartChar: percent
Encoding: 37 37 8
Width: 1670
GlyphClass: 2
Flags: W
LayerCount: 2
Fore
SplineSet
703 1097 m 128,-1,1
 703 925 703 925 614.5 824 c 128,-1,2
 526 723 526 723 374 723 c 0,3,4
 223 723 223 723 134 824 c 128,-1,5
 45 925 45 925 45 1097 c 128,-1,6
 45 1269 45 1269 134 1370 c 128,-1,7
 223 1471 223 1471 374 1471 c 128,-1,8
 525 1471 525 1471 614 1370 c 128,-1,0
 703 1269 703 1269 703 1097 c 128,-1,1
374 900 m 128,-1,10
 423 900 423 900 451 952.5 c 128,-1,11
 479 1005 479 1005 479 1098 c 128,-1,12
 479 1191 479 1191 451 1244 c 128,-1,13
 423 1297 423 1297 374 1297 c 128,-1,14
 325 1297 325 1297 297 1244 c 128,-1,15
 269 1191 269 1191 269 1098 c 128,-1,16
 269 1005 269 1005 297 952.5 c 128,-1,9
 325 900 325 900 374 900 c 128,-1,10
430 0 m 1,17,-1
 188 0 l 1,18,-1
 748 767 l 1,19,-1
 1241 1443 l 1,20,-1
 1482 1443 l 1,21,-1
 938 697 l 1,22,-1
 430 0 l 1,17,-1
1625 354 m 0,23,24
 1625 181 1625 181 1536 80 c 128,-1,25
 1447 -21 1447 -21 1296 -21 c 128,-1,26
 1145 -21 1145 -21 1056 80.5 c 128,-1,27
 967 182 967 182 967 354 c 128,-1,28
 967 526 967 526 1056 627 c 128,-1,29
 1145 728 1145 728 1296 728 c 128,-1,30
 1447 728 1447 728 1536 627 c 128,-1,31
 1625 526 1625 526 1625 354 c 0,23,24
1296 157 m 128,-1,33
 1345 157 1345 157 1373 209.5 c 128,-1,34
 1401 262 1401 262 1401 355 c 128,-1,35
 1401 448 1401 448 1373 501 c 128,-1,36
 1345 554 1345 554 1296 554 c 128,-1,37
 1247 554 1247 554 1219 501 c 128,-1,38
 1191 448 1191 448 1191 355 c 128,-1,39
 1191 262 1191 262 1219 209.5 c 128,-1,32
 1247 157 1247 157 1296 157 c 128,-1,33
EndSplineSet
Substitution2: "'smcp' Lowercase to Small Capitals lookup 6 subtable" percent.sc
Substitution2: "'c2sc' Capitals to Small Capitals lookup 5 subtable" percent.sc
EndChar

StartChar: ampersand
Encoding: 38 38 9
Width: 1437
GlyphClass: 2
Flags: W
LayerCount: 2
Fore
SplineSet
1129 0 m 1,0,-1
 1018 120 l 1,1,2
 938 51 938 51 820 12.5 c 128,-1,3
 702 -26 702 -26 571 -26 c 0,4,5
 342 -26 342 -26 205 84 c 128,-1,6
 68 194 68 194 68 378 c 0,7,8
 68 501 68 501 132.5 593.5 c 128,-1,9
 197 686 197 686 335 762 c 0,10,11
 341 765 341 765 357 773.5 c 128,-1,12
 373 782 373 782 385.5 789 c 128,-1,13
 398 796 398 796 400 797 c 1,14,15
 302 898 302 898 261.5 973 c 128,-1,16
 221 1048 221 1048 221 1127 c 0,17,18
 221 1272 221 1272 337.5 1367 c 128,-1,19
 454 1462 454 1462 630 1462 c 0,20,21
 807 1462 807 1462 919.5 1369.5 c 128,-1,22
 1032 1277 1032 1277 1032 1132 c 0,23,24
 1032 1021 1032 1021 961 930 c 128,-1,25
 890 839 890 839 740 757 c 1,26,-1
 1014 461 l 1,27,28
 1066 553 1066 553 1066 734 c 2,29,-1
 1066 810 l 1,30,-1
 1309 810 l 1,31,-1
 1309 717 l 2,32,33
 1309 450 1309 450 1187 281 c 1,34,-1
 1456 0 l 1,35,-1
 1129 0 l 1,0,-1
494 623 m 0,36,37
 412 571 412 571 376.5 519.5 c 128,-1,38
 341 468 341 468 341 401 c 0,39,40
 341 304 341 304 413 245 c 128,-1,41
 485 186 485 186 601 186 c 0,42,43
 679 186 679 186 751 213 c 128,-1,44
 823 240 823 240 865 286 c 1,45,-1
 534 644 l 1,46,47
 522 638 522 638 494 623 c 0,36,37
605 893 m 1,48,49
 703 944 703 944 746 995.5 c 128,-1,50
 789 1047 789 1047 789 1112 c 0,51,52
 789 1181 789 1181 745 1224.5 c 128,-1,53
 701 1268 701 1268 631 1268 c 128,-1,54
 561 1268 561 1268 516 1224 c 128,-1,55
 471 1180 471 1180 471 1112 c 0,56,57
 471 1062 471 1062 501 1013.5 c 128,-1,58
 531 965 531 965 605 893 c 1,48,49
EndSplineSet
Substitution2: "'smcp' Lowercase to Small Capitals lookup 6 subtable" ampersand.sc
Substitution2: "'c2sc' Capitals to Small Capitals lookup 5 subtable" ampersand.sc
EndChar

StartChar: quotesingle
Encoding: 39 39 10
Width: 466
GlyphClass: 2
Flags: W
LayerCount: 2
Fore
SplineSet
358 880 m 1,0,-1
 108 880 l 1,1,-1
 108 1443 l 1,2,-1
 358 1443 l 1,3,-1
 358 880 l 1,0,-1
EndSplineSet
Substitution2: "'smcp' Lowercase to Small Capitals lookup 6 subtable" quotesingle.sc
Substitution2: "'c2sc' Capitals to Small Capitals lookup 5 subtable" quotesingle.sc
EndChar

StartChar: parenleft
Encoding: 40 40 11
Width: 782
GlyphClass: 2
Flags: W
LayerCount: 2
Fore
SplineSet
182 567 m 0,0,1
 182 832 182 832 254.5 1047 c 128,-1,2
 327 1262 327 1262 479 1443 c 1,3,-1
 747 1443 l 1,4,5
 635 1312 635 1312 559 1063.5 c 128,-1,6
 483 815 483 815 483 568 c 128,-1,7
 483 321 483 321 559 71.5 c 128,-1,8
 635 -178 635 -178 747 -310 c 1,9,-1
 479 -310 l 1,10,11
 326 -127 326 -127 254 88 c 128,-1,12
 182 303 182 303 182 567 c 0,0,1
EndSplineSet
Substitution2: "'frac' Diagonal Fractions lookup 13 subtable" parenleft.numr
Substitution2: "'sups' Superscript lookup 12 subtable" parenleft.sups
Substitution2: "'subs' Subscript lookup 11 subtable" parenleft.subs
Substitution2: "'case' Case-Sensitive Forms lookup 7 subtable" parenleft.uc
Substitution2: "'smcp' Lowercase to Small Capitals lookup 6 subtable" parenleft.sc
Substitution2: "'c2sc' Capitals to Small Capitals lookup 5 subtable" parenleft.sc
EndChar

StartChar: parenright
Encoding: 41 41 12
Width: 782
GlyphClass: 2
Flags: W
LayerCount: 2
Fore
SplineSet
600 567 m 0,0,1
 600 281 600 281 523 70 c 128,-1,2
 446 -141 446 -141 304 -310 c 1,3,-1
 35 -310 l 1,4,5
 137 -189 137 -189 218 52 c 128,-1,6
 299 293 299 293 299 568 c 0,7,8
 299 842 299 842 218.5 1082.5 c 128,-1,9
 138 1323 138 1323 35 1443 c 1,10,-1
 304 1443 l 1,11,12
 445 1276 445 1276 522.5 1065.5 c 128,-1,13
 600 855 600 855 600 567 c 0,0,1
EndSplineSet
Substitution2: "'frac' Diagonal Fractions lookup 13 subtable" parenright.numr
Substitution2: "'sups' Superscript lookup 12 subtable" parenright.sups
Substitution2: "'subs' Subscript lookup 11 subtable" parenright.subs
Substitution2: "'case' Case-Sensitive Forms lookup 7 subtable" parenright.uc
Substitution2: "'smcp' Lowercase to Small Capitals lookup 6 subtable" parenright.sc
Substitution2: "'c2sc' Capitals to Small Capitals lookup 5 subtable" parenright.sc
EndChar

StartChar: asterisk
Encoding: 42 42 13
Width: 994
GlyphClass: 2
Flags: W
LayerCount: 2
Fore
SplineSet
796 841 m 1,0,-1
 565 1002 l 1,1,-1
 590 722 l 1,2,-1
 408 722 l 1,3,-1
 433 1002 l 1,4,-1
 201 840 l 1,5,-1
 111 1001 l 1,6,-1
 363 1116 l 1,7,-1
 111 1233 l 1,8,-1
 201 1393 l 1,9,-1
 431 1235 l 1,10,-1
 408 1512 l 1,11,-1
 591 1512 l 1,12,-1
 567 1236 l 1,13,-1
 796 1394 l 1,14,-1
 888 1233 l 1,15,-1
 633 1116 l 1,16,-1
 888 1001 l 1,17,-1
 796 841 l 1,0,-1
EndSplineSet
Substitution2: "'case' Case-Sensitive Forms lookup 7 subtable" asterisk.uc
Substitution2: "'smcp' Lowercase to Small Capitals lookup 6 subtable" asterisk.sc
Substitution2: "'c2sc' Capitals to Small Capitals lookup 5 subtable" asterisk.sc
EndChar

StartChar: plus
Encoding: 43 43 14
Width: 1326
GlyphClass: 2
Flags: W
LayerCount: 2
Fore
SplineSet
794 451 m 1,0,-1
 794 14 l 1,1,-1
 532 14 l 1,2,-1
 532 451 l 1,3,-1
 124 451 l 1,4,-1
 124 706 l 1,5,-1
 532 706 l 1,6,-1
 532 1138 l 1,7,-1
 794 1138 l 1,8,-1
 794 706 l 1,9,-1
 1202 706 l 1,10,-1
 1202 451 l 1,11,-1
 794 451 l 1,0,-1
EndSplineSet
Substitution2: "'frac' Diagonal Fractions lookup 13 subtable" plus.numr
Substitution2: "'sups' Superscript lookup 12 subtable" plus.sups
Substitution2: "'subs' Subscript lookup 11 subtable" plus.subs
Substitution2: "'case' Case-Sensitive Forms lookup 7 subtable" plus.uc
Substitution2: "'smcp' Lowercase to Small Capitals lookup 6 subtable" plus.sc
Substitution2: "'c2sc' Capitals to Small Capitals lookup 5 subtable" plus.sc
EndChar

StartChar: comma
Encoding: 44 44 15
Width: 569
GlyphClass: 2
Flags: W
LayerCount: 2
Fore
SplineSet
310 -316 m 1,0,-1
 91 -316 l 1,1,-1
 166 248 l 1,2,-1
 444 248 l 1,3,-1
 310 -316 l 1,0,-1
EndSplineSet
EndChar

StartChar: hyphen
Encoding: 8209 8209 16
AltUni2: 00002d.ffffffff.0
Width: 905
GlyphClass: 2
Flags: W
LayerCount: 2
Fore
SplineSet
781 459 m 1,0,-1
 124 459 l 1,1,-1
 124 714 l 1,2,-1
 781 714 l 1,3,-1
 781 459 l 1,0,-1
EndSplineSet
Substitution2: "'case' Case-Sensitive Forms lookup 7 subtable" hyphen.uc
Substitution2: "'smcp' Lowercase to Small Capitals lookup 6 subtable" hyphen.sc
Substitution2: "'c2sc' Capitals to Small Capitals lookup 5 subtable" hyphen.sc
EndChar

StartChar: period
Encoding: 46 46 17
Width: 569
GlyphClass: 2
Flags: W
LayerCount: 2
Fore
SplineSet
285 -12 m 128,-1,1
 218 -12 218 -12 171 35 c 128,-1,2
 124 82 124 82 124 149 c 128,-1,3
 124 216 124 216 171 263 c 128,-1,4
 218 310 218 310 285 310 c 128,-1,5
 352 310 352 310 399 263 c 128,-1,6
 446 216 446 216 446 149 c 128,-1,7
 446 82 446 82 399 35 c 128,-1,0
 352 -12 352 -12 285 -12 c 128,-1,1
EndSplineSet
EndChar

StartChar: slash
Encoding: 47 47 18
Width: 782
GlyphClass: 2
Flags: W
LayerCount: 2
Fore
SplineSet
270 -310 m 1,0,-1
 0 -310 l 1,1,-1
 513 1443 l 1,2,-1
 782 1443 l 1,3,-1
 270 -310 l 1,0,-1
EndSplineSet
Substitution2: "'frac' Diagonal Fractions lookup 15 subtable" fraction
Substitution2: "'case' Case-Sensitive Forms lookup 7 subtable" slash.uc
Substitution2: "'smcp' Lowercase to Small Capitals lookup 6 subtable" slash.sc
Substitution2: "'c2sc' Capitals to Small Capitals lookup 5 subtable" slash.sc
EndChar

StartChar: zero
Encoding: 48 48 19
Width: 1333
GlyphClass: 2
Flags: W
LayerCount: 2
Fore
SplineSet
667 -32 m 128,-1,1
 395 -32 395 -32 239 170.5 c 128,-1,2
 83 373 83 373 83 724 c 0,3,4
 83 1073 83 1073 239.5 1274.5 c 128,-1,5
 396 1476 396 1476 667 1476 c 128,-1,6
 938 1476 938 1476 1094 1275 c 128,-1,7
 1250 1074 1250 1074 1250 725 c 0,8,9
 1250 375 1250 375 1094.5 171.5 c 128,-1,0
 939 -32 939 -32 667 -32 c 128,-1,1
667 210 m 128,-1,11
 797 210 797 210 870 344.5 c 128,-1,12
 943 479 943 479 943 724 c 0,13,14
 943 967 943 967 869.5 1100.5 c 128,-1,15
 796 1234 796 1234 667 1234 c 128,-1,16
 538 1234 538 1234 464 1100 c 128,-1,17
 390 966 390 966 390 724 c 0,18,19
 390 480 390 480 463.5 345 c 128,-1,10
 537 210 537 210 667 210 c 128,-1,11
EndSplineSet
Substitution2: "'cv08' Character Variants 08 lookup 28 subtable" zero.1
Substitution2: "'ss06' Style Set 6 lookup 19 subtable" zero.1
Substitution2: "'frac' Diagonal Fractions lookup 13 subtable" zero.numr
Substitution2: "'sups' Superscript lookup 12 subtable" zero.sups
Substitution2: "'subs' Subscript lookup 11 subtable" zero.subs
Substitution2: "'tnum' Tabular Numbers lookup 9 subtable" zero.tnum
Substitution2: "'smcp' Lowercase to Small Capitals lookup 6 subtable" zero.sc
Substitution2: "'c2sc' Capitals to Small Capitals lookup 5 subtable" zero.sc
EndChar

StartChar: one
Encoding: 49 49 20
Width: 983
GlyphClass: 2
Flags: W
LayerCount: 2
Fore
SplineSet
463 0 m 1,0,-1
 463 1166 l 1,1,-1
 457 1166 l 1,2,-1
 89 912 l 1,3,-1
 89 1184 l 1,4,-1
 462 1443 l 1,5,-1
 762 1443 l 1,6,-1
 762 0 l 1,7,-1
 463 0 l 1,0,-1
EndSplineSet
Substitution2: "'frac' Diagonal Fractions lookup 13 subtable" one.numr
Substitution2: "'sups' Superscript lookup 12 subtable" one.sups
Substitution2: "'subs' Subscript lookup 11 subtable" one.subs
Substitution2: "'tnum' Tabular Numbers lookup 9 subtable" one.tnum
Substitution2: "'smcp' Lowercase to Small Capitals lookup 6 subtable" one.sc
Substitution2: "'c2sc' Capitals to Small Capitals lookup 5 subtable" one.sc
EndChar

StartChar: two
Encoding: 50 50 21
Width: 1235
GlyphClass: 2
Flags: W
LayerCount: 2
Fore
SplineSet
85 1009 m 2,0,1
 85 1214 85 1214 233.5 1344.5 c 128,-1,2
 382 1475 382 1475 618 1475 c 0,3,4
 845 1475 845 1475 988 1357.5 c 128,-1,5
 1131 1240 1131 1240 1131 1058 c 0,6,7
 1131 993 1131 993 1111.5 932.5 c 128,-1,8
 1092 872 1092 872 1049.5 811.5 c 128,-1,9
 1007 751 1007 751 964 702.5 c 128,-1,10
 921 654 921 654 852 585 c 2,11,-1
 500 246 l 1,12,-1
 500 240 l 1,13,-1
 1151 240 l 1,14,-1
 1151 0 l 1,15,-1
 102 0 l 1,16,-1
 102 203 l 1,17,-1
 646 727 l 2,18,19
 756 837 756 837 796.5 904 c 128,-1,20
 837 971 837 971 837 1046 c 0,21,22
 837 1128 837 1128 772 1184 c 128,-1,23
 707 1240 707 1240 608 1240 c 0,24,25
 503 1240 503 1240 434 1174.5 c 128,-1,26
 365 1109 365 1109 365 1009 c 2,27,-1
 365 1004 l 1,28,-1
 85 1004 l 1,29,-1
 85 1009 l 2,0,1
EndSplineSet
Substitution2: "'frac' Diagonal Fractions lookup 13 subtable" two.numr
Substitution2: "'sups' Superscript lookup 12 subtable" two.sups
Substitution2: "'subs' Subscript lookup 11 subtable" two.subs
Substitution2: "'tnum' Tabular Numbers lookup 9 subtable" two.tnum
Substitution2: "'smcp' Lowercase to Small Capitals lookup 6 subtable" two.sc
Substitution2: "'c2sc' Capitals to Small Capitals lookup 5 subtable" two.sc
EndChar

StartChar: three
Encoding: 51 51 22
Width: 1290
GlyphClass: 2
Flags: W
LayerCount: 2
Fore
SplineSet
453 630 m 1,0,-1
 453 848 l 1,1,-1
 628 848 l 2,2,3
 731 848 731 848 795 904 c 128,-1,4
 859 960 859 960 859 1049 c 128,-1,5
 859 1138 859 1138 798 1190.5 c 128,-1,6
 737 1243 737 1243 626 1243 c 0,7,8
 521 1243 521 1243 456 1186 c 128,-1,9
 391 1129 391 1129 385 1034 c 1,10,-1
 107 1034 l 1,11,12
 115 1235 115 1235 260 1355 c 128,-1,13
 405 1475 405 1475 639 1475 c 0,14,15
 865 1475 865 1475 1004.5 1369 c 128,-1,16
 1144 1263 1144 1263 1144 1090 c 0,17,18
 1144 959 1144 959 1062 868 c 128,-1,19
 980 777 980 777 846 753 c 1,20,-1
 846 747 l 1,21,22
 1009 733 1009 733 1104.5 640.5 c 128,-1,23
 1200 548 1200 548 1200 399 c 0,24,25
 1200 206 1200 206 1041.5 87 c 128,-1,26
 883 -32 883 -32 632 -32 c 0,27,28
 389 -32 389 -32 239.5 90 c 128,-1,29
 90 212 90 212 79 413 c 1,30,-1
 368 413 l 1,31,32
 375 321 375 321 446.5 266 c 128,-1,33
 518 211 518 211 636 211 c 0,34,35
 749 211 749 211 821 269 c 128,-1,36
 893 327 893 327 893 418 c 0,37,38
 893 517 893 517 823 573.5 c 128,-1,39
 753 630 753 630 631 630 c 2,40,-1
 453 630 l 1,0,-1
EndSplineSet
Substitution2: "'frac' Diagonal Fractions lookup 13 subtable" three.numr
Substitution2: "'sups' Superscript lookup 12 subtable" three.sups
Substitution2: "'subs' Subscript lookup 11 subtable" three.subs
Substitution2: "'tnum' Tabular Numbers lookup 9 subtable" three.tnum
Substitution2: "'smcp' Lowercase to Small Capitals lookup 6 subtable" three.sc
Substitution2: "'c2sc' Capitals to Small Capitals lookup 5 subtable" three.sc
EndChar

StartChar: four
Encoding: 52 52 23
Width: 1327
GlyphClass: 2
Flags: W
LayerCount: 2
Fore
SplineSet
790 0 m 1,0,-1
 790 257 l 1,1,-1
 72 257 l 1,2,-1
 72 514 l 1,3,4
 248 850 248 850 651 1443 c 1,5,-1
 1077 1443 l 1,6,-1
 1077 499 l 1,7,-1
 1265 499 l 1,8,-1
 1265 257 l 1,9,-1
 1077 257 l 1,10,-1
 1077 0 l 1,11,-1
 790 0 l 1,0,-1
337 498 m 1,12,-1
 337 490 l 1,13,-1
 796 490 l 1,14,-1
 796 1229 l 1,15,-1
 790 1229 l 1,16,17
 623 985 623 985 522 822.5 c 128,-1,18
 421 660 421 660 337 498 c 1,12,-1
EndSplineSet
Substitution2: "'cv03' Character Variants 03 lookup 23 subtable" four.1
Substitution2: "'ss06' Style Set 6 lookup 19 subtable" four.1
Substitution2: "'ss02' Style Set 2 lookup 17 subtable" four.1
Substitution2: "'frac' Diagonal Fractions lookup 13 subtable" four.numr
Substitution2: "'sups' Superscript lookup 12 subtable" four.sups
Substitution2: "'subs' Subscript lookup 11 subtable" four.subs
Substitution2: "'tnum' Tabular Numbers lookup 9 subtable" four.tnum
Substitution2: "'smcp' Lowercase to Small Capitals lookup 6 subtable" four.sc
Substitution2: "'c2sc' Capitals to Small Capitals lookup 5 subtable" four.sc
EndChar

StartChar: five
Encoding: 53 53 24
Width: 1280
GlyphClass: 2
Flags: W
LayerCount: 2
Fore
SplineSet
657 -32 m 0,0,1
 425 -32 425 -32 273.5 92.5 c 128,-1,2
 122 217 122 217 115 413 c 1,3,-1
 394 413 l 1,4,5
 407 321 407 321 480.5 264 c 128,-1,6
 554 207 554 207 659 207 c 0,7,8
 777 207 777 207 851.5 281.5 c 128,-1,9
 926 356 926 356 926 474 c 0,10,11
 926 594 926 594 852 670 c 128,-1,12
 778 746 778 746 661 746 c 0,13,14
 579 746 579 746 512.5 710.5 c 128,-1,15
 446 675 446 675 408 613 c 1,16,-1
 138 613 l 1,17,-1
 209 1443 l 1,18,-1
 1127 1443 l 1,19,-1
 1127 1203 l 1,20,-1
 446 1203 l 1,21,-1
 413 808 l 1,22,-1
 419 808 l 1,23,24
 464 882 464 882 547.5 924 c 128,-1,25
 631 966 631 966 740 966 c 0,26,27
 947 966 947 966 1080.5 829.5 c 128,-1,28
 1214 693 1214 693 1214 482 c 0,29,30
 1214 253 1214 253 1059.5 110.5 c 128,-1,31
 905 -32 905 -32 657 -32 c 0,0,1
EndSplineSet
Substitution2: "'frac' Diagonal Fractions lookup 13 subtable" five.numr
Substitution2: "'sups' Superscript lookup 12 subtable" five.sups
Substitution2: "'subs' Subscript lookup 11 subtable" five.subs
Substitution2: "'tnum' Tabular Numbers lookup 9 subtable" five.tnum
Substitution2: "'smcp' Lowercase to Small Capitals lookup 6 subtable" five.sc
Substitution2: "'c2sc' Capitals to Small Capitals lookup 5 subtable" five.sc
EndChar

StartChar: six
Encoding: 54 54 25
Width: 1317
GlyphClass: 2
Flags: W
LayerCount: 2
Fore
SplineSet
684 -33 m 0,0,1
 528 -33 528 -33 404.5 35.5 c 128,-1,2
 281 104 281 104 205 233 c 1,3,4
 84 418 84 418 84 710 c 0,5,6
 84 1067 84 1067 246 1271.5 c 128,-1,7
 408 1476 408 1476 689 1476 c 0,8,9
 895 1476 895 1476 1042 1365 c 128,-1,10
 1189 1254 1189 1254 1219 1077 c 1,11,-1
 922 1077 l 1,12,13
 900 1149 900 1149 836 1193 c 128,-1,14
 772 1237 772 1237 687 1237 c 0,15,16
 535 1237 535 1237 450.5 1099 c 128,-1,17
 366 961 366 961 371 718 c 1,18,-1
 377 718 l 1,19,20
 421 825 421 825 523 889 c 128,-1,21
 625 953 625 953 761 953 c 0,22,23
 967 953 967 953 1102.5 817.5 c 128,-1,24
 1238 682 1238 682 1238 477 c 0,25,26
 1238 254 1238 254 1082 110.5 c 128,-1,27
 926 -33 926 -33 684 -33 c 0,0,1
681 208 m 0,28,29
 791 208 791 208 867.5 283.5 c 128,-1,30
 944 359 944 359 944 468 c 0,31,32
 944 580 944 580 869.5 653 c 128,-1,33
 795 726 795 726 682 726 c 128,-1,34
 569 726 569 726 493.5 653 c 128,-1,35
 418 580 418 580 418 471 c 0,36,37
 418 361 418 361 494 284.5 c 128,-1,38
 570 208 570 208 681 208 c 0,28,29
EndSplineSet
Substitution2: "'cv01' Character Variants 01 lookup 21 subtable" six.1
Substitution2: "'ss06' Style Set 6 lookup 19 subtable" six.1
Substitution2: "'ss01' Style Set 1 lookup 16 subtable" six.1
Substitution2: "'frac' Diagonal Fractions lookup 13 subtable" six.numr
Substitution2: "'sups' Superscript lookup 12 subtable" six.sups
Substitution2: "'subs' Subscript lookup 11 subtable" six.subs
Substitution2: "'tnum' Tabular Numbers lookup 9 subtable" six.tnum
Substitution2: "'smcp' Lowercase to Small Capitals lookup 6 subtable" six.sc
Substitution2: "'c2sc' Capitals to Small Capitals lookup 5 subtable" six.sc
EndChar

StartChar: seven
Encoding: 55 55 26
Width: 1172
GlyphClass: 2
Flags: W
LayerCount: 2
Fore
SplineSet
177 0 m 1,0,-1
 798 1197 l 1,1,-1
 798 1203 l 1,2,-1
 64 1203 l 1,3,-1
 64 1443 l 1,4,-1
 1096 1443 l 1,5,-1
 1096 1200 l 1,6,-1
 494 0 l 1,7,-1
 177 0 l 1,0,-1
EndSplineSet
Substitution2: "'frac' Diagonal Fractions lookup 13 subtable" seven.numr
Substitution2: "'sups' Superscript lookup 12 subtable" seven.sups
Substitution2: "'subs' Subscript lookup 11 subtable" seven.subs
Substitution2: "'tnum' Tabular Numbers lookup 9 subtable" seven.tnum
Substitution2: "'smcp' Lowercase to Small Capitals lookup 6 subtable" seven.sc
Substitution2: "'c2sc' Capitals to Small Capitals lookup 5 subtable" seven.sc
EndChar

StartChar: eight
Encoding: 56 56 27
Width: 1336
GlyphClass: 2
Flags: W
LayerCount: 2
Fore
SplineSet
668 -32 m 0,0,1
 406 -32 406 -32 244.5 85.5 c 128,-1,2
 83 203 83 203 83 391 c 0,3,4
 83 533 83 533 177 634.5 c 128,-1,5
 271 736 271 736 422 761 c 1,6,-1
 422 767 l 1,7,8
 296 796 296 796 218.5 885.5 c 128,-1,9
 141 975 141 975 141 1094 c 0,10,11
 141 1260 141 1260 289 1367.5 c 128,-1,12
 437 1475 437 1475 668 1475 c 0,13,14
 900 1475 900 1475 1047 1367.5 c 128,-1,15
 1194 1260 1194 1260 1194 1093 c 0,16,17
 1194 976 1194 976 1117 886.5 c 128,-1,18
 1040 797 1040 797 914 767 c 1,19,-1
 914 761 l 1,20,21
 1066 735 1066 735 1159.5 633.5 c 128,-1,22
 1253 532 1253 532 1253 390 c 0,23,24
 1253 202 1253 202 1090.5 85 c 128,-1,25
 928 -32 928 -32 668 -32 c 0,0,1
668 188 m 128,-1,27
 787 188 787 188 862 251.5 c 128,-1,28
 937 315 937 315 937 413 c 128,-1,29
 937 511 937 511 862 574.5 c 128,-1,30
 787 638 787 638 668 638 c 128,-1,31
 549 638 549 638 473.5 574.5 c 128,-1,32
 398 511 398 511 398 413 c 128,-1,33
 398 315 398 315 473.5 251.5 c 128,-1,26
 549 188 549 188 668 188 c 128,-1,27
668 858 m 128,-1,35
 768 858 768 858 832 914.5 c 128,-1,36
 896 971 896 971 896 1057 c 0,37,38
 896 1144 896 1144 832 1200.5 c 128,-1,39
 768 1257 768 1257 668 1257 c 128,-1,40
 568 1257 568 1257 504 1200.5 c 128,-1,41
 440 1144 440 1144 440 1057 c 128,-1,42
 440 970 440 970 504 914 c 128,-1,34
 568 858 568 858 668 858 c 128,-1,35
EndSplineSet
Substitution2: "'frac' Diagonal Fractions lookup 13 subtable" eight.numr
Substitution2: "'sups' Superscript lookup 12 subtable" eight.sups
Substitution2: "'subs' Subscript lookup 11 subtable" eight.subs
Substitution2: "'tnum' Tabular Numbers lookup 9 subtable" eight.tnum
Substitution2: "'smcp' Lowercase to Small Capitals lookup 6 subtable" eight.sc
Substitution2: "'c2sc' Capitals to Small Capitals lookup 5 subtable" eight.sc
EndChar

StartChar: nine
Encoding: 57 57 28
Width: 1321
GlyphClass: 2
Flags: W
LayerCount: 2
Fore
SplineSet
631 -32 m 0,0,1
 424 -32 424 -32 276 79.5 c 128,-1,2
 128 191 128 191 98 368 c 1,3,-1
 396 368 l 1,4,5
 418 295 418 295 483.5 251 c 128,-1,6
 549 207 549 207 636 207 c 0,7,8
 787 207 787 207 870.5 344 c 128,-1,9
 954 481 954 481 948 727 c 1,10,-1
 945 727 l 1,11,-1
 943 727 l 1,12,-1
 942 727 l 1,13,14
 902 619 902 619 800 555 c 128,-1,15
 698 491 698 491 558 491 c 0,16,17
 353 491 353 491 216 626.5 c 128,-1,18
 79 762 79 762 79 967 c 0,19,20
 79 1189 79 1189 236 1332.5 c 128,-1,21
 393 1476 393 1476 635 1476 c 0,22,23
 792 1476 792 1476 916.5 1408 c 128,-1,24
 1041 1340 1041 1340 1116 1212 c 1,25,26
 1237 1026 1237 1026 1237 734 c 0,27,28
 1237 375 1237 375 1076.5 171.5 c 128,-1,29
 916 -32 916 -32 631 -32 c 0,0,1
637 718 m 128,-1,31
 750 718 750 718 825.5 791.5 c 128,-1,32
 901 865 901 865 901 974 c 0,33,34
 901 1084 901 1084 825 1159.5 c 128,-1,35
 749 1235 749 1235 639 1235 c 0,36,37
 528 1235 528 1235 451 1160 c 128,-1,38
 374 1085 374 1085 374 976 c 0,39,40
 374 865 374 865 449 791.5 c 128,-1,30
 524 718 524 718 637 718 c 128,-1,31
EndSplineSet
Substitution2: "'cv02' Character Variants 02 lookup 22 subtable" nine.1
Substitution2: "'ss06' Style Set 6 lookup 19 subtable" nine.1
Substitution2: "'ss01' Style Set 1 lookup 16 subtable" nine.1
Substitution2: "'frac' Diagonal Fractions lookup 13 subtable" nine.numr
Substitution2: "'sups' Superscript lookup 12 subtable" nine.sups
Substitution2: "'subs' Subscript lookup 11 subtable" nine.subs
Substitution2: "'tnum' Tabular Numbers lookup 9 subtable" nine.tnum
Substitution2: "'smcp' Lowercase to Small Capitals lookup 6 subtable" nine.sc
Substitution2: "'c2sc' Capitals to Small Capitals lookup 5 subtable" nine.sc
EndChar

StartChar: colon
Encoding: 58 58 29
Width: 569
GlyphClass: 2
Flags: W
LayerCount: 2
Fore
SplineSet
285 -12 m 128,-1,1
 218 -12 218 -12 171 35 c 128,-1,2
 124 82 124 82 124 149 c 128,-1,3
 124 216 124 216 171 263 c 128,-1,4
 218 310 218 310 285 310 c 128,-1,5
 352 310 352 310 399 263 c 128,-1,6
 446 216 446 216 446 149 c 128,-1,7
 446 82 446 82 399 35 c 128,-1,0
 352 -12 352 -12 285 -12 c 128,-1,1
285 703 m 128,-1,9
 218 703 218 703 171 750 c 128,-1,10
 124 797 124 797 124 864 c 0,11,12
 124 932 124 932 171 978.5 c 128,-1,13
 218 1025 218 1025 285 1025 c 128,-1,14
 352 1025 352 1025 399 978 c 128,-1,15
 446 931 446 931 446 864 c 128,-1,16
 446 797 446 797 399 750 c 128,-1,8
 352 703 352 703 285 703 c 128,-1,9
EndSplineSet
Substitution2: "Single Substitution lookup 30 subtable" colon.uc
Substitution2: "'cv04' Character Variants 04 lookup 24 subtable" colon.uc
Substitution2: "'ss03' Style Set 3 lookup 18 subtable" colon.uc
Substitution2: "'case' Case-Sensitive Forms lookup 7 subtable" colon.uc
EndChar

StartChar: semicolon
Encoding: 59 59 30
Width: 569
GlyphClass: 2
Flags: W
LayerCount: 2
Fore
SplineSet
285 703 m 128,-1,1
 218 703 218 703 171 750 c 128,-1,2
 124 797 124 797 124 864 c 0,3,4
 124 932 124 932 171 978.5 c 128,-1,5
 218 1025 218 1025 285 1025 c 128,-1,6
 352 1025 352 1025 399 978 c 128,-1,7
 446 931 446 931 446 864 c 128,-1,8
 446 797 446 797 399 750 c 128,-1,0
 352 703 352 703 285 703 c 128,-1,1
304 -316 m 1,9,-1
 85 -316 l 1,10,-1
 160 248 l 1,11,-1
 438 248 l 1,12,-1
 304 -316 l 1,9,-1
EndSplineSet
EndChar

StartChar: less
Encoding: 60 60 31
Width: 1326
GlyphClass: 2
Flags: W
LayerCount: 2
Fore
SplineSet
1140 906 m 1,0,-1
 483 587 l 1,1,-1
 483 577 l 1,2,-1
 1140 268 l 1,3,-1
 1140 -23 l 1,4,-1
 187 466 l 1,5,-1
 187 691 l 1,6,-1
 1140 1197 l 1,7,-1
 1140 906 l 1,0,-1
EndSplineSet
Substitution2: "'case' Case-Sensitive Forms lookup 7 subtable" less.uc
Substitution2: "'smcp' Lowercase to Small Capitals lookup 6 subtable" less.sc
Substitution2: "'c2sc' Capitals to Small Capitals lookup 5 subtable" less.sc
EndChar

StartChar: equal
Encoding: 61 61 32
Width: 1326
GlyphClass: 2
Flags: W
LayerCount: 2
Fore
SplineSet
1187 220 m 1,0,-1
 139 220 l 1,1,-1
 139 471 l 1,2,-1
 1187 471 l 1,3,-1
 1187 220 l 1,0,-1
1187 687 m 1,4,-1
 139 687 l 1,5,-1
 139 938 l 1,6,-1
 1187 938 l 1,7,-1
 1187 687 l 1,4,-1
EndSplineSet
Substitution2: "'frac' Diagonal Fractions lookup 13 subtable" equal.numr
Substitution2: "'sups' Superscript lookup 12 subtable" equal.sups
Substitution2: "'subs' Subscript lookup 11 subtable" equal.subs
Substitution2: "'case' Case-Sensitive Forms lookup 7 subtable" equal.uc
Substitution2: "'smcp' Lowercase to Small Capitals lookup 6 subtable" equal.sc
Substitution2: "'c2sc' Capitals to Small Capitals lookup 5 subtable" equal.sc
EndChar

StartChar: greater
Encoding: 62 62 33
Width: 1326
GlyphClass: 2
Flags: W
LayerCount: 2
Fore
SplineSet
187 907 m 1,0,-1
 187 1197 l 1,1,-1
 1140 692 l 1,2,-1
 1140 466 l 1,3,-1
 187 -22 l 1,4,-1
 187 269 l 1,5,-1
 843 577 l 1,6,-1
 843 587 l 1,7,-1
 187 907 l 1,0,-1
EndSplineSet
Substitution2: "'case' Case-Sensitive Forms lookup 7 subtable" greater.uc
Substitution2: "'smcp' Lowercase to Small Capitals lookup 6 subtable" greater.sc
Substitution2: "'c2sc' Capitals to Small Capitals lookup 5 subtable" greater.sc
EndChar

StartChar: question
Encoding: 63 63 34
Width: 1093
GlyphClass: 2
Flags: W
LayerCount: 2
Fore
SplineSet
54 1038 m 1,0,1
 58 1227 58 1227 186 1341.5 c 128,-1,2
 314 1456 314 1456 540 1456 c 0,3,4
 753 1456 753 1456 884 1348.5 c 128,-1,5
 1015 1241 1015 1241 1015 1069 c 0,6,7
 1015 958 1015 958 962 875.5 c 128,-1,8
 909 793 909 793 801 730 c 0,9,10
 701 672 701 672 666 626 c 128,-1,11
 631 580 631 580 631 506 c 2,12,-1
 631 453 l 1,13,-1
 366 453 l 1,14,-1
 364 511 l 1,15,16
 354 627 354 627 396.5 702 c 128,-1,17
 439 777 439 777 544 839 c 0,18,19
 641 897 641 897 676.5 943 c 128,-1,20
 712 989 712 989 712 1060 c 0,21,22
 712 1132 712 1132 659.5 1178 c 128,-1,23
 607 1224 607 1224 522 1224 c 0,24,25
 436 1224 436 1224 383 1173.5 c 128,-1,26
 330 1123 330 1123 325 1038 c 1,27,-1
 54 1038 l 1,0,1
502 -25 m 128,-1,29
 434 -25 434 -25 386.5 20.5 c 128,-1,30
 339 66 339 66 339 132 c 128,-1,31
 339 198 339 198 386.5 243.5 c 128,-1,32
 434 289 434 289 502 289 c 128,-1,33
 570 289 570 289 618 243.5 c 128,-1,34
 666 198 666 198 666 132 c 128,-1,35
 666 66 666 66 618 20.5 c 128,-1,28
 570 -25 570 -25 502 -25 c 128,-1,29
EndSplineSet
Substitution2: "'smcp' Lowercase to Small Capitals lookup 6 subtable" question.sc
Substitution2: "'c2sc' Capitals to Small Capitals lookup 5 subtable" question.sc
EndChar

StartChar: at
Encoding: 64 64 35
Width: 1810
GlyphClass: 2
Flags: W
LayerCount: 2
Fore
SplineSet
893 841 m 0,0,1
 814 841 814 841 769 779.5 c 128,-1,2
 724 718 724 718 724 608 c 0,3,4
 724 499 724 499 768.5 437 c 128,-1,5
 813 375 813 375 892 375 c 0,6,7
 973 375 973 375 1020 437.5 c 128,-1,8
 1067 500 1067 500 1067 608 c 128,-1,9
 1067 716 1067 716 1020 778.5 c 128,-1,10
 973 841 973 841 893 841 c 0,0,1
926 1449 m 0,11,12
 1161 1449 1161 1449 1344.5 1356.5 c 128,-1,13
 1528 1264 1528 1264 1630.5 1094.5 c 128,-1,14
 1733 925 1733 925 1733 706 c 0,15,16
 1733 469 1733 469 1627.5 328.5 c 128,-1,17
 1522 188 1522 188 1340 188 c 0,18,19
 1246 188 1246 188 1180.5 230.5 c 128,-1,20
 1115 273 1115 273 1099 345 c 1,21,-1
 1085 345 l 1,22,23
 1022 191 1022 191 844 191 c 0,24,25
 688 191 688 191 592.5 307.5 c 128,-1,26
 497 424 497 424 497 614 c 0,27,28
 497 796 497 796 590.5 909.5 c 128,-1,29
 684 1023 684 1023 834 1023 c 0,30,31
 915 1023 915 1023 978.5 985 c 128,-1,32
 1042 947 1042 947 1071 881 c 1,33,-1
 1085 881 l 1,34,-1
 1085 1001 l 1,35,-1
 1288 1001 l 1,36,-1
 1288 466 l 2,37,38
 1288 413 1288 413 1312.5 383 c 128,-1,39
 1337 353 1337 353 1383 353 c 0,40,41
 1458 353 1458 353 1503.5 443.5 c 128,-1,42
 1549 534 1549 534 1549 691 c 0,43,44
 1549 963 1549 963 1376.5 1126.5 c 128,-1,45
 1204 1290 1204 1290 919 1290 c 0,46,47
 630 1290 630 1290 447 1100.5 c 128,-1,48
 264 911 264 911 264 610 c 0,49,50
 264 299 264 299 453.5 121 c 128,-1,51
 643 -57 643 -57 957 -57 c 0,52,53
 1135 -57 1135 -57 1230 -22 c 1,54,-1
 1230 -182 l 1,55,56
 1105 -219 1105 -219 942 -219 c 0,57,58
 753 -219 753 -219 594 -161 c 128,-1,59
 435 -103 435 -103 321 3.5 c 128,-1,60
 207 110 207 110 143.5 267 c 128,-1,61
 80 424 80 424 80 615 c 0,62,63
 80 860 80 860 187 1050 c 128,-1,64
 294 1240 294 1240 486.5 1344.5 c 128,-1,65
 679 1449 679 1449 926 1449 c 0,11,12
EndSplineSet
Substitution2: "'case' Case-Sensitive Forms lookup 7 subtable" at.uc
Substitution2: "'smcp' Lowercase to Small Capitals lookup 6 subtable" at.sc
Substitution2: "'c2sc' Capitals to Small Capitals lookup 5 subtable" at.sc
EndChar

StartChar: A
Encoding: 65 65 36
Width: 1413
GlyphClass: 2
Flags: W
LayerCount: 2
Fore
SplineSet
1065 0 m 1,0,-1
 955 350 l 1,1,-1
 448 350 l 1,2,-1
 338 0 l 1,3,-1
 28 0 l 1,4,-1
 529 1443 l 1,5,-1
 884 1443 l 1,6,-1
 1386 0 l 1,7,-1
 1065 0 l 1,0,-1
698 1167 m 1,8,-1
 513 576 l 1,9,-1
 890 576 l 1,10,-1
 705 1167 l 1,11,-1
 698 1167 l 1,8,-1
EndSplineSet
Substitution2: "'c2sc' Capitals to Small Capitals lookup 5 subtable" A.sc
EndChar

StartChar: B
Encoding: 66 66 37
Width: 1310
GlyphClass: 2
Flags: W
LayerCount: 2
Fore
SplineSet
759 0 m 2,0,-1
 120 0 l 1,1,-1
 120 1443 l 1,2,-1
 748 1443 l 2,3,4
 951 1443 951 1443 1070 1346 c 128,-1,5
 1189 1249 1189 1249 1189 1083 c 0,6,7
 1189 965 1189 965 1111.5 876 c 128,-1,8
 1034 787 1034 787 918 770 c 1,9,-1
 918 762 l 1,10,11
 1066 751 1066 751 1162 653 c 128,-1,12
 1258 555 1258 555 1258 413 c 0,13,14
 1258 222 1258 222 1124 111 c 128,-1,15
 990 0 990 0 759 0 c 2,0,-1
422 1218 m 1,16,-1
 422 843 l 1,17,-1
 639 843 l 2,18,19
 760 843 760 843 826 893.5 c 128,-1,20
 892 944 892 944 892 1036 c 0,21,22
 892 1123 892 1123 834 1170.5 c 128,-1,23
 776 1218 776 1218 670 1218 c 2,24,-1
 422 1218 l 1,16,-1
422 225 m 1,25,-1
 682 225 l 2,26,27
 813 225 813 225 881.5 279.5 c 128,-1,28
 950 334 950 334 950 437 c 0,29,30
 950 538 950 538 879.5 591 c 128,-1,31
 809 644 809 644 675 644 c 2,32,-1
 422 644 l 1,33,-1
 422 225 l 1,25,-1
EndSplineSet
Substitution2: "'c2sc' Capitals to Small Capitals lookup 5 subtable" B.sc
EndChar

StartChar: C
Encoding: 67 67 38
Width: 1459
GlyphClass: 2
Flags: W
LayerCount: 2
Fore
SplineSet
758 -25 m 0,0,1
 442 -25 442 -25 258.5 174.5 c 128,-1,2
 75 374 75 374 75 722 c 0,3,4
 75 1069 75 1069 259 1268.5 c 128,-1,5
 443 1468 443 1468 758 1468 c 0,6,7
 930 1468 930 1468 1070.5 1400 c 128,-1,8
 1211 1332 1211 1332 1296 1208 c 128,-1,9
 1381 1084 1381 1084 1392 925 c 1,10,-1
 1098 925 l 1,11,12
 1077 1058 1077 1058 983.5 1138 c 128,-1,13
 890 1218 890 1218 758 1218 c 0,14,15
 587 1218 587 1218 485 1084 c 128,-1,16
 383 950 383 950 383 723 c 0,17,18
 383 492 383 492 484 358.5 c 128,-1,19
 585 225 585 225 759 225 c 0,20,21
 893 225 893 225 984 299 c 128,-1,22
 1075 373 1075 373 1099 501 c 1,23,-1
 1393 501 l 1,24,25
 1368 260 1368 260 1196 117.5 c 128,-1,26
 1024 -25 1024 -25 758 -25 c 0,0,1
EndSplineSet
Substitution2: "'c2sc' Capitals to Small Capitals lookup 5 subtable" C.sc
EndChar

StartChar: D
Encoding: 68 68 39
Width: 1433
GlyphClass: 2
Flags: W
LayerCount: 2
Fore
SplineSet
120 1443 m 1,0,-1
 671 1443 l 2,1,2
 997 1443 997 1443 1178 1256 c 128,-1,3
 1359 1069 1359 1069 1359 727 c 0,4,5
 1359 384 1359 384 1177.5 192 c 128,-1,6
 996 0 996 0 671 0 c 2,7,-1
 120 0 l 1,8,-1
 120 1443 l 1,0,-1
422 1194 m 1,9,-1
 422 250 l 1,10,-1
 635 250 l 2,11,12
 838 250 838 250 944.5 371.5 c 128,-1,13
 1051 493 1051 493 1051 726 c 0,14,15
 1051 952 1051 952 943 1073 c 128,-1,16
 835 1194 835 1194 635 1194 c 2,17,-1
 422 1194 l 1,9,-1
EndSplineSet
Substitution2: "'c2sc' Capitals to Small Capitals lookup 5 subtable" D.sc
EndChar

StartChar: E
Encoding: 69 69 40
Width: 1174
GlyphClass: 2
Flags: W
LayerCount: 2
Fore
SplineSet
1076 250 m 1,0,-1
 1076 0 l 1,1,-1
 120 0 l 1,2,-1
 120 1443 l 1,3,-1
 1076 1443 l 1,4,-1
 1076 1194 l 1,5,-1
 422 1194 l 1,6,-1
 422 846 l 1,7,-1
 1039 846 l 1,8,-1
 1039 614 l 1,9,-1
 422 614 l 1,10,-1
 422 250 l 1,11,-1
 1076 250 l 1,0,-1
EndSplineSet
Substitution2: "'c2sc' Capitals to Small Capitals lookup 5 subtable" E.sc
EndChar

StartChar: F
Encoding: 70 70 41
Width: 1123
GlyphClass: 2
Flags: W
LayerCount: 2
Fore
SplineSet
422 0 m 1,0,-1
 120 0 l 1,1,-1
 120 1443 l 1,2,-1
 1065 1443 l 1,3,-1
 1065 1194 l 1,4,-1
 422 1194 l 1,5,-1
 422 807 l 1,6,-1
 1009 807 l 1,7,-1
 1009 568 l 1,8,-1
 422 568 l 1,9,-1
 422 0 l 1,0,-1
EndSplineSet
Substitution2: "'c2sc' Capitals to Small Capitals lookup 5 subtable" F.sc
EndChar

StartChar: G
Encoding: 71 71 42
Width: 1489
GlyphClass: 2
Flags: W
LayerCount: 2
Fore
SplineSet
1410 606 m 2,0,1
 1410 311 1410 311 1240.5 143 c 128,-1,2
 1071 -25 1071 -25 770 -25 c 0,3,4
 446 -25 446 -25 260.5 175 c 128,-1,5
 75 375 75 375 75 726 c 0,6,7
 75 1072 75 1072 259.5 1270 c 128,-1,8
 444 1468 444 1468 763 1468 c 0,9,10
 1015 1468 1015 1468 1190 1332 c 128,-1,11
 1365 1196 1365 1196 1397 977 c 1,12,-1
 1094 977 l 1,13,14
 1061 1090 1061 1090 973.5 1154 c 128,-1,15
 886 1218 886 1218 764 1218 c 0,16,17
 585 1218 585 1218 484 1089 c 128,-1,18
 383 960 383 960 383 730 c 0,19,20
 383 496 383 496 488.5 361 c 128,-1,21
 594 226 594 226 775 226 c 0,22,23
 923 226 923 226 1016.5 309 c 128,-1,24
 1110 392 1110 392 1115 526 c 2,25,-1
 1116 549 l 1,26,-1
 802 549 l 1,27,-1
 802 769 l 1,28,-1
 1410 769 l 1,29,-1
 1410 606 l 2,0,1
EndSplineSet
Substitution2: "'c2sc' Capitals to Small Capitals lookup 5 subtable" G.sc
EndChar

StartChar: H
Encoding: 72 72 43
Width: 1494
GlyphClass: 2
Flags: W
LayerCount: 2
Fore
SplineSet
1374 0 m 1,0,-1
 1072 0 l 1,1,-1
 1072 608 l 1,2,-1
 422 608 l 1,3,-1
 422 0 l 1,4,-1
 120 0 l 1,5,-1
 120 1443 l 1,6,-1
 422 1443 l 1,7,-1
 422 857 l 1,8,-1
 1072 857 l 1,9,-1
 1072 1443 l 1,10,-1
 1374 1443 l 1,11,-1
 1374 0 l 1,0,-1
EndSplineSet
Substitution2: "'c2sc' Capitals to Small Capitals lookup 5 subtable" H.sc
EndChar

StartChar: I
Encoding: 73 73 44
Width: 542
GlyphClass: 2
Flags: W
LayerCount: 2
Fore
SplineSet
422 0 m 1,0,-1
 120 0 l 1,1,-1
 120 1443 l 1,2,-1
 422 1443 l 1,3,-1
 422 0 l 1,0,-1
EndSplineSet
Substitution2: "'cv05' Character Variants 05 lookup 25 subtable" I.1
Substitution2: "'ss06' Style Set 6 lookup 19 subtable" I.1
Substitution2: "'c2sc' Capitals to Small Capitals lookup 5 subtable" I.sc
EndChar

StartChar: J
Encoding: 74 74 45
Width: 1143
GlyphClass: 2
Flags: W
LayerCount: 2
Fore
SplineSet
31 425 m 1,0,-1
 324 425 l 1,1,2
 326 337 326 337 378.5 284 c 128,-1,3
 431 231 431 231 516 231 c 0,4,5
 611 231 611 231 660.5 288 c 128,-1,6
 710 345 710 345 710 454 c 2,7,-1
 710 1443 l 1,8,-1
 1012 1443 l 1,9,-1
 1012 452 l 2,10,11
 1012 223 1012 223 882 96.5 c 128,-1,12
 752 -30 752 -30 519 -30 c 0,13,14
 298 -30 298 -30 164.5 94 c 128,-1,15
 31 218 31 218 31 425 c 1,0,-1
EndSplineSet
Substitution2: "'c2sc' Capitals to Small Capitals lookup 5 subtable" J.sc
EndChar

StartChar: K
Encoding: 75 75 46
Width: 1353
GlyphClass: 2
Flags: W
LayerCount: 2
Fore
SplineSet
422 0 m 1,0,-1
 120 0 l 1,1,-1
 120 1443 l 1,2,-1
 422 1443 l 1,3,-1
 422 785 l 1,4,-1
 431 785 l 1,5,-1
 973 1443 l 1,6,-1
 1309 1443 l 1,7,-1
 775 803 l 1,8,-1
 1346 0 l 1,9,-1
 985 0 l 1,10,-1
 557 603 l 1,11,-1
 422 441 l 1,12,-1
 422 0 l 1,0,-1
EndSplineSet
Substitution2: "'c2sc' Capitals to Small Capitals lookup 5 subtable" K.sc
EndChar

StartChar: L
Encoding: 76 76 47
Width: 1112
GlyphClass: 2
Flags: W
LayerCount: 2
Fore
SplineSet
1053 250 m 1,0,-1
 1053 0 l 1,1,-1
 120 0 l 1,2,-1
 120 1443 l 1,3,-1
 422 1443 l 1,4,-1
 422 250 l 1,5,-1
 1053 250 l 1,0,-1
EndSplineSet
Substitution2: "'c2sc' Capitals to Small Capitals lookup 5 subtable" L.sc
EndChar

StartChar: M
Encoding: 77 77 48
Width: 1768
GlyphClass: 2
Flags: W
LayerCount: 2
Fore
SplineSet
1648 0 m 1,0,-1
 1379 0 l 1,1,-1
 1379 974 l 1,2,-1
 1371 974 l 1,3,-1
 979 14 l 1,4,-1
 789 14 l 1,5,-1
 397 974 l 1,6,-1
 389 974 l 1,7,-1
 389 0 l 1,8,-1
 120 0 l 1,9,-1
 120 1443 l 1,10,-1
 470 1443 l 1,11,-1
 880 420 l 1,12,-1
 888 420 l 1,13,-1
 1298 1443 l 1,14,-1
 1648 1443 l 1,15,-1
 1648 0 l 1,0,-1
EndSplineSet
Substitution2: "'c2sc' Capitals to Small Capitals lookup 5 subtable" M.sc
EndChar

StartChar: N
Encoding: 78 78 49
Width: 1463
GlyphClass: 2
Flags: W
LayerCount: 2
Fore
SplineSet
409 0 m 1,0,-1
 120 0 l 1,1,-1
 120 1443 l 1,2,-1
 372 1443 l 1,3,-1
 1046 503 l 1,4,-1
 1054 503 l 1,5,-1
 1054 1443 l 1,6,-1
 1343 1443 l 1,7,-1
 1343 0 l 1,8,-1
 1093 0 l 1,9,-1
 418 945 l 1,10,-1
 409 945 l 1,11,-1
 409 0 l 1,0,-1
EndSplineSet
Substitution2: "'c2sc' Capitals to Small Capitals lookup 5 subtable" N.sc
EndChar

StartChar: O
Encoding: 79 79 50
Width: 1541
GlyphClass: 2
Flags: W
LayerCount: 2
Fore
SplineSet
771 1468 m 128,-1,1
 1092 1468 1092 1468 1279.5 1267 c 128,-1,2
 1467 1066 1467 1066 1467 721 c 0,3,4
 1467 377 1467 377 1279 176 c 128,-1,5
 1091 -25 1091 -25 771 -25 c 0,6,7
 450 -25 450 -25 262.5 176 c 128,-1,8
 75 377 75 377 75 721 c 0,9,10
 75 1066 75 1066 262.5 1267 c 128,-1,0
 450 1468 450 1468 771 1468 c 128,-1,1
771 1216 m 128,-1,12
 594 1216 594 1216 488.5 1082 c 128,-1,13
 383 948 383 948 383 721 c 0,14,15
 383 495 383 495 488 361.5 c 128,-1,16
 593 228 593 228 771 228 c 0,17,18
 948 228 948 228 1053 361.5 c 128,-1,19
 1158 495 1158 495 1158 721 c 0,20,21
 1158 948 1158 948 1053 1082 c 128,-1,11
 948 1216 948 1216 771 1216 c 128,-1,12
EndSplineSet
Substitution2: "'c2sc' Capitals to Small Capitals lookup 5 subtable" O.sc
EndChar

StartChar: P
Encoding: 80 80 51
Width: 1265
GlyphClass: 2
Flags: W
LayerCount: 2
Fore
SplineSet
120 1443 m 1,0,-1
 707 1443 l 2,1,2
 930 1443 930 1443 1068.5 1307 c 128,-1,3
 1207 1171 1207 1171 1207 949 c 0,4,5
 1207 728 1207 728 1064 591.5 c 128,-1,6
 921 455 921 455 692 455 c 2,7,-1
 422 455 l 1,8,-1
 422 0 l 1,9,-1
 120 0 l 1,10,-1
 120 1443 l 1,0,-1
422 1204 m 1,11,-1
 422 691 l 1,12,-1
 626 691 l 2,13,14
 756 691 756 691 828 758 c 128,-1,15
 900 825 900 825 900 948 c 128,-1,16
 900 1071 900 1071 828.5 1137.5 c 128,-1,17
 757 1204 757 1204 627 1204 c 2,18,-1
 422 1204 l 1,11,-1
EndSplineSet
Substitution2: "'c2sc' Capitals to Small Capitals lookup 5 subtable" P.sc
EndChar

StartChar: Q
Encoding: 81 81 52
Width: 1541
GlyphClass: 2
Flags: W
LayerCount: 2
Fore
SplineSet
771 -25 m 0,0,1
 449 -25 449 -25 262 175 c 128,-1,2
 75 375 75 375 75 721 c 0,3,4
 75 1065 75 1065 262.5 1266.5 c 128,-1,5
 450 1468 450 1468 771 1468 c 0,6,7
 1091 1468 1091 1468 1278.5 1266.5 c 128,-1,8
 1466 1065 1466 1065 1466 721 c 0,9,10
 1466 531 1466 531 1407 381.5 c 128,-1,11
 1348 232 1348 232 1236 140 c 1,12,-1
 1419 -136 l 1,13,-1
 1126 -136 l 1,14,-1
 1023 15 l 1,15,16
 909 -25 909 -25 771 -25 c 0,0,1
771 225 m 0,17,18
 824 225 824 225 874 239 c 1,19,-1
 716 475 l 1,20,-1
 989 475 l 1,21,-1
 1052 389 l 1,22,23
 1158 511 1158 511 1158 721 c 0,24,25
 1158 948 1158 948 1053 1083.5 c 128,-1,26
 948 1219 948 1219 771 1219 c 0,27,28
 593 1219 593 1219 488 1083.5 c 128,-1,29
 383 948 383 948 383 721 c 128,-1,30
 383 494 383 494 488 359.5 c 128,-1,31
 593 225 593 225 771 225 c 0,17,18
EndSplineSet
Substitution2: "'c2sc' Capitals to Small Capitals lookup 5 subtable" Q.sc
EndChar

StartChar: R
Encoding: 82 82 53
Width: 1311
GlyphClass: 2
Flags: W
LayerCount: 2
Fore
SplineSet
422 1207 m 1,0,-1
 422 747 l 1,1,-1
 682 747 l 2,2,3
 796 747 796 747 859.5 808 c 128,-1,4
 923 869 923 869 923 977 c 0,5,6
 923 1082 923 1082 857 1144.5 c 128,-1,7
 791 1207 791 1207 679 1207 c 2,8,-1
 422 1207 l 1,0,-1
422 528 m 1,9,-1
 422 0 l 1,10,-1
 120 0 l 1,11,-1
 120 1443 l 1,12,-1
 711 1443 l 2,13,14
 958 1443 958 1443 1095.5 1320.5 c 128,-1,15
 1233 1198 1233 1198 1233 983 c 0,16,17
 1233 842 1233 842 1163.5 731.5 c 128,-1,18
 1094 621 1094 621 971 573 c 1,19,-1
 1275 0 l 1,20,-1
 933 0 l 1,21,-1
 664 528 l 1,22,-1
 422 528 l 1,9,-1
EndSplineSet
Substitution2: "'c2sc' Capitals to Small Capitals lookup 5 subtable" R.sc
EndChar

StartChar: S
Encoding: 83 83 54
Width: 1293
GlyphClass: 2
Flags: W
LayerCount: 2
Fore
SplineSet
66 411 m 1,0,-1
 357 411 l 1,1,2
 367 323 367 323 450.5 268.5 c 128,-1,3
 534 214 534 214 655 214 c 0,4,5
 775 214 775 214 850.5 265.5 c 128,-1,6
 926 317 926 317 926 397 c 0,7,8
 926 467 926 467 870 510 c 128,-1,9
 814 553 814 553 683 582 c 2,10,-1
 495 623 l 2,11,12
 98 708 98 708 98 1026 c 0,13,14
 98 1224 98 1224 252.5 1346 c 128,-1,15
 407 1468 407 1468 650 1468 c 0,16,17
 900 1468 900 1468 1049 1349.5 c 128,-1,18
 1198 1231 1198 1231 1202 1034 c 1,19,-1
 919 1034 l 1,20,21
 912 1125 912 1125 838.5 1177.5 c 128,-1,22
 765 1230 765 1230 651 1230 c 0,23,24
 539 1230 539 1230 470.5 1181 c 128,-1,25
 402 1132 402 1132 402 1052 c 0,26,27
 402 986 402 986 457.5 945 c 128,-1,28
 513 904 513 904 638 875 c 2,29,-1
 813 838 l 2,30,31
 1030 792 1030 792 1129 694.5 c 128,-1,32
 1228 597 1228 597 1228 432 c 0,33,34
 1228 222 1228 222 1070 98.5 c 128,-1,35
 912 -25 912 -25 643 -25 c 0,36,37
 382 -25 382 -25 227.5 91.5 c 128,-1,38
 73 208 73 208 66 411 c 1,0,-1
EndSplineSet
Substitution2: "'c2sc' Capitals to Small Capitals lookup 5 subtable" S.sc
EndChar

StartChar: T
Encoding: 84 84 55
Width: 1232
GlyphClass: 2
Flags: W
LayerCount: 2
Fore
SplineSet
767 0 m 1,0,-1
 465 0 l 1,1,-1
 465 1194 l 1,2,-1
 48 1194 l 1,3,-1
 48 1443 l 1,4,-1
 1185 1443 l 1,5,-1
 1185 1194 l 1,6,-1
 767 1194 l 1,7,-1
 767 0 l 1,0,-1
EndSplineSet
Substitution2: "'c2sc' Capitals to Small Capitals lookup 5 subtable" T.sc
EndChar

StartChar: U
Encoding: 85 85 56
Width: 1449
GlyphClass: 2
Flags: W
LayerCount: 2
Fore
SplineSet
422 1443 m 1,0,-1
 422 540 l 2,1,2
 422 399 422 399 501.5 316.5 c 128,-1,3
 581 234 581 234 725 234 c 0,4,5
 868 234 868 234 947.5 316.5 c 128,-1,6
 1027 399 1027 399 1027 540 c 2,7,-1
 1027 1443 l 1,8,-1
 1329 1443 l 1,9,-1
 1329 510 l 2,10,11
 1329 270 1329 270 1164.5 122.5 c 128,-1,12
 1000 -25 1000 -25 725 -25 c 0,13,14
 449 -25 449 -25 284.5 122.5 c 128,-1,15
 120 270 120 270 120 510 c 2,16,-1
 120 1443 l 1,17,-1
 422 1443 l 1,0,-1
EndSplineSet
Substitution2: "'c2sc' Capitals to Small Capitals lookup 5 subtable" U.sc
EndChar

StartChar: V
Encoding: 86 86 57
Width: 1389
GlyphClass: 2
Flags: W
LayerCount: 2
Fore
SplineSet
877 0 m 1,0,-1
 513 0 l 1,1,-1
 28 1443 l 1,2,-1
 366 1443 l 1,3,-1
 696 311 l 1,4,-1
 703 311 l 1,5,-1
 1033 1443 l 1,6,-1
 1362 1443 l 1,7,-1
 877 0 l 1,0,-1
EndSplineSet
Substitution2: "'c2sc' Capitals to Small Capitals lookup 5 subtable" V.sc
EndChar

StartChar: W
Encoding: 87 87 58
Width: 1977
GlyphClass: 2
Flags: W
LayerCount: 2
Fore
SplineSet
984 986 m 1,0,-1
 710 0 l 1,1,-1
 425 0 l 1,2,-1
 43 1443 l 1,3,-1
 356 1443 l 1,4,-1
 583 398 l 1,5,-1
 591 398 l 1,6,-1
 861 1443 l 1,7,-1
 1116 1443 l 1,8,-1
 1386 398 l 1,9,-1
 1394 398 l 1,10,-1
 1622 1443 l 1,11,-1
 1935 1443 l 1,12,-1
 1552 0 l 1,13,-1
 1267 0 l 1,14,-1
 993 986 l 1,15,-1
 984 986 l 1,0,-1
EndSplineSet
Substitution2: "'c2sc' Capitals to Small Capitals lookup 5 subtable" W.sc
EndChar

StartChar: X
Encoding: 88 88 59
Width: 1404
GlyphClass: 2
Flags: W
LayerCount: 2
Fore
SplineSet
43 0 m 1,0,-1
 501 723 l 1,1,-1
 501 731 l 1,2,-1
 46 1443 l 1,3,-1
 401 1443 l 1,4,-1
 707 923 l 1,5,-1
 715 923 l 1,6,-1
 1024 1443 l 1,7,-1
 1361 1443 l 1,8,-1
 889 725 l 1,9,-1
 889 718 l 1,10,-1
 1355 0 l 1,11,-1
 1011 0 l 1,12,-1
 695 505 l 1,13,-1
 687 505 l 1,14,-1
 369 0 l 1,15,-1
 43 0 l 1,0,-1
EndSplineSet
Substitution2: "'c2sc' Capitals to Small Capitals lookup 5 subtable" X.sc
EndChar

StartChar: Y
Encoding: 89 89 60
Width: 1362
GlyphClass: 2
Flags: W
LayerCount: 2
Fore
SplineSet
832 0 m 1,0,-1
 530 0 l 1,1,-1
 530 539 l 1,2,-1
 28 1443 l 1,3,-1
 357 1443 l 1,4,-1
 680 827 l 1,5,-1
 687 827 l 1,6,-1
 1011 1443 l 1,7,-1
 1335 1443 l 1,8,-1
 832 539 l 1,9,-1
 832 0 l 1,0,-1
EndSplineSet
Substitution2: "'c2sc' Capitals to Small Capitals lookup 5 subtable" Y.sc
EndChar

StartChar: Z
Encoding: 90 90 61
Width: 1292
GlyphClass: 2
Flags: W
LayerCount: 2
Fore
SplineSet
89 0 m 1,0,-1
 89 197 l 1,1,-1
 822 1186 l 1,2,-1
 822 1194 l 1,3,-1
 106 1194 l 1,4,-1
 106 1443 l 1,5,-1
 1183 1443 l 1,6,-1
 1183 1247 l 1,7,-1
 453 257 l 1,8,-1
 453 250 l 1,9,-1
 1203 250 l 1,10,-1
 1203 0 l 1,11,-1
 89 0 l 1,0,-1
EndSplineSet
Substitution2: "'c2sc' Capitals to Small Capitals lookup 5 subtable" Z.sc
EndChar

StartChar: bracketleft
Encoding: 91 91 62
Width: 782
GlyphClass: 2
Flags: W
LayerCount: 2
Fore
SplineSet
203 1443 m 1,0,-1
 757 1443 l 1,1,-1
 757 1228 l 1,2,-1
 484 1228 l 1,3,-1
 484 -96 l 1,4,-1
 757 -96 l 1,5,-1
 757 -310 l 1,6,-1
 203 -310 l 1,7,-1
 203 1443 l 1,0,-1
EndSplineSet
Substitution2: "'case' Case-Sensitive Forms lookup 7 subtable" bracketleft.uc
Substitution2: "'smcp' Lowercase to Small Capitals lookup 6 subtable" bracketleft.sc
Substitution2: "'c2sc' Capitals to Small Capitals lookup 5 subtable" bracketleft.sc
EndChar

StartChar: backslash
Encoding: 92 92 63
Width: 782
GlyphClass: 2
Flags: W
LayerCount: 2
Fore
SplineSet
508 -310 m 1,0,-1
 0 1443 l 1,1,-1
 275 1443 l 1,2,-1
 782 -310 l 1,3,-1
 508 -310 l 1,0,-1
EndSplineSet
Substitution2: "'case' Case-Sensitive Forms lookup 7 subtable" backslash.uc
Substitution2: "'smcp' Lowercase to Small Capitals lookup 6 subtable" backslash.sc
Substitution2: "'c2sc' Capitals to Small Capitals lookup 5 subtable" backslash.sc
EndChar

StartChar: bracketright
Encoding: 93 93 64
Width: 782
GlyphClass: 2
Flags: W
LayerCount: 2
Fore
SplineSet
579 1443 m 1,0,-1
 579 -310 l 1,1,-1
 25 -310 l 1,2,-1
 25 -96 l 1,3,-1
 299 -96 l 1,4,-1
 299 1228 l 1,5,-1
 25 1228 l 1,6,-1
 25 1443 l 1,7,-1
 579 1443 l 1,0,-1
EndSplineSet
Substitution2: "'case' Case-Sensitive Forms lookup 7 subtable" bracketright.uc
Substitution2: "'smcp' Lowercase to Small Capitals lookup 6 subtable" bracketright.sc
Substitution2: "'c2sc' Capitals to Small Capitals lookup 5 subtable" bracketright.sc
EndChar

StartChar: asciicircum
Encoding: 94 94 65
Width: 978
GlyphClass: 2
Flags: W
LayerCount: 2
Fore
SplineSet
480 1193 m 1,0,-1
 296 811 l 1,1,-1
 45 811 l 1,2,-1
 361 1423 l 1,3,-1
 620 1423 l 1,4,-1
 934 811 l 1,5,-1
 676 811 l 1,6,-1
 497 1193 l 1,7,-1
 480 1193 l 1,0,-1
EndSplineSet
Substitution2: "'smcp' Lowercase to Small Capitals lookup 6 subtable" asciicircum.sc
Substitution2: "'c2sc' Capitals to Small Capitals lookup 5 subtable" asciicircum.sc
EndChar

StartChar: underscore
Encoding: 95 95 66
Width: 857
GlyphClass: 2
Flags: W
LayerCount: 2
Fore
SplineSet
903 -325 m 1,0,-1
 -46 -325 l 1,1,-1
 -46 -107 l 1,2,-1
 903 -107 l 1,3,-1
 903 -325 l 1,0,-1
EndSplineSet
EndChar

StartChar: grave
Encoding: 96 96 67
Width: 1010
GlyphClass: 2
Flags: W
LayerCount: 2
Fore
SplineSet
751 1282 m 1,0,-1
 518 1282 l 1,1,-1
 262 1592 l 1,2,-1
 530 1592 l 1,3,-1
 751 1282 l 1,0,-1
EndSplineSet
EndChar

StartChar: a
Encoding: 97 97 68
Width: 1121
GlyphClass: 2
Flags: W
LayerCount: 2
Fore
SplineSet
509 194 m 0,0,1
 606 194 606 194 673.5 250.5 c 128,-1,2
 741 307 741 307 741 393 c 2,3,-1
 741 471 l 1,4,-1
 515 457 l 2,5,6
 433 451 433 451 388.5 416 c 128,-1,7
 344 381 344 381 344 324 c 0,8,9
 344 264 344 264 389 229 c 128,-1,10
 434 194 434 194 509 194 c 0,0,1
413 -17 m 0,11,12
 258 -17 258 -17 156 74 c 128,-1,13
 54 165 54 165 54 308 c 0,14,15
 54 454 54 454 162 537 c 128,-1,16
 270 620 270 620 471 632 c 2,17,-1
 741 648 l 1,18,-1
 741 719 l 2,19,20
 741 793 741 793 692.5 835 c 128,-1,21
 644 877 644 877 561 877 c 0,22,23
 481 877 481 877 430.5 841 c 128,-1,24
 380 805 380 805 369 744 c 1,25,-1
 102 744 l 1,26,27
 110 902 110 902 237 998.5 c 128,-1,28
 364 1095 364 1095 574 1095 c 0,29,30
 780 1095 780 1095 904 997 c 128,-1,31
 1028 899 1028 899 1028 737 c 2,32,-1
 1028 0 l 1,33,-1
 746 0 l 1,34,-1
 746 164 l 1,35,-1
 740 164 l 1,36,37
 696 80 696 80 606 31.5 c 128,-1,38
 516 -17 516 -17 413 -17 c 0,11,12
EndSplineSet
Substitution2: "'cv07' Character Variants 07 lookup 27 subtable" a.1
Substitution2: "'ss07' Style Set 7 lookup 20 subtable" a.1
Substitution2: "'smcp' Lowercase to Small Capitals lookup 6 subtable" A.sc
EndChar

StartChar: b
Encoding: 98 98 69
Width: 1223
GlyphClass: 2
Flags: W
LayerCount: 2
Fore
SplineSet
732 -17 m 0,0,1
 616 -17 616 -17 528.5 36 c 128,-1,2
 441 89 441 89 396 184 c 1,3,-1
 390 184 l 1,4,-1
 390 0 l 1,5,-1
 102 0 l 1,6,-1
 102 1443 l 1,7,-1
 394 1443 l 1,8,-1
 394 886 l 1,9,-1
 400 886 l 1,10,11
 445 982 445 982 531 1035.5 c 128,-1,12
 617 1089 617 1089 731 1089 c 0,13,14
 934 1089 934 1089 1050.5 942 c 128,-1,15
 1167 795 1167 795 1167 536 c 0,16,17
 1167 278 1167 278 1051 130.5 c 128,-1,18
 935 -17 935 -17 732 -17 c 0,0,1
631 855 m 0,19,20
 525 855 525 855 459 767 c 128,-1,21
 393 679 393 679 393 536 c 0,22,23
 393 391 393 391 458.5 304.5 c 128,-1,24
 524 218 524 218 631 218 c 0,25,26
 741 218 741 218 804.5 303.5 c 128,-1,27
 868 389 868 389 868 536 c 0,28,29
 868 682 868 682 804 768.5 c 128,-1,30
 740 855 740 855 631 855 c 0,19,20
EndSplineSet
Substitution2: "'smcp' Lowercase to Small Capitals lookup 6 subtable" B.sc
EndChar

StartChar: c
Encoding: 99 99 70
Width: 1116
GlyphClass: 2
Flags: W
LayerCount: 2
Fore
SplineSet
1069 673 m 1,0,-1
 798 673 l 1,1,2
 785 760 785 760 729.5 813 c 128,-1,3
 674 866 674 866 586 866 c 0,4,5
 477 866 477 866 414.5 778.5 c 128,-1,6
 352 691 352 691 352 537 c 0,7,8
 352 380 352 380 414.5 293 c 128,-1,9
 477 206 477 206 587 206 c 0,10,11
 674 206 674 206 729 255.5 c 128,-1,12
 784 305 784 305 798 393 c 1,13,-1
 1070 393 l 1,14,15
 1059 203 1059 203 927 90 c 128,-1,16
 795 -23 795 -23 584 -23 c 0,17,18
 340 -23 340 -23 198 126.5 c 128,-1,19
 56 276 56 276 56 537 c 0,20,21
 56 794 56 794 198.5 944.5 c 128,-1,22
 341 1095 341 1095 582 1095 c 0,23,24
 796 1095 796 1095 927.5 977 c 128,-1,25
 1059 859 1059 859 1069 673 c 1,0,-1
EndSplineSet
Substitution2: "'smcp' Lowercase to Small Capitals lookup 6 subtable" C.sc
EndChar

StartChar: d
Encoding: 100 100 71
Width: 1220
GlyphClass: 2
Flags: W
LayerCount: 2
Fore
SplineSet
493 -17 m 0,0,1
 292 -17 292 -17 174 132 c 128,-1,2
 56 281 56 281 56 538 c 0,3,4
 56 793 56 793 174.5 941 c 128,-1,5
 293 1089 293 1089 495 1089 c 0,6,7
 609 1089 609 1089 695.5 1034 c 128,-1,8
 782 979 782 979 822 888 c 1,9,-1
 828 888 l 1,10,-1
 828 1443 l 1,11,-1
 1120 1443 l 1,12,-1
 1120 0 l 1,13,-1
 832 0 l 1,14,-1
 832 184 l 1,15,-1
 827 184 l 1,16,17
 787 93 787 93 698 38 c 128,-1,18
 609 -17 609 -17 493 -17 c 0,0,1
592 855 m 0,19,20
 482 855 482 855 418.5 769 c 128,-1,21
 355 683 355 683 355 536 c 0,22,23
 355 388 355 388 418.5 303 c 128,-1,24
 482 218 482 218 592 218 c 0,25,26
 701 218 701 218 765.5 303.5 c 128,-1,27
 830 389 830 389 830 536 c 0,28,29
 830 682 830 682 765.5 768.5 c 128,-1,30
 701 855 701 855 592 855 c 0,19,20
EndSplineSet
Substitution2: "'smcp' Lowercase to Small Capitals lookup 6 subtable" D.sc
EndChar

StartChar: e
Encoding: 101 101 72
Width: 1137
GlyphClass: 2
Flags: W
LayerCount: 2
Fore
SplineSet
576 879 m 0,0,1
 481 879 481 879 417.5 814 c 128,-1,2
 354 749 354 749 346 648 c 1,3,-1
 801 648 l 1,4,5
 796 751 796 751 734.5 815 c 128,-1,6
 673 879 673 879 576 879 c 0,0,1
805 328 m 1,7,-1
 1073 328 l 1,8,9
 1049 170 1049 170 915.5 73.5 c 128,-1,10
 782 -23 782 -23 584 -23 c 0,11,12
 337 -23 337 -23 196.5 125 c 128,-1,13
 56 273 56 273 56 531 c 0,14,15
 56 788 56 788 196 941.5 c 128,-1,16
 336 1095 336 1095 573 1095 c 0,17,18
 806 1095 806 1095 944 949 c 128,-1,19
 1082 803 1082 803 1082 558 c 2,20,-1
 1082 469 l 1,21,-1
 343 469 l 1,22,-1
 343 451 l 2,23,24
 343 336 343 336 410.5 264.5 c 128,-1,25
 478 193 478 193 589 193 c 0,26,27
 669 193 669 193 727 229.5 c 128,-1,28
 785 266 785 266 805 328 c 1,7,-1
EndSplineSet
Substitution2: "'smcp' Lowercase to Small Capitals lookup 6 subtable" E.sc
EndChar

StartChar: f
Encoding: 102 102 73
Width: 729
GlyphClass: 2
Flags: W
LayerCount: 2
Fore
SplineSet
173 0 m 1,0,-1
 173 852 l 1,1,-1
 27 852 l 1,2,-1
 27 1067 l 1,3,-1
 173 1067 l 1,4,-1
 173 1148 l 2,5,6
 173 1308 173 1308 255.5 1382 c 128,-1,7
 338 1456 338 1456 526 1456 c 0,8,9
 612 1456 612 1456 675 1443 c 1,10,-1
 675 1250 l 1,11,12
 643 1256 643 1256 596 1256 c 0,13,14
 458 1256 458 1256 458 1138 c 2,15,-1
 458 1067 l 1,16,-1
 671 1067 l 1,17,-1
 671 852 l 1,18,-1
 465 852 l 1,19,-1
 465 0 l 1,20,-1
 173 0 l 1,0,-1
EndSplineSet
Substitution2: "'smcp' Lowercase to Small Capitals lookup 6 subtable" F.sc
EndChar

StartChar: g
Encoding: 103 103 74
Width: 1215
GlyphClass: 2
Flags: W
LayerCount: 2
Fore
SplineSet
590 228 m 0,0,1
 700 228 700 228 764.5 310.5 c 128,-1,2
 829 393 829 393 829 538 c 128,-1,3
 829 683 829 683 764 769 c 128,-1,4
 699 855 699 855 590 855 c 0,5,6
 482 855 482 855 418.5 769.5 c 128,-1,7
 355 684 355 684 355 538 c 128,-1,8
 355 392 355 392 418 310 c 128,-1,9
 481 228 481 228 590 228 c 0,0,1
585 -404 m 0,10,11
 376 -404 376 -404 241.5 -312.5 c 128,-1,12
 107 -221 107 -221 89 -76 c 1,13,-1
 375 -76 l 1,14,15
 392 -132 392 -132 451.5 -166.5 c 128,-1,16
 511 -201 511 -201 593 -201 c 0,17,18
 704 -201 704 -201 766 -144.5 c 128,-1,19
 828 -88 828 -88 828 7 c 2,20,-1
 828 195 l 1,21,-1
 822 195 l 1,22,23
 784 108 784 108 695 55.5 c 128,-1,24
 606 3 606 3 491 3 c 0,25,26
 293 3 293 3 174.5 147 c 128,-1,27
 56 291 56 291 56 540 c 0,28,29
 56 795 56 795 174 942 c 128,-1,30
 292 1089 292 1089 496 1089 c 0,31,32
 610 1089 610 1089 697 1034 c 128,-1,33
 784 979 784 979 827 885 c 1,34,-1
 832 885 l 1,35,-1
 832 1072 l 1,36,-1
 1120 1072 l 1,37,-1
 1120 15 l 2,38,39
 1120 -176 1120 -176 973.5 -290 c 128,-1,40
 827 -404 827 -404 585 -404 c 0,10,11
EndSplineSet
Substitution2: "'smcp' Lowercase to Small Capitals lookup 6 subtable" G.sc
EndChar

StartChar: h
Encoding: 104 104 75
Width: 1197
GlyphClass: 2
Flags: W
LayerCount: 2
Fore
SplineSet
102 0 m 1,0,-1
 102 1443 l 1,1,-1
 389 1443 l 1,2,-1
 389 881 l 1,3,-1
 395 881 l 1,4,5
 438 983 438 983 524.5 1037.5 c 128,-1,6
 611 1092 611 1092 732 1092 c 0,7,8
 909 1092 909 1092 1007.5 984.5 c 128,-1,9
 1106 877 1106 877 1106 690 c 2,10,-1
 1106 0 l 1,11,-1
 814 0 l 1,12,-1
 814 628 l 2,13,14
 814 733 814 733 762.5 791.5 c 128,-1,15
 711 850 711 850 613 850 c 0,16,17
 511 850 511 850 452.5 784.5 c 128,-1,18
 394 719 394 719 394 612 c 2,19,-1
 394 0 l 1,20,-1
 102 0 l 1,0,-1
EndSplineSet
Substitution2: "'smcp' Lowercase to Small Capitals lookup 6 subtable" H.sc
EndChar

StartChar: i
Encoding: 105 105 76
Width: 491
GlyphClass: 2
Flags: W
LayerCount: 2
Fore
SplineSet
100 0 m 1,0,-1
 100 1072 l 1,1,-1
 392 1072 l 1,2,-1
 392 0 l 1,3,-1
 100 0 l 1,0,-1
246 1190 m 128,-1,5
 180 1190 180 1190 135 1234 c 128,-1,6
 90 1278 90 1278 90 1341 c 0,7,8
 90 1405 90 1405 135 1448.5 c 128,-1,9
 180 1492 180 1492 246 1492 c 128,-1,10
 312 1492 312 1492 357 1448.5 c 128,-1,11
 402 1405 402 1405 402 1341 c 0,12,13
 402 1278 402 1278 357 1234 c 128,-1,4
 312 1190 312 1190 246 1190 c 128,-1,5
EndSplineSet
Substitution2: "'smcp' Lowercase to Small Capitals lookup 6 subtable" I.sc
Substitution2: "'locl' Localized Forms in Latin lookup 1 subtable" idotaccent
EndChar

StartChar: j
Encoding: 106 106 77
Width: 491
GlyphClass: 2
Flags: W
LayerCount: 2
Fore
SplineSet
392 1072 m 1,0,-1
 392 -50 l 2,1,2
 392 -213 392 -213 294 -297 c 128,-1,3
 196 -381 196 -381 8 -381 c 0,4,5
 -46 -381 -46 -381 -72 -377 c 1,6,-1
 -72 -162 l 1,7,8
 -58 -164 -58 -164 -35 -164 c 0,9,10
 38 -164 38 -164 69 -135.5 c 128,-1,11
 100 -107 100 -107 100 -42 c 2,12,-1
 100 1072 l 1,13,-1
 392 1072 l 1,0,-1
246 1190 m 128,-1,15
 180 1190 180 1190 135 1234 c 128,-1,16
 90 1278 90 1278 90 1341 c 0,17,18
 90 1405 90 1405 135 1448.5 c 128,-1,19
 180 1492 180 1492 246 1492 c 128,-1,20
 312 1492 312 1492 357 1448.5 c 128,-1,21
 402 1405 402 1405 402 1341 c 0,22,23
 402 1278 402 1278 357 1234 c 128,-1,14
 312 1190 312 1190 246 1190 c 128,-1,15
EndSplineSet
Substitution2: "'smcp' Lowercase to Small Capitals lookup 6 subtable" J.sc
EndChar

StartChar: k
Encoding: 107 107 78
Width: 1102
GlyphClass: 2
Flags: W
LayerCount: 2
Fore
SplineSet
398 642 m 1,0,-1
 762 1072 l 1,1,-1
 1093 1072 l 1,2,-1
 684 612 l 1,3,-1
 1113 0 l 1,4,-1
 777 0 l 1,5,-1
 470 436 l 1,6,-1
 394 354 l 1,7,-1
 394 0 l 1,8,-1
 102 0 l 1,9,-1
 102 1443 l 1,10,-1
 394 1443 l 1,11,-1
 394 642 l 1,12,-1
 398 642 l 1,0,-1
EndSplineSet
Substitution2: "'smcp' Lowercase to Small Capitals lookup 6 subtable" K.sc
EndChar

StartChar: l
Encoding: 108 108 79
Width: 496
GlyphClass: 2
Flags: W
LayerCount: 2
Fore
SplineSet
102 0 m 1,0,-1
 102 1443 l 1,1,-1
 394 1443 l 1,2,-1
 394 0 l 1,3,-1
 102 0 l 1,0,-1
EndSplineSet
Substitution2: "'cv06' Character Variants 06 lookup 26 subtable" l.1
Substitution2: "'ss06' Style Set 6 lookup 19 subtable" l.1
Substitution2: "'smcp' Lowercase to Small Capitals lookup 6 subtable" L.sc
EndChar

StartChar: m
Encoding: 109 109 80
Width: 1768
GlyphClass: 2
Flags: W
LayerCount: 2
Fore
SplineSet
95 0 m 1,0,-1
 95 1072 l 1,1,-1
 377 1072 l 1,2,-1
 377 878 l 1,3,-1
 383 878 l 1,4,5
 417 976 417 976 499 1034 c 128,-1,6
 581 1092 581 1092 689 1092 c 0,7,8
 805 1092 805 1092 883 1034.5 c 128,-1,9
 961 977 961 977 988 872 c 1,10,-1
 994 872 l 1,11,12
 1030 973 1030 973 1119.5 1032.5 c 128,-1,13
 1209 1092 1209 1092 1327 1092 c 0,14,15
 1485 1092 1485 1092 1581.5 993 c 128,-1,16
 1678 894 1678 894 1678 732 c 2,17,-1
 1678 0 l 1,18,-1
 1386 0 l 1,19,-1
 1386 659 l 2,20,21
 1386 752 1386 752 1341 801.5 c 128,-1,22
 1296 851 1296 851 1211 851 c 0,23,24
 1128 851 1128 851 1077.5 796 c 128,-1,25
 1027 741 1027 741 1027 651 c 2,26,-1
 1027 0 l 1,27,-1
 746 0 l 1,28,-1
 746 668 l 2,29,30
 746 754 746 754 700 802.5 c 128,-1,31
 654 851 654 851 573 851 c 0,32,33
 490 851 490 851 438.5 794 c 128,-1,34
 387 737 387 737 387 647 c 2,35,-1
 387 0 l 1,36,-1
 95 0 l 1,0,-1
EndSplineSet
Substitution2: "'smcp' Lowercase to Small Capitals lookup 6 subtable" M.sc
EndChar

StartChar: n
Encoding: 110 110 81
Width: 1180
GlyphClass: 2
Flags: W
LayerCount: 2
Fore
SplineSet
95 0 m 1,0,-1
 95 1072 l 1,1,-1
 377 1072 l 1,2,-1
 377 881 l 1,3,-1
 383 881 l 1,4,5
 427 983 427 983 511.5 1037.5 c 128,-1,6
 596 1092 596 1092 718 1092 c 0,7,8
 896 1092 896 1092 993 986 c 128,-1,9
 1090 880 1090 880 1090 691 c 2,10,-1
 1090 0 l 1,11,-1
 798 0 l 1,12,-1
 798 630 l 2,13,14
 798 736 798 736 748 793 c 128,-1,15
 698 850 698 850 601 850 c 128,-1,16
 504 850 504 850 445.5 785 c 128,-1,17
 387 720 387 720 387 615 c 2,18,-1
 387 0 l 1,19,-1
 95 0 l 1,0,-1
EndSplineSet
Substitution2: "'smcp' Lowercase to Small Capitals lookup 6 subtable" N.sc
EndChar

StartChar: o
Encoding: 111 111 82
Width: 1173
GlyphClass: 2
Flags: W
LayerCount: 2
Fore
SplineSet
587 -23 m 128,-1,1
 342 -23 342 -23 199 126 c 128,-1,2
 56 275 56 275 56 537 c 0,3,4
 56 796 56 796 200.5 945.5 c 128,-1,5
 345 1095 345 1095 587 1095 c 0,6,7
 830 1095 830 1095 974 945.5 c 128,-1,8
 1118 796 1118 796 1118 537 c 0,9,10
 1118 274 1118 274 975 125.5 c 128,-1,0
 832 -23 832 -23 587 -23 c 128,-1,1
587 200 m 0,11,12
 695 200 695 200 758 288 c 128,-1,13
 821 376 821 376 821 536 c 0,14,15
 821 694 821 694 758 783 c 128,-1,16
 695 872 695 872 587 872 c 128,-1,17
 479 872 479 872 415.5 783 c 128,-1,18
 352 694 352 694 352 536 c 0,19,20
 352 376 352 376 415 288 c 128,-1,21
 478 200 478 200 587 200 c 0,11,12
EndSplineSet
Substitution2: "'smcp' Lowercase to Small Capitals lookup 6 subtable" O.sc
EndChar

StartChar: p
Encoding: 112 112 83
Width: 1215
GlyphClass: 2
Flags: W
LayerCount: 2
Fore
SplineSet
721 1089 m 0,0,1
 925 1089 925 1089 1042.5 942 c 128,-1,2
 1160 795 1160 795 1160 536 c 0,3,4
 1160 278 1160 278 1044 130.5 c 128,-1,5
 928 -17 928 -17 726 -17 c 0,6,7
 611 -17 611 -17 523.5 35.5 c 128,-1,8
 436 88 436 88 393 180 c 1,9,-1
 387 180 l 1,10,-1
 387 -350 l 1,11,-1
 95 -350 l 1,12,-1
 95 1072 l 1,13,-1
 383 1072 l 1,14,-1
 383 885 l 1,15,-1
 389 885 l 1,16,17
 433 981 433 981 519.5 1035 c 128,-1,18
 606 1089 606 1089 721 1089 c 0,0,1
623 218 m 0,19,20
 732 218 732 218 796.5 304 c 128,-1,21
 861 390 861 390 861 536 c 128,-1,22
 861 682 861 682 796.5 768.5 c 128,-1,23
 732 855 732 855 623 855 c 0,24,25
 516 855 516 855 451 767.5 c 128,-1,26
 386 680 386 680 386 536 c 0,27,28
 386 391 386 391 450.5 304.5 c 128,-1,29
 515 218 515 218 623 218 c 0,19,20
EndSplineSet
Substitution2: "'smcp' Lowercase to Small Capitals lookup 6 subtable" P.sc
EndChar

StartChar: q
Encoding: 113 113 84
Width: 1215
GlyphClass: 2
Flags: W
LayerCount: 2
Fore
SplineSet
496 1089 m 0,0,1
 611 1089 611 1089 697.5 1034 c 128,-1,2
 784 979 784 979 826 885 c 1,3,-1
 832 885 l 1,4,-1
 832 1072 l 1,5,-1
 1120 1072 l 1,6,-1
 1120 -350 l 1,7,-1
 828 -350 l 1,8,-1
 828 183 l 1,9,-1
 822 183 l 1,10,11
 784 93 784 93 695 38 c 128,-1,12
 606 -17 606 -17 491 -17 c 0,13,14
 290 -17 290 -17 173 132 c 128,-1,15
 56 281 56 281 56 538 c 0,16,17
 56 793 56 793 174.5 941 c 128,-1,18
 293 1089 293 1089 496 1089 c 0,0,1
590 218 m 128,-1,20
 699 218 699 218 764 304 c 128,-1,21
 829 390 829 390 829 536 c 128,-1,22
 829 682 829 682 763.5 768.5 c 128,-1,23
 698 855 698 855 590 855 c 0,24,25
 481 855 481 855 418 769.5 c 128,-1,26
 355 684 355 684 355 536 c 128,-1,27
 355 388 355 388 418 303 c 128,-1,19
 481 218 481 218 590 218 c 128,-1,20
EndSplineSet
Substitution2: "'smcp' Lowercase to Small Capitals lookup 6 subtable" Q.sc
EndChar

StartChar: r
Encoding: 114 114 85
Width: 745
GlyphClass: 2
Flags: W
LayerCount: 2
Fore
SplineSet
95 0 m 1,0,-1
 95 1072 l 1,1,-1
 377 1072 l 1,2,-1
 377 879 l 1,3,-1
 383 879 l 1,4,5
 411 981 411 981 477 1035 c 128,-1,6
 543 1089 543 1089 638 1089 c 0,7,8
 684 1089 684 1089 721 1078 c 1,9,-1
 721 821 l 1,10,11
 680 838 680 838 615 838 c 0,12,13
 507 838 507 838 447 775 c 128,-1,14
 387 712 387 712 387 599 c 2,15,-1
 387 0 l 1,16,-1
 95 0 l 1,0,-1
EndSplineSet
Substitution2: "'smcp' Lowercase to Small Capitals lookup 6 subtable" R.sc
EndChar

StartChar: s
Encoding: 115 115 86
Width: 1055
GlyphClass: 2
Flags: W
LayerCount: 2
Fore
SplineSet
77 757 m 0,0,1
 77 910 77 910 200 1002.5 c 128,-1,2
 323 1095 323 1095 529 1095 c 0,3,4
 730 1095 730 1095 852 1001 c 128,-1,5
 974 907 974 907 977 751 c 1,6,-1
 708 751 l 1,7,8
 703 816 703 816 654.5 853 c 128,-1,9
 606 890 606 890 525 890 c 0,10,11
 449 890 449 890 403.5 858.5 c 128,-1,12
 358 827 358 827 358 775 c 0,13,14
 358 697 358 697 498 664 c 2,15,-1
 703 620 l 2,16,17
 864 584 864 584 934.5 515.5 c 128,-1,18
 1005 447 1005 447 1005 327 c 0,19,20
 1005 169 1005 169 873 73 c 128,-1,21
 741 -23 741 -23 528 -23 c 0,22,23
 316 -23 316 -23 189 71 c 128,-1,24
 62 165 62 165 50 324 c 1,25,-1
 335 324 l 1,26,27
 346 256 346 256 397.5 219 c 128,-1,28
 449 182 449 182 536 182 c 0,29,30
 619 182 619 182 666.5 212.5 c 128,-1,31
 714 243 714 243 714 296 c 0,32,33
 714 337 714 337 684 361.5 c 128,-1,34
 654 386 654 386 582 403 c 2,35,-1
 384 447 l 2,36,37
 77 517 77 517 77 757 c 0,0,1
EndSplineSet
Substitution2: "'smcp' Lowercase to Small Capitals lookup 6 subtable" S.sc
EndChar

StartChar: t
Encoding: 116 116 87
Width: 728
GlyphClass: 2
Flags: W
LayerCount: 2
Fore
SplineSet
173 1319 m 1,0,-1
 465 1319 l 1,1,-1
 465 1072 l 1,2,-1
 663 1072 l 1,3,-1
 663 852 l 1,4,-1
 465 852 l 1,5,-1
 465 339 l 2,6,7
 465 218 465 218 591 218 c 0,8,9
 632 218 632 218 662 223 c 1,10,-1
 662 8 l 1,11,12
 611 -4 611 -4 523 -4 c 0,13,14
 334 -4 334 -4 253.5 64 c 128,-1,15
 173 132 173 132 173 289 c 2,16,-1
 173 852 l 1,17,-1
 22 852 l 1,18,-1
 22 1072 l 1,19,-1
 173 1072 l 1,20,-1
 173 1319 l 1,0,-1
EndSplineSet
Substitution2: "'smcp' Lowercase to Small Capitals lookup 6 subtable" T.sc
EndChar

StartChar: u
Encoding: 117 117 88
Width: 1180
GlyphClass: 2
Flags: W
LayerCount: 2
Fore
SplineSet
1085 1072 m 1,0,-1
 1085 0 l 1,1,-1
 803 0 l 1,2,-1
 803 193 l 1,3,-1
 797 193 l 1,4,5
 713 -20 713 -20 476 -20 c 0,6,7
 300 -20 300 -20 195 87.5 c 128,-1,8
 90 195 90 195 90 381 c 2,9,-1
 90 1072 l 1,10,-1
 382 1072 l 1,11,-1
 382 442 l 2,12,13
 382 335 382 335 433.5 279 c 128,-1,14
 485 223 485 223 582 223 c 128,-1,15
 679 223 679 223 736 287 c 128,-1,16
 793 351 793 351 793 458 c 2,17,-1
 793 1072 l 1,18,-1
 1085 1072 l 1,0,-1
EndSplineSet
Substitution2: "'smcp' Lowercase to Small Capitals lookup 6 subtable" U.sc
EndChar

StartChar: v
Encoding: 118 118 89
Width: 1081
GlyphClass: 2
Flags: W
LayerCount: 2
Fore
SplineSet
1075 1072 m 1,0,-1
 707 0 l 1,1,-1
 377 0 l 1,2,-1
 6 1072 l 1,3,-1
 319 1072 l 1,4,-1
 542 258 l 1,5,-1
 548 258 l 1,6,-1
 770 1072 l 1,7,-1
 1075 1072 l 1,0,-1
EndSplineSet
Substitution2: "'smcp' Lowercase to Small Capitals lookup 6 subtable" V.sc
EndChar

StartChar: w
Encoding: 119 119 90
Width: 1618
GlyphClass: 2
Flags: W
LayerCount: 2
Fore
SplineSet
1599 1072 m 1,0,-1
 1315 0 l 1,1,-1
 1004 0 l 1,2,-1
 810 758 l 1,3,-1
 804 758 l 1,4,-1
 611 0 l 1,5,-1
 304 0 l 1,6,-1
 19 1072 l 1,7,-1
 313 1072 l 1,8,-1
 475 277 l 1,9,-1
 481 277 l 1,10,-1
 671 1072 l 1,11,-1
 951 1072 l 1,12,-1
 1142 277 l 1,13,-1
 1148 277 l 1,14,-1
 1311 1072 l 1,15,-1
 1599 1072 l 1,0,-1
EndSplineSet
Substitution2: "'smcp' Lowercase to Small Capitals lookup 6 subtable" W.sc
EndChar

StartChar: x
Encoding: 120 120 91
Width: 1081
GlyphClass: 2
Flags: W
LayerCount: 2
Fore
SplineSet
536 372 m 1,0,-1
 530 372 l 1,1,-1
 329 0 l 1,2,-1
 22 0 l 1,3,-1
 358 534 l 1,4,-1
 24 1072 l 1,5,-1
 353 1072 l 1,6,-1
 546 710 l 1,7,-1
 552 710 l 1,8,-1
 742 1072 l 1,9,-1
 1060 1072 l 1,10,-1
 725 542 l 1,11,-1
 1057 0 l 1,12,-1
 740 0 l 1,13,-1
 536 372 l 1,0,-1
EndSplineSet
Substitution2: "'smcp' Lowercase to Small Capitals lookup 6 subtable" X.sc
EndChar

StartChar: y
Encoding: 121 121 92
Width: 1112
GlyphClass: 2
Flags: W
LayerCount: 2
Fore
SplineSet
232 -397 m 0,0,1
 136 -397 136 -397 122 -394 c 1,2,-1
 122 -169 l 1,3,4
 131 -171 131 -171 195 -171 c 0,5,6
 276 -171 276 -171 318 -143.5 c 128,-1,7
 360 -116 360 -116 375 -52 c 0,8,9
 375 -51 375 -51 380 -27 c 128,-1,10
 385 -3 385 -3 384 -1 c 2,11,-1
 11 1072 l 1,12,-1
 332 1072 l 1,13,-1
 560 234 l 1,14,-1
 565 234 l 1,15,-1
 793 1072 l 1,16,-1
 1101 1072 l 1,17,-1
 732 -24 l 2,18,19
 663 -230 663 -230 550.5 -313.5 c 128,-1,20
 438 -397 438 -397 232 -397 c 0,0,1
EndSplineSet
Substitution2: "'smcp' Lowercase to Small Capitals lookup 6 subtable" Y.sc
EndChar

StartChar: z
Encoding: 122 122 93
Width: 1035
GlyphClass: 2
Flags: W
LayerCount: 2
Fore
SplineSet
75 0 m 1,0,-1
 75 166 l 1,1,-1
 609 843 l 1,2,-1
 609 849 l 1,3,-1
 83 849 l 1,4,-1
 83 1072 l 1,5,-1
 948 1072 l 1,6,-1
 948 887 l 1,7,-1
 446 229 l 1,8,-1
 446 224 l 1,9,-1
 960 224 l 1,10,-1
 960 0 l 1,11,-1
 75 0 l 1,0,-1
EndSplineSet
Substitution2: "'smcp' Lowercase to Small Capitals lookup 6 subtable" Z.sc
EndChar

StartChar: braceleft
Encoding: 123 123 94
Width: 782
GlyphClass: 2
Flags: W
LayerCount: 2
Fore
SplineSet
277 551 m 1,0,1
 405 537 405 537 472 473.5 c 128,-1,2
 539 410 539 410 539 302 c 2,3,-1
 539 97 l 2,4,5
 539 -9 539 -9 578.5 -53.5 c 128,-1,6
 618 -98 618 -98 713 -98 c 2,7,-1
 757 -98 l 1,8,-1
 757 -310 l 1,9,-1
 683 -310 l 2,10,11
 461 -310 461 -310 361 -220 c 128,-1,12
 261 -130 261 -130 261 68 c 2,13,-1
 261 224 l 2,14,15
 261 334 261 334 207 380.5 c 128,-1,16
 153 427 153 427 25 428 c 1,17,-1
 25 706 l 1,18,19
 153 707 153 707 207 753.5 c 128,-1,20
 261 800 261 800 261 910 c 2,21,-1
 261 1070 l 2,22,23
 261 1266 261 1266 361 1354.5 c 128,-1,24
 461 1443 461 1443 683 1443 c 2,25,-1
 757 1443 l 1,26,-1
 757 1231 l 1,27,-1
 713 1231 l 2,28,29
 618 1231 618 1231 578.5 1186.5 c 128,-1,30
 539 1142 539 1142 539 1036 c 2,31,-1
 539 832 l 2,32,33
 539 724 539 724 472 660.5 c 128,-1,34
 405 597 405 597 277 583 c 1,35,-1
 277 551 l 1,0,1
EndSplineSet
Substitution2: "'case' Case-Sensitive Forms lookup 7 subtable" braceleft.uc
Substitution2: "'smcp' Lowercase to Small Capitals lookup 6 subtable" braceleft.sc
Substitution2: "'c2sc' Capitals to Small Capitals lookup 5 subtable" braceleft.sc
EndChar

StartChar: bar
Encoding: 124 124 95
Width: 782
GlyphClass: 2
Flags: W
LayerCount: 2
Fore
SplineSet
528 -310 m 1,0,-1
 255 -310 l 1,1,-1
 255 1443 l 1,2,-1
 528 1443 l 1,3,-1
 528 -310 l 1,0,-1
EndSplineSet
Substitution2: "'case' Case-Sensitive Forms lookup 7 subtable" bar.uc
Substitution2: "'smcp' Lowercase to Small Capitals lookup 6 subtable" bar.sc
Substitution2: "'c2sc' Capitals to Small Capitals lookup 5 subtable" bar.sc
EndChar

StartChar: braceright
Encoding: 125 125 96
Width: 782
GlyphClass: 2
Flags: W
LayerCount: 2
Fore
SplineSet
505 551 m 1,0,-1
 505 583 l 1,1,2
 377 597 377 597 310 660.5 c 128,-1,3
 243 724 243 724 243 832 c 2,4,-1
 243 1036 l 2,5,6
 243 1142 243 1142 203.5 1186.5 c 128,-1,7
 164 1231 164 1231 69 1231 c 2,8,-1
 25 1231 l 1,9,-1
 25 1443 l 1,10,-1
 99 1443 l 2,11,12
 322 1443 322 1443 422 1354.5 c 128,-1,13
 522 1266 522 1266 522 1070 c 2,14,-1
 522 910 l 2,15,16
 522 800 522 800 575.5 753.5 c 128,-1,17
 629 707 629 707 757 706 c 1,18,-1
 757 428 l 1,19,20
 628 427 628 427 575 381 c 128,-1,21
 522 335 522 335 522 225 c 2,22,-1
 522 72 l 2,23,24
 522 -128 522 -128 421.5 -219 c 128,-1,25
 321 -310 321 -310 99 -310 c 2,26,-1
 25 -310 l 1,27,-1
 25 -98 l 1,28,-1
 69 -98 l 2,29,30
 163 -98 163 -98 203 -53.5 c 128,-1,31
 243 -9 243 -9 243 96 c 2,32,-1
 243 301 l 2,33,34
 243 410 243 410 310.5 473.5 c 128,-1,35
 378 537 378 537 505 551 c 1,0,-1
EndSplineSet
Substitution2: "'case' Case-Sensitive Forms lookup 7 subtable" braceright.uc
Substitution2: "'smcp' Lowercase to Small Capitals lookup 6 subtable" braceright.sc
Substitution2: "'c2sc' Capitals to Small Capitals lookup 5 subtable" braceright.sc
EndChar

StartChar: asciitilde
Encoding: 126 126 97
Width: 1326
GlyphClass: 2
Flags: W
LayerCount: 2
Fore
SplineSet
616 624 m 0,0,1
 571 669 571 669 540 687.5 c 128,-1,2
 509 706 509 706 476 706 c 0,3,4
 366 706 366 706 360 528 c 1,5,-1
 132 528 l 1,6,7
 123 723 123 723 209.5 837.5 c 128,-1,8
 296 952 296 952 453 952 c 0,9,10
 521 952 521 952 583 921 c 128,-1,11
 645 890 645 890 713 822 c 0,12,13
 757 777 757 777 787 759 c 128,-1,14
 817 741 817 741 850 741 c 0,15,16
 961 741 961 741 967 919 c 1,17,-1
 1194 919 l 1,18,19
 1203 724 1203 724 1117 609.5 c 128,-1,20
 1031 495 1031 495 874 495 c 0,21,22
 806 495 806 495 745 525.5 c 128,-1,23
 684 556 684 556 616 624 c 0,0,1
EndSplineSet
Substitution2: "'smcp' Lowercase to Small Capitals lookup 6 subtable" asciitilde.sc
Substitution2: "'c2sc' Capitals to Small Capitals lookup 5 subtable" asciitilde.sc
EndChar

StartChar: exclamdown
Encoding: 161 161 99
Width: 648
GlyphClass: 2
Flags: W
LayerCount: 2
Fore
SplineSet
174 -324 m 1,0,-1
 198 645 l 1,1,-1
 450 645 l 1,2,-1
 474 -324 l 1,3,-1
 174 -324 l 1,0,-1
324 833 m 128,-1,5
 256 833 256 833 208.5 878.5 c 128,-1,6
 161 924 161 924 161 989 c 0,7,8
 161 1056 161 1056 208.5 1101 c 128,-1,9
 256 1146 256 1146 324 1146 c 128,-1,10
 392 1146 392 1146 439.5 1101 c 128,-1,11
 487 1056 487 1056 487 989 c 0,12,13
 487 924 487 924 439.5 878.5 c 128,-1,4
 392 833 392 833 324 833 c 128,-1,5
EndSplineSet
Substitution2: "'smcp' Lowercase to Small Capitals lookup 6 subtable" exclamdown.sc
Substitution2: "'c2sc' Capitals to Small Capitals lookup 5 subtable" exclamdown.sc
EndChar

StartChar: cent
Encoding: 162 162 100
Width: 1326
GlyphClass: 2
Flags: W
LayerCount: 2
Fore
SplineSet
1212 542 m 1,0,1
 1198 380 1198 380 1084.5 270.5 c 128,-1,2
 971 161 971 161 796 135 c 1,3,-1
 796 -47 l 1,4,-1
 554 -47 l 1,5,-1
 554 140 l 1,6,7
 352 178 352 178 233.5 328 c 128,-1,8
 115 478 115 478 115 703 c 0,9,10
 115 925 115 925 234 1074.5 c 128,-1,11
 353 1224 353 1224 554 1261 c 1,12,-1
 554 1448 l 1,13,-1
 796 1448 l 1,14,-1
 796 1265 l 1,15,16
 970 1239 970 1239 1085.5 1125 c 128,-1,17
 1201 1011 1201 1011 1212 852 c 1,18,-1
 940 852 l 1,19,20
 923 938 923 938 854.5 990.5 c 128,-1,21
 786 1043 786 1043 689 1043 c 0,22,23
 565 1043 565 1043 486.5 950 c 128,-1,24
 408 857 408 857 408 703 c 0,25,26
 408 547 408 547 486.5 452.5 c 128,-1,27
 565 358 565 358 688 358 c 0,28,29
 791 358 791 358 856.5 404.5 c 128,-1,30
 922 451 922 451 940 542 c 1,31,-1
 1212 542 l 1,0,1
EndSplineSet
Substitution2: "'smcp' Lowercase to Small Capitals lookup 6 subtable" cent.sc
Substitution2: "'c2sc' Capitals to Small Capitals lookup 5 subtable" cent.sc
EndChar

StartChar: sterling
Encoding: 163 163 101
Width: 1326
GlyphClass: 2
Flags: W
LayerCount: 2
Fore
SplineSet
516 248 m 1,0,-1
 1230 248 l 1,1,-1
 1230 0 l 1,2,-1
 106 0 l 1,3,-1
 106 232 l 1,4,5
 240 252 240 252 324.5 343 c 128,-1,6
 409 434 409 434 409 558 c 0,7,8
 409 590 409 590 402 634 c 1,9,-1
 110 634 l 1,10,-1
 110 841 l 1,11,-1
 334 841 l 1,12,13
 275 989 275 989 275 1085 c 0,14,15
 275 1272 275 1272 421.5 1376 c 128,-1,16
 568 1480 568 1480 833 1480 c 0,17,18
 923 1480 923 1480 1017 1465.5 c 128,-1,19
 1111 1451 1111 1451 1163 1430 c 1,20,-1
 1163 1194 l 1,21,22
 1114 1216 1114 1216 1031.5 1230.5 c 128,-1,23
 949 1245 949 1245 871 1245 c 0,24,25
 732 1245 732 1245 655 1191.5 c 128,-1,26
 578 1138 578 1138 578 1041 c 0,27,28
 578 965 578 965 623 841 c 1,29,-1
 1037 841 l 1,30,-1
 1037 634 l 1,31,-1
 688 634 l 1,32,33
 692 596 692 596 692 577 c 0,34,35
 692 475 692 475 642 389 c 128,-1,36
 592 303 592 303 516 256 c 1,37,-1
 516 248 l 1,0,-1
EndSplineSet
Substitution2: "'smcp' Lowercase to Small Capitals lookup 6 subtable" sterling.sc
Substitution2: "'c2sc' Capitals to Small Capitals lookup 5 subtable" sterling.sc
EndChar

StartChar: currency
Encoding: 164 164 102
Width: 1326
GlyphClass: 2
Flags: W
LayerCount: 2
Fore
SplineSet
430 649 m 128,-1,1
 430 553 430 553 499 483.5 c 128,-1,2
 568 414 568 414 664 414 c 128,-1,3
 760 414 760 414 829 483.5 c 128,-1,4
 898 553 898 553 898 649 c 128,-1,5
 898 745 898 745 829 815 c 128,-1,6
 760 885 760 885 664 885 c 128,-1,7
 568 885 568 885 499 815 c 128,-1,0
 430 745 430 745 430 649 c 128,-1,1
1203 1023 m 1,8,-1
 1054 874 l 1,9,10
 1114 770 1114 770 1114 649 c 128,-1,11
 1114 528 1114 528 1054 424 c 1,12,-1
 1203 275 l 1,13,-1
 1037 109 l 1,14,-1
 887 259 l 1,15,16
 784 199 784 199 664 199 c 128,-1,17
 544 199 544 199 440 259 c 1,18,-1
 290 109 l 1,19,-1
 124 275 l 1,20,-1
 274 425 l 1,21,22
 214 529 214 529 214 649 c 128,-1,23
 214 769 214 769 274 873 c 1,24,-1
 124 1023 l 1,25,-1
 290 1189 l 1,26,-1
 439 1040 l 1,27,28
 545 1100 545 1100 664 1100 c 0,29,30
 784 1100 784 1100 888 1040 c 1,31,-1
 1037 1189 l 1,32,-1
 1203 1023 l 1,8,-1
EndSplineSet
Substitution2: "'smcp' Lowercase to Small Capitals lookup 6 subtable" currency.sc
Substitution2: "'c2sc' Capitals to Small Capitals lookup 5 subtable" currency.sc
EndChar

StartChar: yen
Encoding: 165 165 103
Width: 1326
GlyphClass: 2
Flags: W
LayerCount: 2
Fore
SplineSet
1086 212 m 1,0,-1
 815 212 l 1,1,-1
 815 0 l 1,2,-1
 513 0 l 1,3,-1
 513 212 l 1,4,-1
 242 212 l 1,5,-1
 242 378 l 1,6,-1
 513 378 l 1,7,-1
 513 514 l 1,8,-1
 242 514 l 1,9,-1
 242 680 l 1,10,-1
 437 680 l 1,11,-1
 10 1443 l 1,12,-1
 337 1443 l 1,13,-1
 660 830 l 1,14,-1
 669 830 l 1,15,-1
 989 1443 l 1,16,-1
 1316 1443 l 1,17,-1
 891 680 l 1,18,-1
 1086 680 l 1,19,-1
 1086 514 l 1,20,-1
 815 514 l 1,21,-1
 815 378 l 1,22,-1
 1086 378 l 1,23,-1
 1086 212 l 1,0,-1
EndSplineSet
Substitution2: "'smcp' Lowercase to Small Capitals lookup 6 subtable" yen.sc
Substitution2: "'c2sc' Capitals to Small Capitals lookup 5 subtable" yen.sc
EndChar

StartChar: brokenbar
Encoding: 166 166 104
Width: 782
GlyphClass: 2
Flags: W
LayerCount: 2
Fore
SplineSet
528 743 m 1,0,-1
 255 743 l 1,1,-1
 255 1443 l 1,2,-1
 528 1443 l 1,3,-1
 528 743 l 1,0,-1
528 -310 m 1,4,-1
 255 -310 l 1,5,-1
 255 390 l 1,6,-1
 528 390 l 1,7,-1
 528 -310 l 1,4,-1
EndSplineSet
Substitution2: "'case' Case-Sensitive Forms lookup 7 subtable" brokenbar.uc
Substitution2: "'smcp' Lowercase to Small Capitals lookup 6 subtable" brokenbar.sc
Substitution2: "'c2sc' Capitals to Small Capitals lookup 5 subtable" brokenbar.sc
EndChar

StartChar: section
Encoding: 167 167 105
Width: 994
GlyphClass: 2
Flags: W
LayerCount: 2
Fore
SplineSet
445 449 m 2,0,-1
 554 413 l 1,1,2
 613 421 613 421 653 462 c 128,-1,3
 693 503 693 503 693 556 c 0,4,5
 693 605 693 605 656.5 641.5 c 128,-1,6
 620 678 620 678 552 697 c 2,7,-1
 443 734 l 1,8,9
 385 726 385 726 344 684 c 128,-1,10
 303 642 303 642 303 591 c 0,11,12
 303 543 303 543 340.5 505.5 c 128,-1,13
 378 468 378 468 445 449 c 2,0,-1
496 -284 m 0,14,15
 309 -284 309 -284 188 -192 c 128,-1,16
 67 -100 67 -100 60 48 c 1,17,-1
 313 48 l 1,18,19
 320 -9 320 -9 372.5 -44 c 128,-1,20
 425 -79 425 -79 500 -79 c 0,21,22
 578 -79 578 -79 626 -43 c 128,-1,23
 674 -7 674 -7 674 51 c 0,24,25
 674 94 674 94 639 124 c 128,-1,26
 604 154 604 154 525 178 c 2,27,-1
 350 236 l 2,28,29
 192 287 192 287 120.5 358 c 128,-1,30
 49 429 49 429 49 536 c 0,31,32
 49 630 49 630 106.5 701 c 128,-1,33
 164 772 164 772 264 803 c 1,34,-1
 264 821 l 1,35,36
 157 870 157 870 108 935.5 c 128,-1,37
 59 1001 59 1001 59 1095 c 0,38,39
 59 1246 59 1246 179 1338 c 128,-1,40
 299 1430 299 1430 497 1430 c 0,41,42
 681 1430 681 1430 798.5 1341 c 128,-1,43
 916 1252 916 1252 927 1104 c 1,44,-1
 676 1104 l 1,45,46
 669 1159 669 1159 619 1192.5 c 128,-1,47
 569 1226 569 1226 495 1226 c 0,48,49
 418 1226 418 1226 371 1190.5 c 128,-1,50
 324 1155 324 1155 324 1097 c 0,51,52
 324 1054 324 1054 358 1024.5 c 128,-1,53
 392 995 392 995 471 969 c 2,54,-1
 642 911 l 2,55,56
 802 858 802 858 874 788 c 128,-1,57
 946 718 946 718 946 615 c 0,58,59
 946 517 946 517 882.5 441 c 128,-1,60
 819 365 819 365 715 337 c 1,61,-1
 715 319 l 1,62,63
 831 276 831 276 884.5 212.5 c 128,-1,64
 938 149 938 149 938 53 c 0,65,66
 938 -98 938 -98 816 -191 c 128,-1,67
 694 -284 694 -284 496 -284 c 0,14,15
EndSplineSet
EndChar

StartChar: dieresis
Encoding: 168 168 106
Width: 1010
GlyphClass: 2
Flags: W
LayerCount: 2
Fore
SplineSet
301 1279 m 128,-1,1
 244 1279 244 1279 205.5 1317 c 128,-1,2
 167 1355 167 1355 167 1409 c 128,-1,3
 167 1463 167 1463 205.5 1501 c 128,-1,4
 244 1539 244 1539 301 1539 c 128,-1,5
 358 1539 358 1539 396.5 1501 c 128,-1,6
 435 1463 435 1463 435 1409 c 128,-1,7
 435 1355 435 1355 396.5 1317 c 128,-1,0
 358 1279 358 1279 301 1279 c 128,-1,1
709 1279 m 128,-1,9
 652 1279 652 1279 613.5 1317 c 128,-1,10
 575 1355 575 1355 575 1409 c 128,-1,11
 575 1463 575 1463 613.5 1501 c 128,-1,12
 652 1539 652 1539 709 1539 c 128,-1,13
 766 1539 766 1539 804.5 1501 c 128,-1,14
 843 1463 843 1463 843 1409 c 128,-1,15
 843 1355 843 1355 804.5 1317 c 128,-1,8
 766 1279 766 1279 709 1279 c 128,-1,9
EndSplineSet
EndChar

StartChar: copyright
Encoding: 169 169 107
Width: 1697
GlyphClass: 2
Flags: W
LayerCount: 2
Fore
SplineSet
849 -139 m 128,-1,1
 687 -139 687 -139 541 -77 c 128,-1,2
 395 -15 395 -15 289.5 90 c 128,-1,3
 184 195 184 195 122 341.5 c 128,-1,4
 60 488 60 488 60 650 c 0,5,6
 60 813 60 813 122 959.5 c 128,-1,7
 184 1106 184 1106 289.5 1211 c 128,-1,8
 395 1316 395 1316 541 1377.5 c 128,-1,9
 687 1439 687 1439 849 1439 c 0,10,11
 1065 1439 1065 1439 1246 1335 c 128,-1,12
 1427 1231 1427 1231 1532 1049.5 c 128,-1,13
 1637 868 1637 868 1637 650 c 0,14,15
 1637 487 1637 487 1575 341 c 128,-1,16
 1513 195 1513 195 1408 89.5 c 128,-1,17
 1303 -16 1303 -16 1157 -77.5 c 128,-1,0
 1011 -139 1011 -139 849 -139 c 128,-1,1
849 25 m 128,-1,19
 1020 25 1020 25 1163.5 107.5 c 128,-1,20
 1307 190 1307 190 1390 333.5 c 128,-1,21
 1473 477 1473 477 1473 650 c 0,22,23
 1473 780 1473 780 1424 896.5 c 128,-1,24
 1375 1013 1375 1013 1291.5 1096 c 128,-1,25
 1208 1179 1208 1179 1092.5 1227.5 c 128,-1,26
 977 1276 977 1276 849 1276 c 0,27,28
 678 1276 678 1276 534.5 1194 c 128,-1,29
 391 1112 391 1112 307.5 967.5 c 128,-1,30
 224 823 224 823 224 650 c 128,-1,31
 224 477 224 477 307.5 333.5 c 128,-1,32
 391 190 391 190 534.5 107.5 c 128,-1,18
 678 25 678 25 849 25 c 128,-1,19
1216 760 m 1,33,-1
 1028 760 l 1,34,35
 1016 818 1016 818 973.5 853.5 c 128,-1,36
 931 889 931 889 866 889 c 0,37,38
 782 889 782 889 733 826 c 128,-1,39
 684 763 684 763 684 652 c 0,40,41
 684 539 684 539 732.5 475.5 c 128,-1,42
 781 412 781 412 866 412 c 0,43,44
 931 412 931 412 973.5 444 c 128,-1,45
 1016 476 1016 476 1028 534 c 1,46,-1
 1216 534 l 1,47,48
 1202 405 1202 405 1108.5 328.5 c 128,-1,49
 1015 252 1015 252 865 252 c 0,50,51
 688 252 688 252 585 359 c 128,-1,52
 482 466 482 466 482 652 c 0,53,54
 482 835 482 835 585 942 c 128,-1,55
 688 1049 688 1049 863 1049 c 0,56,57
 1012 1049 1012 1049 1106.5 969 c 128,-1,58
 1201 889 1201 889 1216 760 c 1,33,-1
EndSplineSet
EndChar

StartChar: ordfeminine
Encoding: 170 170 108
Width: 798
GlyphClass: 2
Flags: W
LayerCount: 2
Fore
SplineSet
366 858 m 0,0,1
 426 858 426 858 466.5 890.5 c 128,-1,2
 507 923 507 923 507 972 c 2,3,-1
 507 1023 l 1,4,-1
 370 1014 l 2,5,6
 266 1006 266 1006 266 935 c 0,7,8
 266 900 266 900 293 879 c 128,-1,9
 320 858 320 858 366 858 c 0,0,1
284 697 m 0,10,11
 176 697 176 697 106 760 c 128,-1,12
 36 823 36 823 36 920 c 0,13,14
 36 1021 36 1021 112 1078.5 c 128,-1,15
 188 1136 188 1136 334 1145 c 2,16,-1
 507 1155 l 1,17,-1
 507 1198 l 2,18,19
 507 1242 507 1242 477.5 1267 c 128,-1,20
 448 1292 448 1292 397 1292 c 0,21,22
 351 1292 351 1292 319.5 1270 c 128,-1,23
 288 1248 288 1248 283 1212 c 1,24,-1
 73 1212 l 1,25,26
 78 1324 78 1324 169 1391.5 c 128,-1,27
 260 1459 260 1459 408 1459 c 0,28,29
 555 1459 555 1459 644.5 1391 c 128,-1,30
 734 1323 734 1323 734 1211 c 2,31,-1
 734 706 l 1,32,-1
 508 706 l 1,33,-1
 508 813 l 1,34,-1
 504 813 l 1,35,36
 476 759 476 759 416 728 c 128,-1,37
 356 697 356 697 284 697 c 0,10,11
EndSplineSet
EndChar

StartChar: guillemotleft
Encoding: 171 171 109
Width: 1356
GlyphClass: 2
Flags: W
LayerCount: 2
Fore
SplineSet
386 572 m 1,0,-1
 386 562 l 1,1,-1
 732 151 l 1,2,-1
 457 151 l 1,3,-1
 113 562 l 1,4,-1
 113 570 l 1,5,-1
 461 981 l 1,6,-1
 732 981 l 1,7,-1
 386 572 l 1,0,-1
897 572 m 1,8,-1
 897 562 l 1,9,-1
 1243 151 l 1,10,-1
 968 151 l 1,11,-1
 624 562 l 1,12,-1
 624 570 l 1,13,-1
 972 981 l 1,14,-1
 1243 981 l 1,15,-1
 897 572 l 1,8,-1
EndSplineSet
Substitution2: "'smcp' Lowercase to Small Capitals lookup 6 subtable" guillemotleft.sc
Substitution2: "'c2sc' Capitals to Small Capitals lookup 5 subtable" guillemotleft.sc
EndChar

StartChar: logicalnot
Encoding: 172 172 110
Width: 1326
GlyphClass: 2
Flags: W
LayerCount: 2
Fore
SplineSet
1185 708 m 1,0,-1
 1185 66 l 1,1,-1
 930 66 l 1,2,-1
 930 460 l 1,3,-1
 141 460 l 1,4,-1
 141 708 l 1,5,-1
 1185 708 l 1,0,-1
EndSplineSet
Substitution2: "'case' Case-Sensitive Forms lookup 7 subtable" logicalnot.uc
Substitution2: "'smcp' Lowercase to Small Capitals lookup 6 subtable" logicalnot.sc
Substitution2: "'c2sc' Capitals to Small Capitals lookup 5 subtable" logicalnot.sc
EndChar

StartChar: registered
Encoding: 174 174 111
Width: 1178
GlyphClass: 2
Flags: W
LayerCount: 2
Fore
SplineSet
589 565 m 0,0,1
 374 565 374 565 227 710.5 c 128,-1,2
 80 856 80 856 80 1069 c 128,-1,3
 80 1282 80 1282 227 1427.5 c 128,-1,4
 374 1573 374 1573 589 1573 c 0,5,6
 730 1573 730 1573 847 1507 c 128,-1,7
 964 1441 964 1441 1031 1325 c 128,-1,8
 1098 1209 1098 1209 1098 1069 c 128,-1,9
 1098 929 1098 929 1031 813 c 128,-1,10
 964 697 964 697 847 631 c 128,-1,11
 730 565 730 565 589 565 c 0,0,1
589 693 m 128,-1,13
 747 693 747 693 853.5 801 c 128,-1,14
 960 909 960 909 960 1069 c 128,-1,15
 960 1229 960 1229 853.5 1336.5 c 128,-1,16
 747 1444 747 1444 589 1444 c 128,-1,17
 431 1444 431 1444 325 1336.5 c 128,-1,18
 219 1229 219 1229 219 1069 c 128,-1,19
 219 909 219 909 325 801 c 128,-1,12
 431 693 431 693 589 693 c 128,-1,13
513 844 m 1,20,-1
 390 844 l 1,21,-1
 390 1307 l 1,22,-1
 632 1307 l 2,23,24
 709 1307 709 1307 756.5 1266 c 128,-1,25
 804 1225 804 1225 804 1159 c 0,26,27
 804 1107 804 1107 777.5 1069.5 c 128,-1,28
 751 1032 751 1032 706 1020 c 1,29,-1
 828 844 l 1,30,-1
 680 844 l 1,31,-1
 579 1002 l 1,32,-1
 513 1002 l 1,33,-1
 513 844 l 1,20,-1
513 1209 m 1,34,-1
 513 1092 l 1,35,-1
 604 1092 l 2,36,37
 637 1092 637 1092 655.5 1107.5 c 128,-1,38
 674 1123 674 1123 674 1151 c 0,39,40
 674 1209 674 1209 606 1209 c 2,41,-1
 513 1209 l 1,34,-1
EndSplineSet
EndChar

StartChar: macron
Encoding: 175 175 112
Width: 1000
GlyphClass: 2
Flags: W
LayerCount: 2
Fore
SplineSet
820 1462 m 1,0,-1
 820 1314 l 1,1,-1
 181 1314 l 1,2,-1
 181 1462 l 1,3,-1
 820 1462 l 1,0,-1
EndSplineSet
EndChar

StartChar: degree
Encoding: 176 176 113
Width: 752
GlyphClass: 2
Flags: W
LayerCount: 2
Fore
SplineSet
376 820 m 0,0,1
 241 820 241 820 149.5 912 c 128,-1,2
 58 1004 58 1004 58 1139 c 0,3,4
 58 1273 58 1273 149.5 1365 c 128,-1,5
 241 1457 241 1457 376 1457 c 128,-1,6
 511 1457 511 1457 602.5 1365 c 128,-1,7
 694 1273 694 1273 694 1139 c 0,8,9
 694 1004 694 1004 602 912 c 128,-1,10
 510 820 510 820 376 820 c 0,0,1
376 992 m 0,11,12
 437 992 437 992 478.5 1035.5 c 128,-1,13
 520 1079 520 1079 520 1139 c 0,14,15
 520 1200 520 1200 478.5 1242.5 c 128,-1,16
 437 1285 437 1285 376 1285 c 0,17,18
 318 1285 318 1285 275 1242 c 128,-1,19
 232 1199 232 1199 232 1139 c 0,20,21
 232 1080 232 1080 275 1036 c 128,-1,22
 318 992 318 992 376 992 c 0,11,12
EndSplineSet
EndChar

StartChar: plusminus
Encoding: 177 177 114
Width: 1326
GlyphClass: 2
Flags: W
LayerCount: 2
Fore
SplineSet
1160 75 m 1,0,-1
 164 75 l 1,1,-1
 164 293 l 1,2,-1
 1160 293 l 1,3,-1
 1160 75 l 1,0,-1
787 651 m 1,4,-1
 787 412 l 1,5,-1
 539 412 l 1,6,-1
 539 651 l 1,7,-1
 164 651 l 1,8,-1
 164 867 l 1,9,-1
 539 867 l 1,10,-1
 539 1107 l 1,11,-1
 787 1107 l 1,12,-1
 787 867 l 1,13,-1
 1162 867 l 1,14,-1
 1162 651 l 1,15,-1
 787 651 l 1,4,-1
EndSplineSet
Substitution2: "'case' Case-Sensitive Forms lookup 7 subtable" plusminus.uc
Substitution2: "'smcp' Lowercase to Small Capitals lookup 6 subtable" plusminus.sc
Substitution2: "'c2sc' Capitals to Small Capitals lookup 5 subtable" plusminus.sc
EndChar

StartChar: two.sups
Encoding: 178 178 115
Width: 668
GlyphClass: 2
Flags: W
LayerCount: 2
Fore
SplineSet
31 1574 m 2,0,1
 31 1686 31 1686 112 1752.5 c 128,-1,2
 193 1819 193 1819 329 1819 c 0,3,4
 458 1819 458 1819 536.5 1760.5 c 128,-1,5
 615 1702 615 1702 615 1607 c 0,6,7
 615 1550 615 1550 586.5 1503 c 128,-1,8
 558 1456 558 1456 487 1396 c 2,9,-1
 341 1271 l 1,10,-1
 341 1267 l 1,11,-1
 623 1267 l 1,12,-1
 623 1095 l 1,13,-1
 45 1095 l 1,14,-1
 45 1248 l 1,15,-1
 335 1496 l 2,16,17
 392 1549 392 1549 392 1588 c 0,18,19
 392 1616 392 1616 371.5 1633.5 c 128,-1,20
 351 1651 351 1651 318 1651 c 128,-1,21
 285 1651 285 1651 263 1629 c 128,-1,22
 241 1607 241 1607 241 1574 c 2,23,-1
 241 1569 l 1,24,-1
 31 1569 l 1,25,-1
 31 1574 l 2,0,1
EndSplineSet
EndChar

StartChar: three.sups
Encoding: 179 179 116
Width: 696
GlyphClass: 2
Flags: W
LayerCount: 2
Fore
SplineSet
255 1379 m 1,0,-1
 255 1527 l 1,1,-1
 342 1527 l 2,2,3
 376 1527 376 1527 397.5 1544.5 c 128,-1,4
 419 1562 419 1562 419 1590 c 0,5,6
 419 1619 419 1619 397.5 1636 c 128,-1,7
 376 1653 376 1653 339 1653 c 128,-1,8
 302 1653 302 1653 279.5 1632 c 128,-1,9
 257 1611 257 1611 255 1577 c 1,10,-1
 50 1577 l 1,11,12
 48 1687 48 1687 128.5 1753 c 128,-1,13
 209 1819 209 1819 344 1819 c 0,14,15
 473 1819 473 1819 552 1765 c 128,-1,16
 631 1711 631 1711 631 1623 c 0,17,18
 631 1562 631 1562 590.5 1518 c 128,-1,19
 550 1474 550 1474 484 1463 c 1,20,-1
 484 1458 l 1,21,22
 563 1449 563 1449 608.5 1404.5 c 128,-1,23
 654 1360 654 1360 654 1291 c 0,24,25
 654 1191 654 1191 569.5 1132.5 c 128,-1,26
 485 1074 485 1074 342 1074 c 0,27,28
 209 1074 209 1074 125.5 1141 c 128,-1,29
 42 1208 42 1208 37 1318 c 1,30,-1
 256 1318 l 1,31,32
 257 1287 257 1287 280 1269.5 c 128,-1,33
 303 1252 303 1252 341 1252 c 0,34,35
 378 1252 378 1252 400.5 1269.5 c 128,-1,36
 423 1287 423 1287 423 1315 c 0,37,38
 423 1345 423 1345 400.5 1362 c 128,-1,39
 378 1379 378 1379 339 1379 c 2,40,-1
 255 1379 l 1,0,-1
EndSplineSet
EndChar

StartChar: acute
Encoding: 180 180 117
Width: 1010
GlyphClass: 2
Flags: W
LayerCount: 2
Fore
SplineSet
492 1282 m 1,0,-1
 259 1282 l 1,1,-1
 480 1592 l 1,2,-1
 748 1592 l 1,3,-1
 492 1282 l 1,0,-1
EndSplineSet
EndChar

StartChar: mugreek
Encoding: 956 956 118
AltUni2: 0000b5.ffffffff.0
Width: 1284
GlyphClass: 2
Flags: W
LayerCount: 2
Fore
SplineSet
95 -350 m 1,0,-1
 95 1072 l 1,1,-1
 385 1072 l 1,2,-1
 385 448 l 2,3,4
 385 223 385 223 584 223 c 0,5,6
 686 223 686 223 743.5 287 c 128,-1,7
 801 351 801 351 801 458 c 2,8,-1
 801 1072 l 1,9,-1
 1090 1072 l 1,10,-1
 1090 330 l 2,11,12
 1090 264 1090 264 1109 236.5 c 128,-1,13
 1128 209 1128 209 1173 209 c 0,14,15
 1211 209 1211 209 1229 219 c 1,16,-1
 1234 9 l 1,17,18
 1175 -9 1175 -9 1091 -9 c 0,19,20
 986 -9 986 -9 924 28 c 128,-1,21
 862 65 862 65 828 149 c 0,22,23
 826 155 826 155 822.5 166 c 128,-1,24
 819 177 819 177 817 181 c 1,25,-1
 812 181 l 1,26,27
 777 87 777 87 711.5 33.5 c 128,-1,28
 646 -20 646 -20 561 -20 c 0,29,30
 506 -20 506 -20 460 2 c 128,-1,31
 414 24 414 24 392 59 c 1,32,-1
 387 59 l 1,33,-1
 387 -350 l 1,34,-1
 95 -350 l 1,0,-1
EndSplineSet
Substitution2: "'smcp' Lowercase to Small Capitals lookup 6 subtable" Mugreek.sc
EndChar

StartChar: paragraph
Encoding: 182 182 119
Width: 1473
GlyphClass: 2
Flags: W
LayerCount: 2
Fore
SplineSet
914 -255 m 1,0,-1
 634 -255 l 1,1,-1
 634 455 l 1,2,-1
 614 455 l 2,3,4
 389 455 389 455 239.5 596.5 c 128,-1,5
 90 738 90 738 90 945 c 0,6,7
 90 1161 90 1161 237 1302 c 128,-1,8
 384 1443 384 1443 615 1443 c 2,9,-1
 914 1443 l 1,10,-1
 914 -255 l 1,0,-1
1083 -255 m 1,11,-1
 1083 1443 l 1,12,-1
 1363 1443 l 1,13,-1
 1363 -255 l 1,14,-1
 1083 -255 l 1,11,-1
EndSplineSet
EndChar

StartChar: periodcentered
Encoding: 183 183 120
Width: 632
GlyphClass: 2
Flags: W
LayerCount: 2
Fore
SplineSet
316 465 m 128,-1,1
 248 465 248 465 200 513 c 128,-1,2
 152 561 152 561 152 629 c 0,3,4
 152 698 152 698 200 745.5 c 128,-1,5
 248 793 248 793 316 793 c 128,-1,6
 384 793 384 793 432 745.5 c 128,-1,7
 480 698 480 698 480 629 c 0,8,9
 480 561 480 561 432 513 c 128,-1,0
 384 465 384 465 316 465 c 128,-1,1
EndSplineSet
EndChar

StartChar: cedilla
Encoding: 184 184 121
Width: 1010
GlyphClass: 2
Flags: W
LayerCount: 2
Fore
SplineSet
366 -227 m 1,0,-1
 366 -129 l 1,1,-1
 430 12 l 1,2,-1
 582 12 l 1,3,-1
 582 0 l 1,4,-1
 531 -110 l 1,5,6
 617 -111 617 -111 668 -154.5 c 128,-1,7
 719 -198 719 -198 719 -274 c 0,8,9
 719 -363 719 -363 653 -411 c 128,-1,10
 587 -459 587 -459 471 -460 c 0,11,12
 374 -462 374 -462 329 -446 c 1,13,-1
 329 -324 l 1,14,15
 370 -336 370 -336 441 -336 c 0,16,17
 552 -336 552 -336 552 -282 c 0,18,19
 552 -252 552 -252 524 -239.5 c 128,-1,20
 496 -227 496 -227 429 -227 c 2,21,-1
 366 -227 l 1,0,-1
EndSplineSet
EndChar

StartChar: one.sups
Encoding: 185 185 122
Width: 551
GlyphClass: 2
Flags: W
LayerCount: 2
Fore
SplineSet
230 1095 m 1,0,-1
 230 1606 l 1,1,-1
 226 1606 l 1,2,-1
 54 1494 l 1,3,-1
 54 1684 l 1,4,-1
 228 1798 l 1,5,-1
 458 1798 l 1,6,-1
 458 1095 l 1,7,-1
 230 1095 l 1,0,-1
EndSplineSet
EndChar

StartChar: ordmasculine
Encoding: 186 186 123
Width: 831
GlyphClass: 2
Flags: W
LayerCount: 2
Fore
SplineSet
416 691 m 128,-1,1
 241 691 241 691 141 792.5 c 128,-1,2
 41 894 41 894 41 1075 c 0,3,4
 41 1253 41 1253 142 1356 c 128,-1,5
 243 1459 243 1459 416 1459 c 128,-1,6
 589 1459 589 1459 690 1356.5 c 128,-1,7
 791 1254 791 1254 791 1075 c 0,8,9
 791 893 791 893 691 792 c 128,-1,0
 591 691 591 691 416 691 c 128,-1,1
416 862 m 0,10,11
 481 862 481 862 518 918 c 128,-1,12
 555 974 555 974 555 1075 c 0,13,14
 555 1174 555 1174 518 1230.5 c 128,-1,15
 481 1287 481 1287 416 1287 c 128,-1,16
 351 1287 351 1287 314 1230.5 c 128,-1,17
 277 1174 277 1174 277 1075 c 0,18,19
 277 973 277 973 313.5 917.5 c 128,-1,20
 350 862 350 862 416 862 c 0,10,11
EndSplineSet
EndChar

StartChar: guillemotright
Encoding: 187 187 124
Width: 1356
GlyphClass: 2
Flags: W
LayerCount: 2
Fore
SplineSet
459 572 m 1,0,-1
 113 981 l 1,1,-1
 384 981 l 1,2,-1
 732 570 l 1,3,-1
 732 562 l 1,4,-1
 388 151 l 1,5,-1
 113 151 l 1,6,-1
 459 562 l 1,7,-1
 459 572 l 1,0,-1
970 572 m 1,8,-1
 624 981 l 1,9,-1
 895 981 l 1,10,-1
 1243 570 l 1,11,-1
 1243 562 l 1,12,-1
 899 151 l 1,13,-1
 624 151 l 1,14,-1
 970 562 l 1,15,-1
 970 572 l 1,8,-1
EndSplineSet
Substitution2: "'smcp' Lowercase to Small Capitals lookup 6 subtable" guillemotright.sc
Substitution2: "'c2sc' Capitals to Small Capitals lookup 5 subtable" guillemotright.sc
EndChar

StartChar: onequarter
Encoding: 188 188 125
Width: 1625
GlyphClass: 2
Flags: W
LayerCount: 2
Fore
SplineSet
240 743 m 1,0,-1
 240 1254 l 1,1,-1
 236 1254 l 1,2,-1
 64 1142 l 1,3,-1
 64 1332 l 1,4,-1
 238 1446 l 1,5,-1
 468 1446 l 1,6,-1
 468 743 l 1,7,-1
 240 743 l 1,0,-1
363 0 m 1,8,-1
 121 0 l 1,9,-1
 681 767 l 1,10,-1
 1175 1443 l 1,11,-1
 1416 1443 l 1,12,-1
 871 696 l 1,13,-1
 363 0 l 1,8,-1
1289 0 m 1,14,-1
 1289 96 l 1,15,-1
 945 96 l 1,16,-1
 945 286 l 1,17,18
 1033 459 1033 459 1189 703 c 1,19,-1
 1507 703 l 1,20,-1
 1507 271 l 1,21,-1
 1587 271 l 1,22,-1
 1587 96 l 1,23,-1
 1507 96 l 1,24,-1
 1507 0 l 1,25,-1
 1289 0 l 1,14,-1
1133 265 m 1,26,-1
 1133 261 l 1,27,-1
 1296 261 l 1,28,-1
 1296 555 l 1,29,-1
 1292 555 l 1,30,31
 1189 379 1189 379 1133 265 c 1,26,-1
EndSplineSet
EndChar

StartChar: onehalf
Encoding: 189 189 126
Width: 1622
GlyphClass: 2
Flags: W
LayerCount: 2
Fore
SplineSet
240 743 m 1,0,-1
 240 1254 l 1,1,-1
 236 1254 l 1,2,-1
 64 1142 l 1,3,-1
 64 1332 l 1,4,-1
 238 1446 l 1,5,-1
 468 1446 l 1,6,-1
 468 743 l 1,7,-1
 240 743 l 1,0,-1
363 0 m 1,8,-1
 121 0 l 1,9,-1
 681 767 l 1,10,-1
 1175 1443 l 1,11,-1
 1416 1443 l 1,12,-1
 871 696 l 1,13,-1
 363 0 l 1,8,-1
994 479 m 2,14,15
 994 591 994 591 1075 657.5 c 128,-1,16
 1156 724 1156 724 1292 724 c 0,17,18
 1421 724 1421 724 1499.5 665.5 c 128,-1,19
 1578 607 1578 607 1578 512 c 0,20,21
 1578 455 1578 455 1549.5 408 c 128,-1,22
 1521 361 1521 361 1450 301 c 2,23,-1
 1304 176 l 1,24,-1
 1304 172 l 1,25,-1
 1586 172 l 1,26,-1
 1586 0 l 1,27,-1
 1008 0 l 1,28,-1
 1008 153 l 1,29,-1
 1298 401 l 2,30,31
 1355 454 1355 454 1355 493 c 0,32,33
 1355 521 1355 521 1334.5 538.5 c 128,-1,34
 1314 556 1314 556 1281 556 c 128,-1,35
 1248 556 1248 556 1226 534 c 128,-1,36
 1204 512 1204 512 1204 479 c 2,37,-1
 1204 474 l 1,38,-1
 994 474 l 1,39,-1
 994 479 l 2,14,15
EndSplineSet
EndChar

StartChar: threequarters
Encoding: 190 190 127
Width: 1715
GlyphClass: 2
Flags: W
LayerCount: 2
Fore
SplineSet
255 1027 m 1,0,-1
 255 1175 l 1,1,-1
 342 1175 l 2,2,3
 376 1175 376 1175 397.5 1192.5 c 128,-1,4
 419 1210 419 1210 419 1238 c 0,5,6
 419 1267 419 1267 397.5 1284 c 128,-1,7
 376 1301 376 1301 339 1301 c 128,-1,8
 302 1301 302 1301 279.5 1280 c 128,-1,9
 257 1259 257 1259 255 1225 c 1,10,-1
 50 1225 l 1,11,12
 48 1335 48 1335 128.5 1401 c 128,-1,13
 209 1467 209 1467 344 1467 c 0,14,15
 473 1467 473 1467 552 1413 c 128,-1,16
 631 1359 631 1359 631 1271 c 0,17,18
 631 1210 631 1210 590.5 1166 c 128,-1,19
 550 1122 550 1122 484 1111 c 1,20,-1
 484 1106 l 1,21,22
 563 1097 563 1097 608.5 1052.5 c 128,-1,23
 654 1008 654 1008 654 939 c 0,24,25
 654 839 654 839 569.5 780.5 c 128,-1,26
 485 722 485 722 342 722 c 0,27,28
 209 722 209 722 125.5 789 c 128,-1,29
 42 856 42 856 37 966 c 1,30,-1
 256 966 l 1,31,32
 257 935 257 935 280 917.5 c 128,-1,33
 303 900 303 900 341 900 c 0,34,35
 378 900 378 900 400.5 917.5 c 128,-1,36
 423 935 423 935 423 963 c 0,37,38
 423 993 423 993 400.5 1010 c 128,-1,39
 378 1027 378 1027 339 1027 c 2,40,-1
 255 1027 l 1,0,-1
468 0 m 1,41,-1
 226 0 l 1,42,-1
 786 767 l 1,43,-1
 1280 1443 l 1,44,-1
 1521 1443 l 1,45,-1
 976 696 l 1,46,-1
 468 0 l 1,41,-1
1379 0 m 1,47,-1
 1379 96 l 1,48,-1
 1035 96 l 1,49,-1
 1035 286 l 1,50,51
 1123 459 1123 459 1279 703 c 1,52,-1
 1597 703 l 1,53,-1
 1597 271 l 1,54,-1
 1677 271 l 1,55,-1
 1677 96 l 1,56,-1
 1597 96 l 1,57,-1
 1597 0 l 1,58,-1
 1379 0 l 1,47,-1
1223 265 m 1,59,-1
 1223 261 l 1,60,-1
 1386 261 l 1,61,-1
 1386 555 l 1,62,-1
 1382 555 l 1,63,64
 1279 379 1279 379 1223 265 c 1,59,-1
EndSplineSet
EndChar

StartChar: questiondown
Encoding: 191 191 128
Width: 1093
GlyphClass: 2
Flags: W
LayerCount: 2
Fore
SplineSet
1040 80 m 1,0,1
 1036 -109 1036 -109 908 -223.5 c 128,-1,2
 780 -338 780 -338 555 -338 c 0,3,4
 341 -338 341 -338 210 -230.5 c 128,-1,5
 79 -123 79 -123 79 50 c 0,6,7
 79 160 79 160 132.5 242 c 128,-1,8
 186 324 186 324 293 388 c 0,9,10
 393 447 393 447 428 493 c 128,-1,11
 463 539 463 539 463 612 c 2,12,-1
 463 665 l 1,13,-1
 727 665 l 1,14,-1
 729 607 l 1,15,16
 739 491 739 491 697 416 c 128,-1,17
 655 341 655 341 549 279 c 0,18,19
 452 221 452 221 416.5 175 c 128,-1,20
 381 129 381 129 381 59 c 0,21,22
 381 -14 381 -14 434 -60 c 128,-1,23
 487 -106 487 -106 572 -106 c 128,-1,24
 657 -106 657 -106 710 -55.5 c 128,-1,25
 763 -5 763 -5 768 80 c 1,26,-1
 1040 80 l 1,0,1
585 833 m 128,-1,28
 517 833 517 833 469 878.5 c 128,-1,29
 421 924 421 924 421 989 c 0,30,31
 421 1055 421 1055 468.5 1100.5 c 128,-1,32
 516 1146 516 1146 585 1146 c 0,33,34
 653 1146 653 1146 700.5 1100.5 c 128,-1,35
 748 1055 748 1055 748 989 c 0,36,37
 748 924 748 924 700.5 878.5 c 128,-1,27
 653 833 653 833 585 833 c 128,-1,28
EndSplineSet
Substitution2: "'smcp' Lowercase to Small Capitals lookup 6 subtable" questiondown.sc
Substitution2: "'c2sc' Capitals to Small Capitals lookup 5 subtable" questiondown.sc
EndChar

StartChar: Agrave
Encoding: 192 192 129
Width: 1413
GlyphClass: 2
Flags: W
LayerCount: 2
Fore
SplineSet
1065 0 m 1,0,-1
 955 350 l 1,1,-1
 448 350 l 1,2,-1
 338 0 l 1,3,-1
 28 0 l 1,4,-1
 529 1443 l 1,5,-1
 884 1443 l 1,6,-1
 1386 0 l 1,7,-1
 1065 0 l 1,0,-1
698 1167 m 1,8,-1
 513 576 l 1,9,-1
 890 576 l 1,10,-1
 705 1167 l 1,11,-1
 698 1167 l 1,8,-1
589 1563 m 1,12,-1
 322 1868 l 1,13,-1
 593 1868 l 1,14,-1
 819 1563 l 1,15,-1
 589 1563 l 1,12,-1
EndSplineSet
Substitution2: "'c2sc' Capitals to Small Capitals lookup 5 subtable" Agrave.sc
EndChar

StartChar: Aacute
Encoding: 193 193 130
Width: 1413
GlyphClass: 2
Flags: W
LayerCount: 2
Fore
SplineSet
1065 0 m 1,0,-1
 955 350 l 1,1,-1
 448 350 l 1,2,-1
 338 0 l 1,3,-1
 28 0 l 1,4,-1
 529 1443 l 1,5,-1
 884 1443 l 1,6,-1
 1386 0 l 1,7,-1
 1065 0 l 1,0,-1
698 1167 m 1,8,-1
 513 576 l 1,9,-1
 890 576 l 1,10,-1
 705 1167 l 1,11,-1
 698 1167 l 1,8,-1
822 1558 m 1,12,-1
 592 1558 l 1,13,-1
 818 1863 l 1,14,-1
 1089 1863 l 1,15,-1
 822 1558 l 1,12,-1
EndSplineSet
Substitution2: "'c2sc' Capitals to Small Capitals lookup 5 subtable" Aacute.sc
EndChar

StartChar: Acircumflex
Encoding: 194 194 131
Width: 1413
GlyphClass: 2
Flags: W
LayerCount: 2
Fore
SplineSet
1065 0 m 1,0,-1
 955 350 l 1,1,-1
 448 350 l 1,2,-1
 338 0 l 1,3,-1
 28 0 l 1,4,-1
 529 1443 l 1,5,-1
 884 1443 l 1,6,-1
 1386 0 l 1,7,-1
 1065 0 l 1,0,-1
698 1167 m 1,8,-1
 513 576 l 1,9,-1
 890 576 l 1,10,-1
 705 1167 l 1,11,-1
 698 1167 l 1,8,-1
595 1855 m 1,12,-1
 819 1855 l 1,13,-1
 1088 1538 l 1,14,-1
 867 1538 l 1,15,-1
 711 1730 l 1,16,-1
 703 1730 l 1,17,-1
 547 1538 l 1,18,-1
 326 1538 l 1,19,-1
 595 1855 l 1,12,-1
EndSplineSet
Substitution2: "'c2sc' Capitals to Small Capitals lookup 5 subtable" Acircumflex.sc
EndChar

StartChar: Atilde
Encoding: 195 195 132
Width: 1413
GlyphClass: 2
Flags: W
LayerCount: 2
Fore
SplineSet
1065 0 m 1,0,-1
 955 350 l 1,1,-1
 448 350 l 1,2,-1
 338 0 l 1,3,-1
 28 0 l 1,4,-1
 529 1443 l 1,5,-1
 884 1443 l 1,6,-1
 1386 0 l 1,7,-1
 1065 0 l 1,0,-1
698 1167 m 1,8,-1
 513 576 l 1,9,-1
 890 576 l 1,10,-1
 705 1167 l 1,11,-1
 698 1167 l 1,8,-1
849 1563 m 0,12,13
 802 1563 802 1563 759.5 1584.5 c 128,-1,14
 717 1606 717 1606 692 1631 c 128,-1,15
 667 1656 667 1656 637.5 1677.5 c 128,-1,16
 608 1699 608 1699 584 1699 c 0,17,18
 550 1699 550 1699 532 1666 c 128,-1,19
 514 1633 514 1633 514 1577 c 1,20,-1
 355 1577 l 1,21,22
 355 1705 355 1705 417 1778 c 128,-1,23
 479 1851 479 1851 575 1851 c 0,24,25
 615 1851 615 1851 650.5 1837 c 128,-1,26
 686 1823 686 1823 710.5 1803.5 c 128,-1,27
 735 1784 735 1784 756.5 1764 c 128,-1,28
 778 1744 778 1744 799.5 1730 c 128,-1,29
 821 1716 821 1716 840 1716 c 0,30,31
 906 1716 906 1716 909 1840 c 1,32,-1
 1068 1840 l 1,33,34
 1068 1714 1068 1714 1005.5 1638.5 c 128,-1,35
 943 1563 943 1563 849 1563 c 0,12,13
EndSplineSet
Substitution2: "'c2sc' Capitals to Small Capitals lookup 5 subtable" Atilde.sc
EndChar

StartChar: Adieresis
Encoding: 196 196 133
Width: 1413
GlyphClass: 2
Flags: W
LayerCount: 2
Fore
SplineSet
1065 0 m 1,0,-1
 955 350 l 1,1,-1
 448 350 l 1,2,-1
 338 0 l 1,3,-1
 28 0 l 1,4,-1
 529 1443 l 1,5,-1
 884 1443 l 1,6,-1
 1386 0 l 1,7,-1
 1065 0 l 1,0,-1
698 1167 m 1,8,-1
 513 576 l 1,9,-1
 890 576 l 1,10,-1
 705 1167 l 1,11,-1
 698 1167 l 1,8,-1
503 1571 m 128,-1,13
 446 1571 446 1571 407.5 1609 c 128,-1,14
 369 1647 369 1647 369 1701 c 128,-1,15
 369 1755 369 1755 407.5 1793 c 128,-1,16
 446 1831 446 1831 503 1831 c 128,-1,17
 560 1831 560 1831 598.5 1793 c 128,-1,18
 637 1755 637 1755 637 1701 c 128,-1,19
 637 1647 637 1647 598.5 1609 c 128,-1,12
 560 1571 560 1571 503 1571 c 128,-1,13
911 1571 m 128,-1,21
 854 1571 854 1571 815.5 1609 c 128,-1,22
 777 1647 777 1647 777 1701 c 128,-1,23
 777 1755 777 1755 815.5 1793 c 128,-1,24
 854 1831 854 1831 911 1831 c 128,-1,25
 968 1831 968 1831 1006.5 1793 c 128,-1,26
 1045 1755 1045 1755 1045 1701 c 128,-1,27
 1045 1647 1045 1647 1006.5 1609 c 128,-1,20
 968 1571 968 1571 911 1571 c 128,-1,21
EndSplineSet
Substitution2: "'c2sc' Capitals to Small Capitals lookup 5 subtable" Adieresis.sc
EndChar

StartChar: Aring
Encoding: 197 197 134
Width: 1413
GlyphClass: 2
Flags: W
LayerCount: 2
Fore
SplineSet
1065 0 m 1,0,-1
 955 350 l 1,1,-1
 448 350 l 1,2,-1
 338 0 l 1,3,-1
 28 0 l 1,4,-1
 529 1443 l 1,5,-1
 884 1443 l 1,6,-1
 1386 0 l 1,7,-1
 1065 0 l 1,0,-1
698 1167 m 1,8,-1
 513 576 l 1,9,-1
 890 576 l 1,10,-1
 705 1167 l 1,11,-1
 698 1167 l 1,8,-1
707 1518 m 128,-1,13
 623 1518 623 1518 562 1577.5 c 128,-1,14
 501 1637 501 1637 501 1720 c 0,15,16
 501 1804 501 1804 562 1863 c 128,-1,17
 623 1922 623 1922 707 1922 c 128,-1,18
 791 1922 791 1922 852 1863 c 128,-1,19
 913 1804 913 1804 913 1720 c 0,20,21
 913 1637 913 1637 852 1577.5 c 128,-1,12
 791 1518 791 1518 707 1518 c 128,-1,13
707 1630 m 128,-1,23
 745 1630 745 1630 772 1656.5 c 128,-1,24
 799 1683 799 1683 799 1720 c 128,-1,25
 799 1757 799 1757 772 1783.5 c 128,-1,26
 745 1810 745 1810 707 1810 c 128,-1,27
 669 1810 669 1810 642 1783.5 c 128,-1,28
 615 1757 615 1757 615 1720 c 128,-1,29
 615 1683 615 1683 642 1656.5 c 128,-1,22
 669 1630 669 1630 707 1630 c 128,-1,23
EndSplineSet
Substitution2: "'c2sc' Capitals to Small Capitals lookup 5 subtable" Aring.sc
EndChar

StartChar: AE
Encoding: 198 198 135
Width: 2039
GlyphClass: 2
Flags: W
LayerCount: 2
Fore
SplineSet
830 1211 m 1,0,-1
 575 599 l 1,1,-1
 966 599 l 1,2,-1
 966 1211 l 1,3,-1
 830 1211 l 1,0,-1
966 0 m 1,4,-1
 966 373 l 1,5,-1
 487 373 l 1,6,-1
 329 0 l 1,7,-1
 28 0 l 1,8,-1
 641 1443 l 1,9,-1
 1911 1443 l 1,10,-1
 1911 1194 l 1,11,-1
 1242 1194 l 1,12,-1
 1242 841 l 1,13,-1
 1874 841 l 1,14,-1
 1874 609 l 1,15,-1
 1242 609 l 1,16,-1
 1242 249 l 1,17,-1
 1911 249 l 1,18,-1
 1911 0 l 1,19,-1
 966 0 l 1,4,-1
EndSplineSet
Substitution2: "'c2sc' Capitals to Small Capitals lookup 5 subtable" AE.sc
EndChar

StartChar: Ccedilla
Encoding: 199 199 136
Width: 1459
GlyphClass: 2
Flags: W
LayerCount: 2
Fore
SplineSet
1099 501 m 1,0,-1
 1393 501 l 1,1,2
 1369 277 1369 277 1219 137.5 c 128,-1,3
 1069 -2 1069 -2 833 -22 c 1,4,-1
 792 -110 l 1,5,6
 878 -111 878 -111 929 -154.5 c 128,-1,7
 980 -198 980 -198 980 -274 c 0,8,9
 980 -363 980 -363 914 -411 c 128,-1,10
 848 -459 848 -459 732 -460 c 0,11,12
 635 -462 635 -462 590 -446 c 1,13,-1
 590 -324 l 1,14,15
 631 -336 631 -336 702 -336 c 0,16,17
 813 -336 813 -336 813 -282 c 0,18,19
 813 -252 813 -252 785 -239.5 c 128,-1,20
 757 -227 757 -227 690 -227 c 2,21,-1
 627 -227 l 1,22,-1
 627 -129 l 1,23,-1
 676 -21 l 1,24,25
 396 5 396 5 235.5 201 c 128,-1,26
 75 397 75 397 75 722 c 0,27,28
 75 1069 75 1069 259 1268.5 c 128,-1,29
 443 1468 443 1468 758 1468 c 0,30,31
 930 1468 930 1468 1070.5 1400 c 128,-1,32
 1211 1332 1211 1332 1296 1208 c 128,-1,33
 1381 1084 1381 1084 1392 925 c 1,34,-1
 1098 925 l 1,35,36
 1077 1058 1077 1058 983.5 1138 c 128,-1,37
 890 1218 890 1218 758 1218 c 0,38,39
 587 1218 587 1218 485 1084 c 128,-1,40
 383 950 383 950 383 723 c 0,41,42
 383 492 383 492 484 358.5 c 128,-1,43
 585 225 585 225 759 225 c 0,44,45
 893 225 893 225 984 299 c 128,-1,46
 1075 373 1075 373 1099 501 c 1,0,-1
EndSplineSet
Substitution2: "'c2sc' Capitals to Small Capitals lookup 5 subtable" Ccedilla.sc
EndChar

StartChar: Egrave
Encoding: 200 200 137
Width: 1174
GlyphClass: 2
Flags: W
LayerCount: 2
Fore
SplineSet
1076 250 m 1,0,-1
 1076 0 l 1,1,-1
 120 0 l 1,2,-1
 120 1443 l 1,3,-1
 1076 1443 l 1,4,-1
 1076 1194 l 1,5,-1
 422 1194 l 1,6,-1
 422 846 l 1,7,-1
 1039 846 l 1,8,-1
 1039 614 l 1,9,-1
 422 614 l 1,10,-1
 422 250 l 1,11,-1
 1076 250 l 1,0,-1
480 1563 m 1,12,-1
 213 1868 l 1,13,-1
 484 1868 l 1,14,-1
 710 1563 l 1,15,-1
 480 1563 l 1,12,-1
EndSplineSet
Substitution2: "'c2sc' Capitals to Small Capitals lookup 5 subtable" Egrave.sc
EndChar

StartChar: Eacute
Encoding: 201 201 138
Width: 1174
GlyphClass: 2
Flags: W
LayerCount: 2
Fore
SplineSet
1076 250 m 1,0,-1
 1076 0 l 1,1,-1
 120 0 l 1,2,-1
 120 1443 l 1,3,-1
 1076 1443 l 1,4,-1
 1076 1194 l 1,5,-1
 422 1194 l 1,6,-1
 422 846 l 1,7,-1
 1039 846 l 1,8,-1
 1039 614 l 1,9,-1
 422 614 l 1,10,-1
 422 250 l 1,11,-1
 1076 250 l 1,0,-1
713 1558 m 1,12,-1
 483 1558 l 1,13,-1
 709 1863 l 1,14,-1
 980 1863 l 1,15,-1
 713 1558 l 1,12,-1
EndSplineSet
Substitution2: "'c2sc' Capitals to Small Capitals lookup 5 subtable" Eacute.sc
EndChar

StartChar: Ecircumflex
Encoding: 202 202 139
Width: 1174
GlyphClass: 2
Flags: W
LayerCount: 2
Fore
SplineSet
1076 250 m 1,0,-1
 1076 0 l 1,1,-1
 120 0 l 1,2,-1
 120 1443 l 1,3,-1
 1076 1443 l 1,4,-1
 1076 1194 l 1,5,-1
 422 1194 l 1,6,-1
 422 846 l 1,7,-1
 1039 846 l 1,8,-1
 1039 614 l 1,9,-1
 422 614 l 1,10,-1
 422 250 l 1,11,-1
 1076 250 l 1,0,-1
486 1855 m 1,12,-1
 710 1855 l 1,13,-1
 979 1538 l 1,14,-1
 758 1538 l 1,15,-1
 602 1730 l 1,16,-1
 594 1730 l 1,17,-1
 438 1538 l 1,18,-1
 217 1538 l 1,19,-1
 486 1855 l 1,12,-1
EndSplineSet
Substitution2: "'c2sc' Capitals to Small Capitals lookup 5 subtable" Ecircumflex.sc
EndChar

StartChar: Edieresis
Encoding: 203 203 140
Width: 1174
GlyphClass: 2
Flags: W
LayerCount: 2
Fore
SplineSet
1076 250 m 1,0,-1
 1076 0 l 1,1,-1
 120 0 l 1,2,-1
 120 1443 l 1,3,-1
 1076 1443 l 1,4,-1
 1076 1194 l 1,5,-1
 422 1194 l 1,6,-1
 422 846 l 1,7,-1
 1039 846 l 1,8,-1
 1039 614 l 1,9,-1
 422 614 l 1,10,-1
 422 250 l 1,11,-1
 1076 250 l 1,0,-1
394 1571 m 128,-1,13
 337 1571 337 1571 298.5 1609 c 128,-1,14
 260 1647 260 1647 260 1701 c 128,-1,15
 260 1755 260 1755 298.5 1793 c 128,-1,16
 337 1831 337 1831 394 1831 c 128,-1,17
 451 1831 451 1831 489.5 1793 c 128,-1,18
 528 1755 528 1755 528 1701 c 128,-1,19
 528 1647 528 1647 489.5 1609 c 128,-1,12
 451 1571 451 1571 394 1571 c 128,-1,13
802 1571 m 128,-1,21
 745 1571 745 1571 706.5 1609 c 128,-1,22
 668 1647 668 1647 668 1701 c 128,-1,23
 668 1755 668 1755 706.5 1793 c 128,-1,24
 745 1831 745 1831 802 1831 c 128,-1,25
 859 1831 859 1831 897.5 1793 c 128,-1,26
 936 1755 936 1755 936 1701 c 128,-1,27
 936 1647 936 1647 897.5 1609 c 128,-1,20
 859 1571 859 1571 802 1571 c 128,-1,21
EndSplineSet
Substitution2: "'c2sc' Capitals to Small Capitals lookup 5 subtable" Edieresis.sc
EndChar

StartChar: Igrave
Encoding: 204 204 141
Width: 542
GlyphClass: 2
Flags: W
LayerCount: 2
Fore
SplineSet
422 0 m 1,0,-1
 120 0 l 1,1,-1
 120 1443 l 1,2,-1
 422 1443 l 1,3,-1
 422 0 l 1,0,-1
153 1563 m 1,4,-1
 -114 1868 l 1,5,-1
 157 1868 l 1,6,-1
 383 1563 l 1,7,-1
 153 1563 l 1,4,-1
EndSplineSet
Substitution2: "'cv05' Character Variants 05 lookup 25 subtable" Igrave.1
Substitution2: "'ss06' Style Set 6 lookup 19 subtable" Igrave.1
Substitution2: "'c2sc' Capitals to Small Capitals lookup 5 subtable" Igrave.sc
EndChar

StartChar: Iacute
Encoding: 205 205 142
Width: 542
GlyphClass: 2
Flags: W
LayerCount: 2
Fore
SplineSet
422 0 m 1,0,-1
 120 0 l 1,1,-1
 120 1443 l 1,2,-1
 422 1443 l 1,3,-1
 422 0 l 1,0,-1
386 1558 m 1,4,-1
 156 1558 l 1,5,-1
 382 1863 l 1,6,-1
 653 1863 l 1,7,-1
 386 1558 l 1,4,-1
EndSplineSet
Substitution2: "'cv05' Character Variants 05 lookup 25 subtable" Iacute.1
Substitution2: "'ss06' Style Set 6 lookup 19 subtable" Iacute.1
Substitution2: "'c2sc' Capitals to Small Capitals lookup 5 subtable" Iacute.sc
EndChar

StartChar: Icircumflex
Encoding: 206 206 143
Width: 542
GlyphClass: 2
Flags: W
LayerCount: 2
Fore
SplineSet
422 0 m 1,0,-1
 120 0 l 1,1,-1
 120 1443 l 1,2,-1
 422 1443 l 1,3,-1
 422 0 l 1,0,-1
159 1855 m 1,4,-1
 383 1855 l 1,5,-1
 652 1538 l 1,6,-1
 431 1538 l 1,7,-1
 275 1730 l 1,8,-1
 267 1730 l 1,9,-1
 111 1538 l 1,10,-1
 -110 1538 l 1,11,-1
 159 1855 l 1,4,-1
EndSplineSet
Substitution2: "'cv05' Character Variants 05 lookup 25 subtable" Icircumflex.1
Substitution2: "'ss06' Style Set 6 lookup 19 subtable" Icircumflex.1
Substitution2: "'c2sc' Capitals to Small Capitals lookup 5 subtable" Icircumflex.sc
EndChar

StartChar: Idieresis
Encoding: 207 207 144
Width: 542
GlyphClass: 2
Flags: W
LayerCount: 2
Fore
SplineSet
422 0 m 1,0,-1
 120 0 l 1,1,-1
 120 1443 l 1,2,-1
 422 1443 l 1,3,-1
 422 0 l 1,0,-1
67 1571 m 128,-1,5
 10 1571 10 1571 -28.5 1609 c 128,-1,6
 -67 1647 -67 1647 -67 1701 c 128,-1,7
 -67 1755 -67 1755 -28.5 1793 c 128,-1,8
 10 1831 10 1831 67 1831 c 128,-1,9
 124 1831 124 1831 162.5 1793 c 128,-1,10
 201 1755 201 1755 201 1701 c 128,-1,11
 201 1647 201 1647 162.5 1609 c 128,-1,4
 124 1571 124 1571 67 1571 c 128,-1,5
475 1571 m 128,-1,13
 418 1571 418 1571 379.5 1609 c 128,-1,14
 341 1647 341 1647 341 1701 c 128,-1,15
 341 1755 341 1755 379.5 1793 c 128,-1,16
 418 1831 418 1831 475 1831 c 128,-1,17
 532 1831 532 1831 570.5 1793 c 128,-1,18
 609 1755 609 1755 609 1701 c 128,-1,19
 609 1647 609 1647 570.5 1609 c 128,-1,12
 532 1571 532 1571 475 1571 c 128,-1,13
EndSplineSet
Substitution2: "'cv05' Character Variants 05 lookup 25 subtable" Idieresis.1
Substitution2: "'ss06' Style Set 6 lookup 19 subtable" Idieresis.1
Substitution2: "'c2sc' Capitals to Small Capitals lookup 5 subtable" Idieresis.sc
EndChar

StartChar: Eth
Encoding: 208 208 145
Width: 1458
GlyphClass: 2
Flags: W
LayerCount: 2
Fore
SplineSet
442 250 m 1,0,-1
 655 250 l 2,1,2
 858 250 858 250 964.5 371.5 c 128,-1,3
 1071 493 1071 493 1071 726 c 0,4,5
 1071 952 1071 952 963 1073 c 128,-1,6
 855 1194 855 1194 655 1194 c 2,7,-1
 442 1194 l 1,8,-1
 442 843 l 1,9,-1
 697 843 l 1,10,-1
 697 622 l 1,11,-1
 442 622 l 1,12,-1
 442 250 l 1,0,-1
140 1443 m 1,13,-1
 691 1443 l 2,14,15
 1017 1443 1017 1443 1198 1256 c 128,-1,16
 1379 1069 1379 1069 1379 727 c 0,17,18
 1379 384 1379 384 1197.5 192 c 128,-1,19
 1016 0 1016 0 691 0 c 2,20,-1
 140 0 l 1,21,-1
 140 622 l 1,22,-1
 42 622 l 1,23,-1
 42 843 l 1,24,-1
 140 843 l 1,25,-1
 140 1443 l 1,13,-1
EndSplineSet
Substitution2: "'c2sc' Capitals to Small Capitals lookup 5 subtable" Eth.sc
EndChar

StartChar: Ntilde
Encoding: 209 209 146
Width: 1463
GlyphClass: 2
Flags: W
LayerCount: 2
Fore
SplineSet
409 0 m 1,0,-1
 120 0 l 1,1,-1
 120 1443 l 1,2,-1
 372 1443 l 1,3,-1
 1046 503 l 1,4,-1
 1054 503 l 1,5,-1
 1054 1443 l 1,6,-1
 1343 1443 l 1,7,-1
 1343 0 l 1,8,-1
 1093 0 l 1,9,-1
 418 945 l 1,10,-1
 409 945 l 1,11,-1
 409 0 l 1,0,-1
874 1563 m 0,12,13
 827 1563 827 1563 784.5 1584.5 c 128,-1,14
 742 1606 742 1606 717 1631 c 128,-1,15
 692 1656 692 1656 662.5 1677.5 c 128,-1,16
 633 1699 633 1699 609 1699 c 0,17,18
 575 1699 575 1699 557 1666 c 128,-1,19
 539 1633 539 1633 539 1577 c 1,20,-1
 380 1577 l 1,21,22
 380 1705 380 1705 442 1778 c 128,-1,23
 504 1851 504 1851 600 1851 c 0,24,25
 640 1851 640 1851 675.5 1837 c 128,-1,26
 711 1823 711 1823 735.5 1803.5 c 128,-1,27
 760 1784 760 1784 781.5 1764 c 128,-1,28
 803 1744 803 1744 824.5 1730 c 128,-1,29
 846 1716 846 1716 865 1716 c 0,30,31
 931 1716 931 1716 934 1840 c 1,32,-1
 1093 1840 l 1,33,34
 1093 1714 1093 1714 1030.5 1638.5 c 128,-1,35
 968 1563 968 1563 874 1563 c 0,12,13
EndSplineSet
Substitution2: "'c2sc' Capitals to Small Capitals lookup 5 subtable" Ntilde.sc
EndChar

StartChar: Ograve
Encoding: 210 210 147
Width: 1541
GlyphClass: 2
Flags: W
LayerCount: 2
Fore
SplineSet
771 1468 m 128,-1,1
 1092 1468 1092 1468 1279.5 1267 c 128,-1,2
 1467 1066 1467 1066 1467 721 c 0,3,4
 1467 377 1467 377 1279 176 c 128,-1,5
 1091 -25 1091 -25 771 -25 c 0,6,7
 450 -25 450 -25 262.5 176 c 128,-1,8
 75 377 75 377 75 721 c 0,9,10
 75 1066 75 1066 262.5 1267 c 128,-1,0
 450 1468 450 1468 771 1468 c 128,-1,1
771 1216 m 128,-1,12
 594 1216 594 1216 488.5 1082 c 128,-1,13
 383 948 383 948 383 721 c 0,14,15
 383 495 383 495 488 361.5 c 128,-1,16
 593 228 593 228 771 228 c 0,17,18
 948 228 948 228 1053 361.5 c 128,-1,19
 1158 495 1158 495 1158 721 c 0,20,21
 1158 948 1158 948 1053 1082 c 128,-1,11
 948 1216 948 1216 771 1216 c 128,-1,12
653 1563 m 1,22,-1
 386 1868 l 1,23,-1
 657 1868 l 1,24,-1
 883 1563 l 1,25,-1
 653 1563 l 1,22,-1
EndSplineSet
Substitution2: "'c2sc' Capitals to Small Capitals lookup 5 subtable" Ograve.sc
EndChar

StartChar: Oacute
Encoding: 211 211 148
Width: 1541
GlyphClass: 2
Flags: W
LayerCount: 2
Fore
SplineSet
771 1468 m 128,-1,1
 1092 1468 1092 1468 1279.5 1267 c 128,-1,2
 1467 1066 1467 1066 1467 721 c 0,3,4
 1467 377 1467 377 1279 176 c 128,-1,5
 1091 -25 1091 -25 771 -25 c 0,6,7
 450 -25 450 -25 262.5 176 c 128,-1,8
 75 377 75 377 75 721 c 0,9,10
 75 1066 75 1066 262.5 1267 c 128,-1,0
 450 1468 450 1468 771 1468 c 128,-1,1
771 1216 m 128,-1,12
 594 1216 594 1216 488.5 1082 c 128,-1,13
 383 948 383 948 383 721 c 0,14,15
 383 495 383 495 488 361.5 c 128,-1,16
 593 228 593 228 771 228 c 0,17,18
 948 228 948 228 1053 361.5 c 128,-1,19
 1158 495 1158 495 1158 721 c 0,20,21
 1158 948 1158 948 1053 1082 c 128,-1,11
 948 1216 948 1216 771 1216 c 128,-1,12
886 1558 m 1,22,-1
 656 1558 l 1,23,-1
 882 1863 l 1,24,-1
 1153 1863 l 1,25,-1
 886 1558 l 1,22,-1
EndSplineSet
Substitution2: "'c2sc' Capitals to Small Capitals lookup 5 subtable" Oacute.sc
EndChar

StartChar: Ocircumflex
Encoding: 212 212 149
Width: 1541
GlyphClass: 2
Flags: W
LayerCount: 2
Fore
SplineSet
771 1468 m 128,-1,1
 1092 1468 1092 1468 1279.5 1267 c 128,-1,2
 1467 1066 1467 1066 1467 721 c 0,3,4
 1467 377 1467 377 1279 176 c 128,-1,5
 1091 -25 1091 -25 771 -25 c 0,6,7
 450 -25 450 -25 262.5 176 c 128,-1,8
 75 377 75 377 75 721 c 0,9,10
 75 1066 75 1066 262.5 1267 c 128,-1,0
 450 1468 450 1468 771 1468 c 128,-1,1
771 1216 m 128,-1,12
 594 1216 594 1216 488.5 1082 c 128,-1,13
 383 948 383 948 383 721 c 0,14,15
 383 495 383 495 488 361.5 c 128,-1,16
 593 228 593 228 771 228 c 0,17,18
 948 228 948 228 1053 361.5 c 128,-1,19
 1158 495 1158 495 1158 721 c 0,20,21
 1158 948 1158 948 1053 1082 c 128,-1,11
 948 1216 948 1216 771 1216 c 128,-1,12
659 1855 m 1,22,-1
 883 1855 l 1,23,-1
 1152 1538 l 1,24,-1
 931 1538 l 1,25,-1
 775 1730 l 1,26,-1
 767 1730 l 1,27,-1
 611 1538 l 1,28,-1
 390 1538 l 1,29,-1
 659 1855 l 1,22,-1
EndSplineSet
Substitution2: "'c2sc' Capitals to Small Capitals lookup 5 subtable" Ocircumflex.sc
EndChar

StartChar: Otilde
Encoding: 213 213 150
Width: 1541
GlyphClass: 2
Flags: W
LayerCount: 2
Fore
SplineSet
771 1468 m 128,-1,1
 1092 1468 1092 1468 1279.5 1267 c 128,-1,2
 1467 1066 1467 1066 1467 721 c 0,3,4
 1467 377 1467 377 1279 176 c 128,-1,5
 1091 -25 1091 -25 771 -25 c 0,6,7
 450 -25 450 -25 262.5 176 c 128,-1,8
 75 377 75 377 75 721 c 0,9,10
 75 1066 75 1066 262.5 1267 c 128,-1,0
 450 1468 450 1468 771 1468 c 128,-1,1
771 1216 m 128,-1,12
 594 1216 594 1216 488.5 1082 c 128,-1,13
 383 948 383 948 383 721 c 0,14,15
 383 495 383 495 488 361.5 c 128,-1,16
 593 228 593 228 771 228 c 0,17,18
 948 228 948 228 1053 361.5 c 128,-1,19
 1158 495 1158 495 1158 721 c 0,20,21
 1158 948 1158 948 1053 1082 c 128,-1,11
 948 1216 948 1216 771 1216 c 128,-1,12
913 1563 m 0,22,23
 866 1563 866 1563 823.5 1584.5 c 128,-1,24
 781 1606 781 1606 756 1631 c 128,-1,25
 731 1656 731 1656 701.5 1677.5 c 128,-1,26
 672 1699 672 1699 648 1699 c 0,27,28
 614 1699 614 1699 596 1666 c 128,-1,29
 578 1633 578 1633 578 1577 c 1,30,-1
 419 1577 l 1,31,32
 419 1705 419 1705 481 1778 c 128,-1,33
 543 1851 543 1851 639 1851 c 0,34,35
 679 1851 679 1851 714.5 1837 c 128,-1,36
 750 1823 750 1823 774.5 1803.5 c 128,-1,37
 799 1784 799 1784 820.5 1764 c 128,-1,38
 842 1744 842 1744 863.5 1730 c 128,-1,39
 885 1716 885 1716 904 1716 c 0,40,41
 970 1716 970 1716 973 1840 c 1,42,-1
 1132 1840 l 1,43,44
 1132 1714 1132 1714 1069.5 1638.5 c 128,-1,45
 1007 1563 1007 1563 913 1563 c 0,22,23
EndSplineSet
Substitution2: "'c2sc' Capitals to Small Capitals lookup 5 subtable" Otilde.sc
EndChar

StartChar: Odieresis
Encoding: 214 214 151
Width: 1541
GlyphClass: 2
Flags: W
LayerCount: 2
Fore
SplineSet
771 1468 m 128,-1,1
 1092 1468 1092 1468 1279.5 1267 c 128,-1,2
 1467 1066 1467 1066 1467 721 c 0,3,4
 1467 377 1467 377 1279 176 c 128,-1,5
 1091 -25 1091 -25 771 -25 c 0,6,7
 450 -25 450 -25 262.5 176 c 128,-1,8
 75 377 75 377 75 721 c 0,9,10
 75 1066 75 1066 262.5 1267 c 128,-1,0
 450 1468 450 1468 771 1468 c 128,-1,1
771 1216 m 128,-1,12
 594 1216 594 1216 488.5 1082 c 128,-1,13
 383 948 383 948 383 721 c 0,14,15
 383 495 383 495 488 361.5 c 128,-1,16
 593 228 593 228 771 228 c 0,17,18
 948 228 948 228 1053 361.5 c 128,-1,19
 1158 495 1158 495 1158 721 c 0,20,21
 1158 948 1158 948 1053 1082 c 128,-1,11
 948 1216 948 1216 771 1216 c 128,-1,12
567 1571 m 128,-1,23
 510 1571 510 1571 471.5 1609 c 128,-1,24
 433 1647 433 1647 433 1701 c 128,-1,25
 433 1755 433 1755 471.5 1793 c 128,-1,26
 510 1831 510 1831 567 1831 c 128,-1,27
 624 1831 624 1831 662.5 1793 c 128,-1,28
 701 1755 701 1755 701 1701 c 128,-1,29
 701 1647 701 1647 662.5 1609 c 128,-1,22
 624 1571 624 1571 567 1571 c 128,-1,23
975 1571 m 128,-1,31
 918 1571 918 1571 879.5 1609 c 128,-1,32
 841 1647 841 1647 841 1701 c 128,-1,33
 841 1755 841 1755 879.5 1793 c 128,-1,34
 918 1831 918 1831 975 1831 c 128,-1,35
 1032 1831 1032 1831 1070.5 1793 c 128,-1,36
 1109 1755 1109 1755 1109 1701 c 128,-1,37
 1109 1647 1109 1647 1070.5 1609 c 128,-1,30
 1032 1571 1032 1571 975 1571 c 128,-1,31
EndSplineSet
Substitution2: "'c2sc' Capitals to Small Capitals lookup 5 subtable" Odieresis.sc
EndChar

StartChar: multiply
Encoding: 215 215 152
Width: 1326
GlyphClass: 2
Flags: W
LayerCount: 2
Fore
SplineSet
664 409 m 1,0,-1
 359 105 l 1,1,-1
 184 280 l 1,2,-1
 488 584 l 1,3,-1
 184 889 l 1,4,-1
 359 1064 l 1,5,-1
 664 760 l 1,6,-1
 968 1064 l 1,7,-1
 1143 889 l 1,8,-1
 839 584 l 1,9,-1
 1143 280 l 1,10,-1
 968 105 l 1,11,-1
 664 409 l 1,0,-1
EndSplineSet
Substitution2: "'case' Case-Sensitive Forms lookup 7 subtable" multiply.uc
Substitution2: "'smcp' Lowercase to Small Capitals lookup 6 subtable" multiply.sc
Substitution2: "'c2sc' Capitals to Small Capitals lookup 5 subtable" multiply.sc
EndChar

StartChar: Oslash
Encoding: 216 216 153
Width: 1541
GlyphClass: 2
Flags: W
LayerCount: 2
Fore
SplineSet
1081 1041 m 1,0,-1
 576 282 l 1,1,2
 661 228 661 228 771 228 c 0,3,4
 948 228 948 228 1053 361.5 c 128,-1,5
 1158 495 1158 495 1158 721 c 0,6,7
 1158 915 1158 915 1081 1041 c 1,0,-1
484 366 m 1,8,-1
 998 1139 l 1,9,10
 904 1216 904 1216 771 1216 c 0,11,12
 594 1216 594 1216 488.5 1082 c 128,-1,13
 383 948 383 948 383 721 c 0,14,15
 383 498 383 498 484 366 c 1,8,-1
1350 1446 m 1,16,-1
 1250 1296 l 1,17,18
 1467 1093 1467 1093 1467 721 c 0,19,20
 1467 377 1467 377 1279 176 c 128,-1,21
 1091 -25 1091 -25 771 -25 c 0,22,23
 574 -25 574 -25 424 53 c 1,24,-1
 344 -67 l 1,25,-1
 242 1 l 1,26,-1
 322 121 l 1,27,28
 202 218 202 218 138.5 371 c 128,-1,29
 75 524 75 524 75 721 c 0,30,31
 75 1066 75 1066 262.5 1267 c 128,-1,32
 450 1468 450 1468 771 1468 c 0,33,34
 991 1468 991 1468 1152 1370 c 1,35,-1
 1242 1506 l 1,36,-1
 1350 1446 l 1,16,-1
EndSplineSet
Substitution2: "'c2sc' Capitals to Small Capitals lookup 5 subtable" Oslash.sc
EndChar

StartChar: Ugrave
Encoding: 217 217 154
Width: 1449
GlyphClass: 2
Flags: W
LayerCount: 2
Fore
SplineSet
422 1443 m 1,0,-1
 422 540 l 2,1,2
 422 399 422 399 501.5 316.5 c 128,-1,3
 581 234 581 234 725 234 c 0,4,5
 868 234 868 234 947.5 316.5 c 128,-1,6
 1027 399 1027 399 1027 540 c 2,7,-1
 1027 1443 l 1,8,-1
 1329 1443 l 1,9,-1
 1329 510 l 2,10,11
 1329 270 1329 270 1164.5 122.5 c 128,-1,12
 1000 -25 1000 -25 725 -25 c 0,13,14
 449 -25 449 -25 284.5 122.5 c 128,-1,15
 120 270 120 270 120 510 c 2,16,-1
 120 1443 l 1,17,-1
 422 1443 l 1,0,-1
607 1563 m 1,18,-1
 340 1868 l 1,19,-1
 611 1868 l 1,20,-1
 837 1563 l 1,21,-1
 607 1563 l 1,18,-1
EndSplineSet
Substitution2: "'c2sc' Capitals to Small Capitals lookup 5 subtable" Ugrave.sc
EndChar

StartChar: Uacute
Encoding: 218 218 155
Width: 1449
GlyphClass: 2
Flags: W
LayerCount: 2
Fore
SplineSet
422 1443 m 1,0,-1
 422 540 l 2,1,2
 422 399 422 399 501.5 316.5 c 128,-1,3
 581 234 581 234 725 234 c 0,4,5
 868 234 868 234 947.5 316.5 c 128,-1,6
 1027 399 1027 399 1027 540 c 2,7,-1
 1027 1443 l 1,8,-1
 1329 1443 l 1,9,-1
 1329 510 l 2,10,11
 1329 270 1329 270 1164.5 122.5 c 128,-1,12
 1000 -25 1000 -25 725 -25 c 0,13,14
 449 -25 449 -25 284.5 122.5 c 128,-1,15
 120 270 120 270 120 510 c 2,16,-1
 120 1443 l 1,17,-1
 422 1443 l 1,0,-1
840 1558 m 1,18,-1
 610 1558 l 1,19,-1
 836 1863 l 1,20,-1
 1107 1863 l 1,21,-1
 840 1558 l 1,18,-1
EndSplineSet
Substitution2: "'c2sc' Capitals to Small Capitals lookup 5 subtable" Uacute.sc
EndChar

StartChar: Ucircumflex
Encoding: 219 219 156
Width: 1449
GlyphClass: 2
Flags: W
LayerCount: 2
Fore
SplineSet
422 1443 m 1,0,-1
 422 540 l 2,1,2
 422 399 422 399 501.5 316.5 c 128,-1,3
 581 234 581 234 725 234 c 0,4,5
 868 234 868 234 947.5 316.5 c 128,-1,6
 1027 399 1027 399 1027 540 c 2,7,-1
 1027 1443 l 1,8,-1
 1329 1443 l 1,9,-1
 1329 510 l 2,10,11
 1329 270 1329 270 1164.5 122.5 c 128,-1,12
 1000 -25 1000 -25 725 -25 c 0,13,14
 449 -25 449 -25 284.5 122.5 c 128,-1,15
 120 270 120 270 120 510 c 2,16,-1
 120 1443 l 1,17,-1
 422 1443 l 1,0,-1
613 1855 m 1,18,-1
 837 1855 l 1,19,-1
 1106 1538 l 1,20,-1
 885 1538 l 1,21,-1
 729 1730 l 1,22,-1
 721 1730 l 1,23,-1
 565 1538 l 1,24,-1
 344 1538 l 1,25,-1
 613 1855 l 1,18,-1
EndSplineSet
Substitution2: "'c2sc' Capitals to Small Capitals lookup 5 subtable" Ucircumflex.sc
EndChar

StartChar: Udieresis
Encoding: 220 220 157
Width: 1449
GlyphClass: 2
Flags: W
LayerCount: 2
Fore
SplineSet
422 1443 m 1,0,-1
 422 540 l 2,1,2
 422 399 422 399 501.5 316.5 c 128,-1,3
 581 234 581 234 725 234 c 0,4,5
 868 234 868 234 947.5 316.5 c 128,-1,6
 1027 399 1027 399 1027 540 c 2,7,-1
 1027 1443 l 1,8,-1
 1329 1443 l 1,9,-1
 1329 510 l 2,10,11
 1329 270 1329 270 1164.5 122.5 c 128,-1,12
 1000 -25 1000 -25 725 -25 c 0,13,14
 449 -25 449 -25 284.5 122.5 c 128,-1,15
 120 270 120 270 120 510 c 2,16,-1
 120 1443 l 1,17,-1
 422 1443 l 1,0,-1
521 1571 m 128,-1,19
 464 1571 464 1571 425.5 1609 c 128,-1,20
 387 1647 387 1647 387 1701 c 128,-1,21
 387 1755 387 1755 425.5 1793 c 128,-1,22
 464 1831 464 1831 521 1831 c 128,-1,23
 578 1831 578 1831 616.5 1793 c 128,-1,24
 655 1755 655 1755 655 1701 c 128,-1,25
 655 1647 655 1647 616.5 1609 c 128,-1,18
 578 1571 578 1571 521 1571 c 128,-1,19
929 1571 m 128,-1,27
 872 1571 872 1571 833.5 1609 c 128,-1,28
 795 1647 795 1647 795 1701 c 128,-1,29
 795 1755 795 1755 833.5 1793 c 128,-1,30
 872 1831 872 1831 929 1831 c 128,-1,31
 986 1831 986 1831 1024.5 1793 c 128,-1,32
 1063 1755 1063 1755 1063 1701 c 128,-1,33
 1063 1647 1063 1647 1024.5 1609 c 128,-1,26
 986 1571 986 1571 929 1571 c 128,-1,27
EndSplineSet
Substitution2: "'c2sc' Capitals to Small Capitals lookup 5 subtable" Udieresis.sc
EndChar

StartChar: Yacute
Encoding: 221 221 158
Width: 1362
GlyphClass: 2
Flags: W
LayerCount: 2
Fore
SplineSet
832 0 m 1,0,-1
 530 0 l 1,1,-1
 530 539 l 1,2,-1
 28 1443 l 1,3,-1
 357 1443 l 1,4,-1
 680 827 l 1,5,-1
 687 827 l 1,6,-1
 1011 1443 l 1,7,-1
 1335 1443 l 1,8,-1
 832 539 l 1,9,-1
 832 0 l 1,0,-1
796 1558 m 1,10,-1
 566 1558 l 1,11,-1
 792 1863 l 1,12,-1
 1063 1863 l 1,13,-1
 796 1558 l 1,10,-1
EndSplineSet
Substitution2: "'c2sc' Capitals to Small Capitals lookup 5 subtable" Yacute.sc
EndChar

StartChar: Thorn
Encoding: 222 222 159
Width: 1330
GlyphClass: 2
Flags: W
LayerCount: 2
Fore
SplineSet
151 1443 m 1,0,-1
 455 1443 l 1,1,-1
 455 1208 l 1,2,-1
 762 1208 l 2,3,4
 971 1208 971 1208 1104 1084.5 c 128,-1,5
 1237 961 1237 961 1237 751 c 0,6,7
 1237 612 1237 612 1172.5 507 c 128,-1,8
 1108 402 1108 402 997.5 348 c 128,-1,9
 887 294 887 294 747 294 c 2,10,-1
 453 294 l 1,11,-1
 453 0 l 1,12,-1
 151 0 l 1,13,-1
 151 1443 l 1,0,-1
453 968 m 1,14,-1
 453 531 l 1,15,-1
 679 531 l 2,16,17
 796 531 796 531 863 587 c 128,-1,18
 930 643 930 643 930 750 c 128,-1,19
 930 857 930 857 863.5 912.5 c 128,-1,20
 797 968 797 968 680 968 c 2,21,-1
 453 968 l 1,14,-1
EndSplineSet
Substitution2: "'c2sc' Capitals to Small Capitals lookup 5 subtable" Thorn.sc
EndChar

StartChar: germandbls
Encoding: 223 223 160
Width: 1330
GlyphClass: 2
Flags: W
LayerCount: 2
Fore
SplineSet
433 0 m 1,0,-1
 142 0 l 1,1,-1
 142 1062 l 2,2,3
 142 1242 142 1242 274.5 1347.5 c 128,-1,4
 407 1453 407 1453 634 1453 c 0,5,6
 849 1453 849 1453 984 1351 c 128,-1,7
 1119 1249 1119 1249 1119 1086 c 0,8,9
 1119 968 1119 968 1061.5 880.5 c 128,-1,10
 1004 793 1004 793 908 765 c 1,11,-1
 908 753 l 1,12,13
 1056 740 1056 740 1144.5 639 c 128,-1,14
 1233 538 1233 538 1233 387 c 0,15,16
 1233 202 1233 202 1106 93.5 c 128,-1,17
 979 -15 979 -15 760 -15 c 0,18,19
 646 -15 646 -15 582 1 c 1,20,-1
 582 233 l 1,21,22
 632 216 632 216 707 216 c 0,23,24
 814 216 814 216 875.5 268.5 c 128,-1,25
 937 321 937 321 937 410 c 0,26,27
 937 502 937 502 867 556 c 128,-1,28
 797 610 797 610 675 610 c 2,29,-1
 604 610 l 1,30,-1
 604 846 l 1,31,-1
 653 846 l 2,32,33
 738 846 738 846 787.5 898 c 128,-1,34
 837 950 837 950 837 1037 c 0,35,36
 837 1120 837 1120 783 1169.5 c 128,-1,37
 729 1219 729 1219 639 1219 c 0,38,39
 539 1219 539 1219 486 1163.5 c 128,-1,40
 433 1108 433 1108 433 1003 c 2,41,-1
 433 0 l 1,0,-1
EndSplineSet
Substitution2: "'smcp' Lowercase to Small Capitals lookup 6 subtable" germandbls.sc
EndChar

StartChar: agrave
Encoding: 224 224 161
Width: 1121
GlyphClass: 2
Flags: W
LayerCount: 2
Fore
SplineSet
509 194 m 0,0,1
 606 194 606 194 673.5 250.5 c 128,-1,2
 741 307 741 307 741 393 c 2,3,-1
 741 471 l 1,4,-1
 515 457 l 2,5,6
 433 451 433 451 388.5 416 c 128,-1,7
 344 381 344 381 344 324 c 0,8,9
 344 264 344 264 389 229 c 128,-1,10
 434 194 434 194 509 194 c 0,0,1
413 -17 m 0,11,12
 258 -17 258 -17 156 74 c 128,-1,13
 54 165 54 165 54 308 c 0,14,15
 54 454 54 454 162 537 c 128,-1,16
 270 620 270 620 471 632 c 2,17,-1
 741 648 l 1,18,-1
 741 719 l 2,19,20
 741 793 741 793 692.5 835 c 128,-1,21
 644 877 644 877 561 877 c 0,22,23
 481 877 481 877 430.5 841 c 128,-1,24
 380 805 380 805 369 744 c 1,25,-1
 102 744 l 1,26,27
 110 902 110 902 237 998.5 c 128,-1,28
 364 1095 364 1095 574 1095 c 0,29,30
 780 1095 780 1095 904 997 c 128,-1,31
 1028 899 1028 899 1028 737 c 2,32,-1
 1028 0 l 1,33,-1
 746 0 l 1,34,-1
 746 164 l 1,35,-1
 740 164 l 1,36,37
 696 80 696 80 606 31.5 c 128,-1,38
 516 -17 516 -17 413 -17 c 0,11,12
685 1223 m 1,39,-1
 452 1223 l 1,40,-1
 196 1533 l 1,41,-1
 464 1533 l 1,42,-1
 685 1223 l 1,39,-1
EndSplineSet
Substitution2: "'cv07' Character Variants 07 lookup 27 subtable" agrave.1
Substitution2: "'ss07' Style Set 7 lookup 20 subtable" agrave.1
Substitution2: "'smcp' Lowercase to Small Capitals lookup 6 subtable" Agrave.sc
EndChar

StartChar: aacute
Encoding: 225 225 162
Width: 1121
GlyphClass: 2
Flags: W
LayerCount: 2
Fore
SplineSet
509 194 m 0,0,1
 606 194 606 194 673.5 250.5 c 128,-1,2
 741 307 741 307 741 393 c 2,3,-1
 741 471 l 1,4,-1
 515 457 l 2,5,6
 433 451 433 451 388.5 416 c 128,-1,7
 344 381 344 381 344 324 c 0,8,9
 344 264 344 264 389 229 c 128,-1,10
 434 194 434 194 509 194 c 0,0,1
413 -17 m 0,11,12
 258 -17 258 -17 156 74 c 128,-1,13
 54 165 54 165 54 308 c 0,14,15
 54 454 54 454 162 537 c 128,-1,16
 270 620 270 620 471 632 c 2,17,-1
 741 648 l 1,18,-1
 741 719 l 2,19,20
 741 793 741 793 692.5 835 c 128,-1,21
 644 877 644 877 561 877 c 0,22,23
 481 877 481 877 430.5 841 c 128,-1,24
 380 805 380 805 369 744 c 1,25,-1
 102 744 l 1,26,27
 110 902 110 902 237 998.5 c 128,-1,28
 364 1095 364 1095 574 1095 c 0,29,30
 780 1095 780 1095 904 997 c 128,-1,31
 1028 899 1028 899 1028 737 c 2,32,-1
 1028 0 l 1,33,-1
 746 0 l 1,34,-1
 746 164 l 1,35,-1
 740 164 l 1,36,37
 696 80 696 80 606 31.5 c 128,-1,38
 516 -17 516 -17 413 -17 c 0,11,12
680 1223 m 1,39,-1
 447 1223 l 1,40,-1
 668 1533 l 1,41,-1
 936 1533 l 1,42,-1
 680 1223 l 1,39,-1
EndSplineSet
Substitution2: "'cv07' Character Variants 07 lookup 27 subtable" aacute.1
Substitution2: "'ss07' Style Set 7 lookup 20 subtable" aacute.1
Substitution2: "'smcp' Lowercase to Small Capitals lookup 6 subtable" Aacute.sc
EndChar

StartChar: acircumflex
Encoding: 226 226 163
Width: 1121
GlyphClass: 2
Flags: W
LayerCount: 2
Fore
SplineSet
509 194 m 0,0,1
 606 194 606 194 673.5 250.5 c 128,-1,2
 741 307 741 307 741 393 c 2,3,-1
 741 471 l 1,4,-1
 515 457 l 2,5,6
 433 451 433 451 388.5 416 c 128,-1,7
 344 381 344 381 344 324 c 0,8,9
 344 264 344 264 389 229 c 128,-1,10
 434 194 434 194 509 194 c 0,0,1
413 -17 m 0,11,12
 258 -17 258 -17 156 74 c 128,-1,13
 54 165 54 165 54 308 c 0,14,15
 54 454 54 454 162 537 c 128,-1,16
 270 620 270 620 471 632 c 2,17,-1
 741 648 l 1,18,-1
 741 719 l 2,19,20
 741 793 741 793 692.5 835 c 128,-1,21
 644 877 644 877 561 877 c 0,22,23
 481 877 481 877 430.5 841 c 128,-1,24
 380 805 380 805 369 744 c 1,25,-1
 102 744 l 1,26,27
 110 902 110 902 237 998.5 c 128,-1,28
 364 1095 364 1095 574 1095 c 0,29,30
 780 1095 780 1095 904 997 c 128,-1,31
 1028 899 1028 899 1028 737 c 2,32,-1
 1028 0 l 1,33,-1
 746 0 l 1,34,-1
 746 164 l 1,35,-1
 740 164 l 1,36,37
 696 80 696 80 606 31.5 c 128,-1,38
 516 -17 516 -17 413 -17 c 0,11,12
678 1531 m 1,39,-1
 941 1213 l 1,40,-1
 718 1213 l 1,41,-1
 569 1399 l 1,42,-1
 562 1399 l 1,43,-1
 414 1213 l 1,44,-1
 190 1213 l 1,45,-1
 454 1531 l 1,46,-1
 678 1531 l 1,39,-1
EndSplineSet
Substitution2: "'cv07' Character Variants 07 lookup 27 subtable" acircumflex.1
Substitution2: "'ss07' Style Set 7 lookup 20 subtable" acircumflex.1
Substitution2: "'smcp' Lowercase to Small Capitals lookup 6 subtable" Acircumflex.sc
EndChar

StartChar: atilde
Encoding: 227 227 164
Width: 1121
GlyphClass: 2
Flags: W
LayerCount: 2
Fore
SplineSet
509 194 m 0,0,1
 606 194 606 194 673.5 250.5 c 128,-1,2
 741 307 741 307 741 393 c 2,3,-1
 741 471 l 1,4,-1
 515 457 l 2,5,6
 433 451 433 451 388.5 416 c 128,-1,7
 344 381 344 381 344 324 c 0,8,9
 344 264 344 264 389 229 c 128,-1,10
 434 194 434 194 509 194 c 0,0,1
413 -17 m 0,11,12
 258 -17 258 -17 156 74 c 128,-1,13
 54 165 54 165 54 308 c 0,14,15
 54 454 54 454 162 537 c 128,-1,16
 270 620 270 620 471 632 c 2,17,-1
 741 648 l 1,18,-1
 741 719 l 2,19,20
 741 793 741 793 692.5 835 c 128,-1,21
 644 877 644 877 561 877 c 0,22,23
 481 877 481 877 430.5 841 c 128,-1,24
 380 805 380 805 369 744 c 1,25,-1
 102 744 l 1,26,27
 110 902 110 902 237 998.5 c 128,-1,28
 364 1095 364 1095 574 1095 c 0,29,30
 780 1095 780 1095 904 997 c 128,-1,31
 1028 899 1028 899 1028 737 c 2,32,-1
 1028 0 l 1,33,-1
 746 0 l 1,34,-1
 746 164 l 1,35,-1
 740 164 l 1,36,37
 696 80 696 80 606 31.5 c 128,-1,38
 516 -17 516 -17 413 -17 c 0,11,12
710 1218 m 0,39,40
 671 1218 671 1218 636.5 1232 c 128,-1,41
 602 1246 602 1246 577.5 1266 c 128,-1,42
 553 1286 553 1286 531 1306 c 128,-1,43
 509 1326 509 1326 487 1340 c 128,-1,44
 465 1354 465 1354 445 1354 c 0,45,46
 411 1354 411 1354 393 1321 c 128,-1,47
 375 1288 375 1288 375 1232 c 1,48,-1
 216 1232 l 1,49,50
 216 1360 216 1360 278 1433 c 128,-1,51
 340 1506 340 1506 436 1506 c 0,52,53
 476 1506 476 1506 511.5 1492 c 128,-1,54
 547 1478 547 1478 571.5 1458 c 128,-1,55
 596 1438 596 1438 617.5 1418.5 c 128,-1,56
 639 1399 639 1399 660.5 1385 c 128,-1,57
 682 1371 682 1371 701 1371 c 0,58,59
 767 1371 767 1371 770 1495 c 1,60,-1
 929 1495 l 1,61,62
 929 1369 929 1369 866.5 1293.5 c 128,-1,63
 804 1218 804 1218 710 1218 c 0,39,40
EndSplineSet
Substitution2: "'cv07' Character Variants 07 lookup 27 subtable" atilde.1
Substitution2: "'ss07' Style Set 7 lookup 20 subtable" atilde.1
Substitution2: "'smcp' Lowercase to Small Capitals lookup 6 subtable" Atilde.sc
EndChar

StartChar: adieresis
Encoding: 228 228 165
Width: 1121
GlyphClass: 2
Flags: W
LayerCount: 2
Fore
SplineSet
509 194 m 0,0,1
 606 194 606 194 673.5 250.5 c 128,-1,2
 741 307 741 307 741 393 c 2,3,-1
 741 471 l 1,4,-1
 515 457 l 2,5,6
 433 451 433 451 388.5 416 c 128,-1,7
 344 381 344 381 344 324 c 0,8,9
 344 264 344 264 389 229 c 128,-1,10
 434 194 434 194 509 194 c 0,0,1
413 -17 m 0,11,12
 258 -17 258 -17 156 74 c 128,-1,13
 54 165 54 165 54 308 c 0,14,15
 54 454 54 454 162 537 c 128,-1,16
 270 620 270 620 471 632 c 2,17,-1
 741 648 l 1,18,-1
 741 719 l 2,19,20
 741 793 741 793 692.5 835 c 128,-1,21
 644 877 644 877 561 877 c 0,22,23
 481 877 481 877 430.5 841 c 128,-1,24
 380 805 380 805 369 744 c 1,25,-1
 102 744 l 1,26,27
 110 902 110 902 237 998.5 c 128,-1,28
 364 1095 364 1095 574 1095 c 0,29,30
 780 1095 780 1095 904 997 c 128,-1,31
 1028 899 1028 899 1028 737 c 2,32,-1
 1028 0 l 1,33,-1
 746 0 l 1,34,-1
 746 164 l 1,35,-1
 740 164 l 1,36,37
 696 80 696 80 606 31.5 c 128,-1,38
 516 -17 516 -17 413 -17 c 0,11,12
362 1220 m 128,-1,40
 305 1220 305 1220 266.5 1258 c 128,-1,41
 228 1296 228 1296 228 1350 c 128,-1,42
 228 1404 228 1404 266.5 1442 c 128,-1,43
 305 1480 305 1480 362 1480 c 128,-1,44
 419 1480 419 1480 457.5 1442 c 128,-1,45
 496 1404 496 1404 496 1350 c 128,-1,46
 496 1296 496 1296 457.5 1258 c 128,-1,39
 419 1220 419 1220 362 1220 c 128,-1,40
770 1220 m 128,-1,48
 713 1220 713 1220 674.5 1258 c 128,-1,49
 636 1296 636 1296 636 1350 c 128,-1,50
 636 1404 636 1404 674.5 1442 c 128,-1,51
 713 1480 713 1480 770 1480 c 128,-1,52
 827 1480 827 1480 865.5 1442 c 128,-1,53
 904 1404 904 1404 904 1350 c 128,-1,54
 904 1296 904 1296 865.5 1258 c 128,-1,47
 827 1220 827 1220 770 1220 c 128,-1,48
EndSplineSet
Substitution2: "'cv07' Character Variants 07 lookup 27 subtable" adieresis.1
Substitution2: "'ss07' Style Set 7 lookup 20 subtable" adieresis.1
Substitution2: "'smcp' Lowercase to Small Capitals lookup 6 subtable" Adieresis.sc
EndChar

StartChar: aring
Encoding: 229 229 166
Width: 1121
GlyphClass: 2
Flags: W
LayerCount: 2
Fore
SplineSet
509 194 m 0,0,1
 606 194 606 194 673.5 250.5 c 128,-1,2
 741 307 741 307 741 393 c 2,3,-1
 741 471 l 1,4,-1
 515 457 l 2,5,6
 433 451 433 451 388.5 416 c 128,-1,7
 344 381 344 381 344 324 c 0,8,9
 344 264 344 264 389 229 c 128,-1,10
 434 194 434 194 509 194 c 0,0,1
413 -17 m 0,11,12
 258 -17 258 -17 156 74 c 128,-1,13
 54 165 54 165 54 308 c 0,14,15
 54 454 54 454 162 537 c 128,-1,16
 270 620 270 620 471 632 c 2,17,-1
 741 648 l 1,18,-1
 741 719 l 2,19,20
 741 793 741 793 692.5 835 c 128,-1,21
 644 877 644 877 561 877 c 0,22,23
 481 877 481 877 430.5 841 c 128,-1,24
 380 805 380 805 369 744 c 1,25,-1
 102 744 l 1,26,27
 110 902 110 902 237 998.5 c 128,-1,28
 364 1095 364 1095 574 1095 c 0,29,30
 780 1095 780 1095 904 997 c 128,-1,31
 1028 899 1028 899 1028 737 c 2,32,-1
 1028 0 l 1,33,-1
 746 0 l 1,34,-1
 746 164 l 1,35,-1
 740 164 l 1,36,37
 696 80 696 80 606 31.5 c 128,-1,38
 516 -17 516 -17 413 -17 c 0,11,12
566 1174 m 128,-1,40
 477 1174 477 1174 413 1236.5 c 128,-1,41
 349 1299 349 1299 349 1387 c 128,-1,42
 349 1475 349 1475 413 1537.5 c 128,-1,43
 477 1600 477 1600 566 1600 c 128,-1,44
 655 1600 655 1600 719 1537.5 c 128,-1,45
 783 1475 783 1475 783 1387 c 128,-1,46
 783 1299 783 1299 719 1236.5 c 128,-1,39
 655 1174 655 1174 566 1174 c 128,-1,40
566 1293 m 128,-1,48
 605 1293 605 1293 633.5 1320.5 c 128,-1,49
 662 1348 662 1348 662 1387 c 128,-1,50
 662 1426 662 1426 633.5 1453.5 c 128,-1,51
 605 1481 605 1481 566 1481 c 128,-1,52
 527 1481 527 1481 499 1453.5 c 128,-1,53
 471 1426 471 1426 471 1387 c 128,-1,54
 471 1348 471 1348 499 1320.5 c 128,-1,47
 527 1293 527 1293 566 1293 c 128,-1,48
EndSplineSet
Substitution2: "'cv07' Character Variants 07 lookup 27 subtable" aring.1
Substitution2: "'ss07' Style Set 7 lookup 20 subtable" aring.1
Substitution2: "'smcp' Lowercase to Small Capitals lookup 6 subtable" Aring.sc
EndChar

StartChar: ae
Encoding: 230 230 167
Width: 1798
GlyphClass: 2
Flags: W
LayerCount: 2
Fore
SplineSet
1252 -23 m 0,0,1
 1119 -23 1119 -23 1014.5 31.5 c 128,-1,2
 910 86 910 86 859 181 c 1,3,-1
 850 181 l 1,4,5
 793 87 793 87 693 35 c 128,-1,6
 593 -17 593 -17 460 -17 c 0,7,8
 272 -17 272 -17 161.5 72.5 c 128,-1,9
 51 162 51 162 51 308 c 0,10,11
 51 453 51 453 160 536 c 128,-1,12
 269 619 269 619 475 630 c 2,13,-1
 741 645 l 1,14,-1
 741 704 l 2,15,16
 741 778 741 778 686.5 827.5 c 128,-1,17
 632 877 632 877 549 877 c 0,18,19
 470 877 470 877 417.5 839.5 c 128,-1,20
 365 802 365 802 358 743 c 1,21,-1
 95 743 l 1,22,23
 103 900 103 900 225.5 997.5 c 128,-1,24
 348 1095 348 1095 542 1095 c 0,25,26
 668 1095 668 1095 761.5 1052 c 128,-1,27
 855 1009 855 1009 899 934 c 1,28,-1
 907 934 l 1,29,30
 1021 1095 1021 1095 1260 1095 c 0,31,32
 1478 1095 1478 1095 1610 950 c 128,-1,33
 1742 805 1742 805 1742 558 c 2,34,-1
 1742 470 l 1,35,-1
 1012 470 l 1,36,-1
 1012 451 l 2,37,38
 1012 337 1012 337 1079.5 265 c 128,-1,39
 1147 193 1147 193 1256 193 c 0,40,41
 1333 193 1333 193 1389 229.5 c 128,-1,42
 1445 266 1445 266 1466 328 c 1,43,-1
 1734 328 l 1,44,45
 1710 170 1710 170 1578 73.5 c 128,-1,46
 1446 -23 1446 -23 1252 -23 c 0,0,1
1244 879 m 128,-1,48
 1149 879 1149 879 1086 814.5 c 128,-1,49
 1023 750 1023 750 1015 648 c 1,50,-1
 1461 648 l 1,51,52
 1457 753 1457 753 1398 816 c 128,-1,47
 1339 879 1339 879 1244 879 c 128,-1,48
501 190 m 0,53,54
 600 190 600 190 670.5 250 c 128,-1,55
 741 310 741 310 741 393 c 2,56,-1
 741 468 l 1,57,-1
 510 453 l 2,58,59
 425 447 425 447 377.5 413 c 128,-1,60
 330 379 330 379 330 323 c 0,61,62
 330 265 330 265 378.5 227.5 c 128,-1,63
 427 190 427 190 501 190 c 0,53,54
EndSplineSet
Substitution2: "'smcp' Lowercase to Small Capitals lookup 6 subtable" AE.sc
EndChar

StartChar: ccedilla
Encoding: 231 231 168
Width: 1116
GlyphClass: 2
Flags: W
LayerCount: 2
Fore
SplineSet
798 393 m 1,0,-1
 1070 393 l 1,1,2
 1060 221 1060 221 949 111 c 128,-1,3
 838 1 838 1 657 -19 c 1,4,-1
 615 -110 l 1,5,6
 701 -111 701 -111 752 -154.5 c 128,-1,7
 803 -198 803 -198 803 -274 c 0,8,9
 803 -363 803 -363 737 -411 c 128,-1,10
 671 -459 671 -459 555 -460 c 0,11,12
 458 -462 458 -462 413 -446 c 1,13,-1
 413 -324 l 1,14,15
 454 -336 454 -336 525 -336 c 0,16,17
 636 -336 636 -336 636 -282 c 0,18,19
 636 -252 636 -252 608 -239.5 c 128,-1,20
 580 -227 580 -227 513 -227 c 2,21,-1
 450 -227 l 1,22,-1
 450 -129 l 1,23,-1
 500 -18 l 1,24,25
 293 8 293 8 174.5 154 c 128,-1,26
 56 300 56 300 56 537 c 0,27,28
 56 794 56 794 198.5 944.5 c 128,-1,29
 341 1095 341 1095 582 1095 c 0,30,31
 796 1095 796 1095 927.5 977 c 128,-1,32
 1059 859 1059 859 1069 673 c 1,33,-1
 798 673 l 1,34,35
 785 760 785 760 729.5 813 c 128,-1,36
 674 866 674 866 586 866 c 0,37,38
 477 866 477 866 414.5 778.5 c 128,-1,39
 352 691 352 691 352 537 c 0,40,41
 352 380 352 380 414.5 293 c 128,-1,42
 477 206 477 206 587 206 c 0,43,44
 674 206 674 206 729 255.5 c 128,-1,45
 784 305 784 305 798 393 c 1,0,-1
EndSplineSet
Substitution2: "'smcp' Lowercase to Small Capitals lookup 6 subtable" Ccedilla.sc
EndChar

StartChar: egrave
Encoding: 232 232 169
Width: 1137
GlyphClass: 2
Flags: W
LayerCount: 2
Fore
SplineSet
576 879 m 0,0,1
 481 879 481 879 417.5 814 c 128,-1,2
 354 749 354 749 346 648 c 1,3,-1
 801 648 l 1,4,5
 796 751 796 751 734.5 815 c 128,-1,6
 673 879 673 879 576 879 c 0,0,1
805 328 m 1,7,-1
 1073 328 l 1,8,9
 1049 170 1049 170 915.5 73.5 c 128,-1,10
 782 -23 782 -23 584 -23 c 0,11,12
 337 -23 337 -23 196.5 125 c 128,-1,13
 56 273 56 273 56 531 c 0,14,15
 56 788 56 788 196 941.5 c 128,-1,16
 336 1095 336 1095 573 1095 c 0,17,18
 806 1095 806 1095 944 949 c 128,-1,19
 1082 803 1082 803 1082 558 c 2,20,-1
 1082 469 l 1,21,-1
 343 469 l 1,22,-1
 343 451 l 2,23,24
 343 336 343 336 410.5 264.5 c 128,-1,25
 478 193 478 193 589 193 c 0,26,27
 669 193 669 193 727 229.5 c 128,-1,28
 785 266 785 266 805 328 c 1,7,-1
692 1223 m 1,29,-1
 459 1223 l 1,30,-1
 203 1533 l 1,31,-1
 471 1533 l 1,32,-1
 692 1223 l 1,29,-1
EndSplineSet
Substitution2: "'smcp' Lowercase to Small Capitals lookup 6 subtable" Egrave.sc
EndChar

StartChar: eacute
Encoding: 233 233 170
Width: 1137
GlyphClass: 2
Flags: W
LayerCount: 2
Fore
SplineSet
576 879 m 0,0,1
 481 879 481 879 417.5 814 c 128,-1,2
 354 749 354 749 346 648 c 1,3,-1
 801 648 l 1,4,5
 796 751 796 751 734.5 815 c 128,-1,6
 673 879 673 879 576 879 c 0,0,1
805 328 m 1,7,-1
 1073 328 l 1,8,9
 1049 170 1049 170 915.5 73.5 c 128,-1,10
 782 -23 782 -23 584 -23 c 0,11,12
 337 -23 337 -23 196.5 125 c 128,-1,13
 56 273 56 273 56 531 c 0,14,15
 56 788 56 788 196 941.5 c 128,-1,16
 336 1095 336 1095 573 1095 c 0,17,18
 806 1095 806 1095 944 949 c 128,-1,19
 1082 803 1082 803 1082 558 c 2,20,-1
 1082 469 l 1,21,-1
 343 469 l 1,22,-1
 343 451 l 2,23,24
 343 336 343 336 410.5 264.5 c 128,-1,25
 478 193 478 193 589 193 c 0,26,27
 669 193 669 193 727 229.5 c 128,-1,28
 785 266 785 266 805 328 c 1,7,-1
687 1223 m 1,29,-1
 454 1223 l 1,30,-1
 675 1533 l 1,31,-1
 943 1533 l 1,32,-1
 687 1223 l 1,29,-1
EndSplineSet
Substitution2: "'smcp' Lowercase to Small Capitals lookup 6 subtable" Eacute.sc
EndChar

StartChar: ecircumflex
Encoding: 234 234 171
Width: 1137
GlyphClass: 2
Flags: W
LayerCount: 2
Fore
SplineSet
576 879 m 0,0,1
 481 879 481 879 417.5 814 c 128,-1,2
 354 749 354 749 346 648 c 1,3,-1
 801 648 l 1,4,5
 796 751 796 751 734.5 815 c 128,-1,6
 673 879 673 879 576 879 c 0,0,1
805 328 m 1,7,-1
 1073 328 l 1,8,9
 1049 170 1049 170 915.5 73.5 c 128,-1,10
 782 -23 782 -23 584 -23 c 0,11,12
 337 -23 337 -23 196.5 125 c 128,-1,13
 56 273 56 273 56 531 c 0,14,15
 56 788 56 788 196 941.5 c 128,-1,16
 336 1095 336 1095 573 1095 c 0,17,18
 806 1095 806 1095 944 949 c 128,-1,19
 1082 803 1082 803 1082 558 c 2,20,-1
 1082 469 l 1,21,-1
 343 469 l 1,22,-1
 343 451 l 2,23,24
 343 336 343 336 410.5 264.5 c 128,-1,25
 478 193 478 193 589 193 c 0,26,27
 669 193 669 193 727 229.5 c 128,-1,28
 785 266 785 266 805 328 c 1,7,-1
685 1531 m 1,29,-1
 948 1213 l 1,30,-1
 725 1213 l 1,31,-1
 576 1399 l 1,32,-1
 569 1399 l 1,33,-1
 421 1213 l 1,34,-1
 197 1213 l 1,35,-1
 461 1531 l 1,36,-1
 685 1531 l 1,29,-1
EndSplineSet
Substitution2: "'smcp' Lowercase to Small Capitals lookup 6 subtable" Ecircumflex.sc
EndChar

StartChar: edieresis
Encoding: 235 235 172
Width: 1137
GlyphClass: 2
Flags: W
LayerCount: 2
Fore
SplineSet
576 879 m 0,0,1
 481 879 481 879 417.5 814 c 128,-1,2
 354 749 354 749 346 648 c 1,3,-1
 801 648 l 1,4,5
 796 751 796 751 734.5 815 c 128,-1,6
 673 879 673 879 576 879 c 0,0,1
805 328 m 1,7,-1
 1073 328 l 1,8,9
 1049 170 1049 170 915.5 73.5 c 128,-1,10
 782 -23 782 -23 584 -23 c 0,11,12
 337 -23 337 -23 196.5 125 c 128,-1,13
 56 273 56 273 56 531 c 0,14,15
 56 788 56 788 196 941.5 c 128,-1,16
 336 1095 336 1095 573 1095 c 0,17,18
 806 1095 806 1095 944 949 c 128,-1,19
 1082 803 1082 803 1082 558 c 2,20,-1
 1082 469 l 1,21,-1
 343 469 l 1,22,-1
 343 451 l 2,23,24
 343 336 343 336 410.5 264.5 c 128,-1,25
 478 193 478 193 589 193 c 0,26,27
 669 193 669 193 727 229.5 c 128,-1,28
 785 266 785 266 805 328 c 1,7,-1
369 1220 m 128,-1,30
 312 1220 312 1220 273.5 1258 c 128,-1,31
 235 1296 235 1296 235 1350 c 128,-1,32
 235 1404 235 1404 273.5 1442 c 128,-1,33
 312 1480 312 1480 369 1480 c 128,-1,34
 426 1480 426 1480 464.5 1442 c 128,-1,35
 503 1404 503 1404 503 1350 c 128,-1,36
 503 1296 503 1296 464.5 1258 c 128,-1,29
 426 1220 426 1220 369 1220 c 128,-1,30
777 1220 m 128,-1,38
 720 1220 720 1220 681.5 1258 c 128,-1,39
 643 1296 643 1296 643 1350 c 128,-1,40
 643 1404 643 1404 681.5 1442 c 128,-1,41
 720 1480 720 1480 777 1480 c 128,-1,42
 834 1480 834 1480 872.5 1442 c 128,-1,43
 911 1404 911 1404 911 1350 c 128,-1,44
 911 1296 911 1296 872.5 1258 c 128,-1,37
 834 1220 834 1220 777 1220 c 128,-1,38
EndSplineSet
Substitution2: "'smcp' Lowercase to Small Capitals lookup 6 subtable" Edieresis.sc
EndChar

StartChar: igrave
Encoding: 236 236 173
Width: 491
GlyphClass: 2
Flags: W
LayerCount: 2
Fore
SplineSet
100 0 m 1,0,-1
 100 1072 l 1,1,-1
 392 1072 l 1,2,-1
 392 0 l 1,3,-1
 100 0 l 1,0,-1
365 1223 m 1,4,-1
 132 1223 l 1,5,-1
 -124 1533 l 1,6,-1
 144 1533 l 1,7,-1
 365 1223 l 1,4,-1
EndSplineSet
Substitution2: "'smcp' Lowercase to Small Capitals lookup 6 subtable" Igrave.sc
EndChar

StartChar: iacute
Encoding: 237 237 174
Width: 491
GlyphClass: 2
Flags: W
LayerCount: 2
Fore
SplineSet
100 0 m 1,0,-1
 100 1072 l 1,1,-1
 392 1072 l 1,2,-1
 392 0 l 1,3,-1
 100 0 l 1,0,-1
360 1223 m 1,4,-1
 127 1223 l 1,5,-1
 348 1533 l 1,6,-1
 616 1533 l 1,7,-1
 360 1223 l 1,4,-1
EndSplineSet
Substitution2: "'smcp' Lowercase to Small Capitals lookup 6 subtable" Iacute.sc
EndChar

StartChar: icircumflex
Encoding: 238 238 175
Width: 491
GlyphClass: 2
Flags: W
LayerCount: 2
Fore
SplineSet
100 0 m 1,0,-1
 100 1072 l 1,1,-1
 392 1072 l 1,2,-1
 392 0 l 1,3,-1
 100 0 l 1,0,-1
358 1531 m 1,4,-1
 621 1213 l 1,5,-1
 398 1213 l 1,6,-1
 249 1399 l 1,7,-1
 242 1399 l 1,8,-1
 94 1213 l 1,9,-1
 -130 1213 l 1,10,-1
 134 1531 l 1,11,-1
 358 1531 l 1,4,-1
EndSplineSet
Substitution2: "'smcp' Lowercase to Small Capitals lookup 6 subtable" Icircumflex.sc
EndChar

StartChar: idieresis
Encoding: 239 239 176
Width: 491
GlyphClass: 2
Flags: W
LayerCount: 2
Fore
SplineSet
100 0 m 1,0,-1
 100 1072 l 1,1,-1
 392 1072 l 1,2,-1
 392 0 l 1,3,-1
 100 0 l 1,0,-1
42 1220 m 128,-1,5
 -15 1220 -15 1220 -53.5 1258 c 128,-1,6
 -92 1296 -92 1296 -92 1350 c 128,-1,7
 -92 1404 -92 1404 -53.5 1442 c 128,-1,8
 -15 1480 -15 1480 42 1480 c 128,-1,9
 99 1480 99 1480 137.5 1442 c 128,-1,10
 176 1404 176 1404 176 1350 c 128,-1,11
 176 1296 176 1296 137.5 1258 c 128,-1,4
 99 1220 99 1220 42 1220 c 128,-1,5
450 1220 m 128,-1,13
 393 1220 393 1220 354.5 1258 c 128,-1,14
 316 1296 316 1296 316 1350 c 128,-1,15
 316 1404 316 1404 354.5 1442 c 128,-1,16
 393 1480 393 1480 450 1480 c 128,-1,17
 507 1480 507 1480 545.5 1442 c 128,-1,18
 584 1404 584 1404 584 1350 c 128,-1,19
 584 1296 584 1296 545.5 1258 c 128,-1,12
 507 1220 507 1220 450 1220 c 128,-1,13
EndSplineSet
Substitution2: "'smcp' Lowercase to Small Capitals lookup 6 subtable" Idieresis.sc
EndChar

StartChar: eth
Encoding: 240 240 177
Width: 1203
GlyphClass: 2
Flags: W
LayerCount: 2
Fore
SplineSet
591 -17 m 0,0,1
 350 -17 350 -17 207 126.5 c 128,-1,2
 64 270 64 270 64 521 c 0,3,4
 64 754 64 754 189 889 c 128,-1,5
 314 1024 314 1024 515 1024 c 0,6,7
 599 1024 599 1024 670.5 990.5 c 128,-1,8
 742 957 742 957 780 901 c 1,9,-1
 797 901 l 1,10,11
 777 966 777 966 729.5 1043 c 128,-1,12
 682 1120 682 1120 631 1176 c 1,13,-1
 354 1084 l 1,14,-1
 298 1222 l 1,15,-1
 520 1296 l 1,16,17
 447 1361 447 1361 282 1475 c 1,18,-1
 646 1475 l 1,19,20
 709 1426 709 1426 759 1376 c 1,21,-1
 1018 1463 l 1,22,-1
 1075 1324 l 1,23,-1
 879 1259 l 1,24,25
 1122 976 1122 976 1122 587 c 0,26,27
 1122 303 1122 303 977.5 143 c 128,-1,28
 833 -17 833 -17 591 -17 c 0,0,1
598 821 m 0,29,30
 488 821 488 821 425.5 740.5 c 128,-1,31
 363 660 363 660 363 519 c 0,32,33
 363 380 363 380 426 299 c 128,-1,34
 489 218 489 218 598 218 c 128,-1,35
 707 218 707 218 770.5 298.5 c 128,-1,36
 834 379 834 379 834 519 c 0,37,38
 834 658 834 658 770 739.5 c 128,-1,39
 706 821 706 821 598 821 c 0,29,30
EndSplineSet
Substitution2: "'smcp' Lowercase to Small Capitals lookup 6 subtable" Eth.sc
EndChar

StartChar: ntilde
Encoding: 241 241 178
Width: 1180
GlyphClass: 2
Flags: W
LayerCount: 2
Fore
SplineSet
95 0 m 1,0,-1
 95 1072 l 1,1,-1
 377 1072 l 1,2,-1
 377 881 l 1,3,-1
 383 881 l 1,4,5
 427 983 427 983 511.5 1037.5 c 128,-1,6
 596 1092 596 1092 718 1092 c 0,7,8
 896 1092 896 1092 993 986 c 128,-1,9
 1090 880 1090 880 1090 691 c 2,10,-1
 1090 0 l 1,11,-1
 798 0 l 1,12,-1
 798 630 l 2,13,14
 798 736 798 736 748 793 c 128,-1,15
 698 850 698 850 601 850 c 128,-1,16
 504 850 504 850 445.5 785 c 128,-1,17
 387 720 387 720 387 615 c 2,18,-1
 387 0 l 1,19,-1
 95 0 l 1,0,-1
736 1218 m 0,20,21
 697 1218 697 1218 662.5 1232 c 128,-1,22
 628 1246 628 1246 603.5 1266 c 128,-1,23
 579 1286 579 1286 557 1306 c 128,-1,24
 535 1326 535 1326 513 1340 c 128,-1,25
 491 1354 491 1354 471 1354 c 0,26,27
 437 1354 437 1354 419 1321 c 128,-1,28
 401 1288 401 1288 401 1232 c 1,29,-1
 242 1232 l 1,30,31
 242 1360 242 1360 304 1433 c 128,-1,32
 366 1506 366 1506 462 1506 c 0,33,34
 502 1506 502 1506 537.5 1492 c 128,-1,35
 573 1478 573 1478 597.5 1458 c 128,-1,36
 622 1438 622 1438 643.5 1418.5 c 128,-1,37
 665 1399 665 1399 686.5 1385 c 128,-1,38
 708 1371 708 1371 727 1371 c 0,39,40
 793 1371 793 1371 796 1495 c 1,41,-1
 955 1495 l 1,42,43
 955 1369 955 1369 892.5 1293.5 c 128,-1,44
 830 1218 830 1218 736 1218 c 0,20,21
EndSplineSet
Substitution2: "'smcp' Lowercase to Small Capitals lookup 6 subtable" Ntilde.sc
EndChar

StartChar: ograve
Encoding: 242 242 179
Width: 1173
GlyphClass: 2
Flags: W
LayerCount: 2
Fore
SplineSet
587 -23 m 128,-1,1
 342 -23 342 -23 199 126 c 128,-1,2
 56 275 56 275 56 537 c 0,3,4
 56 796 56 796 200.5 945.5 c 128,-1,5
 345 1095 345 1095 587 1095 c 0,6,7
 830 1095 830 1095 974 945.5 c 128,-1,8
 1118 796 1118 796 1118 537 c 0,9,10
 1118 274 1118 274 975 125.5 c 128,-1,0
 832 -23 832 -23 587 -23 c 128,-1,1
587 200 m 0,11,12
 695 200 695 200 758 288 c 128,-1,13
 821 376 821 376 821 536 c 0,14,15
 821 694 821 694 758 783 c 128,-1,16
 695 872 695 872 587 872 c 128,-1,17
 479 872 479 872 415.5 783 c 128,-1,18
 352 694 352 694 352 536 c 0,19,20
 352 376 352 376 415 288 c 128,-1,21
 478 200 478 200 587 200 c 0,11,12
706 1223 m 1,22,-1
 473 1223 l 1,23,-1
 217 1533 l 1,24,-1
 485 1533 l 1,25,-1
 706 1223 l 1,22,-1
EndSplineSet
Substitution2: "'smcp' Lowercase to Small Capitals lookup 6 subtable" Ograve.sc
EndChar

StartChar: oacute
Encoding: 243 243 180
Width: 1173
GlyphClass: 2
Flags: W
LayerCount: 2
Fore
SplineSet
587 -23 m 128,-1,1
 342 -23 342 -23 199 126 c 128,-1,2
 56 275 56 275 56 537 c 0,3,4
 56 796 56 796 200.5 945.5 c 128,-1,5
 345 1095 345 1095 587 1095 c 0,6,7
 830 1095 830 1095 974 945.5 c 128,-1,8
 1118 796 1118 796 1118 537 c 0,9,10
 1118 274 1118 274 975 125.5 c 128,-1,0
 832 -23 832 -23 587 -23 c 128,-1,1
587 200 m 0,11,12
 695 200 695 200 758 288 c 128,-1,13
 821 376 821 376 821 536 c 0,14,15
 821 694 821 694 758 783 c 128,-1,16
 695 872 695 872 587 872 c 128,-1,17
 479 872 479 872 415.5 783 c 128,-1,18
 352 694 352 694 352 536 c 0,19,20
 352 376 352 376 415 288 c 128,-1,21
 478 200 478 200 587 200 c 0,11,12
701 1223 m 1,22,-1
 468 1223 l 1,23,-1
 689 1533 l 1,24,-1
 957 1533 l 1,25,-1
 701 1223 l 1,22,-1
EndSplineSet
Substitution2: "'smcp' Lowercase to Small Capitals lookup 6 subtable" Oacute.sc
EndChar

StartChar: ocircumflex
Encoding: 244 244 181
Width: 1173
GlyphClass: 2
Flags: W
LayerCount: 2
Fore
SplineSet
587 -23 m 128,-1,1
 342 -23 342 -23 199 126 c 128,-1,2
 56 275 56 275 56 537 c 0,3,4
 56 796 56 796 200.5 945.5 c 128,-1,5
 345 1095 345 1095 587 1095 c 0,6,7
 830 1095 830 1095 974 945.5 c 128,-1,8
 1118 796 1118 796 1118 537 c 0,9,10
 1118 274 1118 274 975 125.5 c 128,-1,0
 832 -23 832 -23 587 -23 c 128,-1,1
587 200 m 0,11,12
 695 200 695 200 758 288 c 128,-1,13
 821 376 821 376 821 536 c 0,14,15
 821 694 821 694 758 783 c 128,-1,16
 695 872 695 872 587 872 c 128,-1,17
 479 872 479 872 415.5 783 c 128,-1,18
 352 694 352 694 352 536 c 0,19,20
 352 376 352 376 415 288 c 128,-1,21
 478 200 478 200 587 200 c 0,11,12
699 1531 m 1,22,-1
 962 1213 l 1,23,-1
 739 1213 l 1,24,-1
 590 1399 l 1,25,-1
 583 1399 l 1,26,-1
 435 1213 l 1,27,-1
 211 1213 l 1,28,-1
 475 1531 l 1,29,-1
 699 1531 l 1,22,-1
EndSplineSet
Substitution2: "'smcp' Lowercase to Small Capitals lookup 6 subtable" Ocircumflex.sc
EndChar

StartChar: otilde
Encoding: 245 245 182
Width: 1173
GlyphClass: 2
Flags: W
LayerCount: 2
Fore
SplineSet
587 -23 m 128,-1,1
 342 -23 342 -23 199 126 c 128,-1,2
 56 275 56 275 56 537 c 0,3,4
 56 796 56 796 200.5 945.5 c 128,-1,5
 345 1095 345 1095 587 1095 c 0,6,7
 830 1095 830 1095 974 945.5 c 128,-1,8
 1118 796 1118 796 1118 537 c 0,9,10
 1118 274 1118 274 975 125.5 c 128,-1,0
 832 -23 832 -23 587 -23 c 128,-1,1
587 200 m 0,11,12
 695 200 695 200 758 288 c 128,-1,13
 821 376 821 376 821 536 c 0,14,15
 821 694 821 694 758 783 c 128,-1,16
 695 872 695 872 587 872 c 128,-1,17
 479 872 479 872 415.5 783 c 128,-1,18
 352 694 352 694 352 536 c 0,19,20
 352 376 352 376 415 288 c 128,-1,21
 478 200 478 200 587 200 c 0,11,12
731 1218 m 0,22,23
 692 1218 692 1218 657.5 1232 c 128,-1,24
 623 1246 623 1246 598.5 1266 c 128,-1,25
 574 1286 574 1286 552 1306 c 128,-1,26
 530 1326 530 1326 508 1340 c 128,-1,27
 486 1354 486 1354 466 1354 c 0,28,29
 432 1354 432 1354 414 1321 c 128,-1,30
 396 1288 396 1288 396 1232 c 1,31,-1
 237 1232 l 1,32,33
 237 1360 237 1360 299 1433 c 128,-1,34
 361 1506 361 1506 457 1506 c 0,35,36
 497 1506 497 1506 532.5 1492 c 128,-1,37
 568 1478 568 1478 592.5 1458 c 128,-1,38
 617 1438 617 1438 638.5 1418.5 c 128,-1,39
 660 1399 660 1399 681.5 1385 c 128,-1,40
 703 1371 703 1371 722 1371 c 0,41,42
 788 1371 788 1371 791 1495 c 1,43,-1
 950 1495 l 1,44,45
 950 1369 950 1369 887.5 1293.5 c 128,-1,46
 825 1218 825 1218 731 1218 c 0,22,23
EndSplineSet
Substitution2: "'smcp' Lowercase to Small Capitals lookup 6 subtable" Otilde.sc
EndChar

StartChar: odieresis
Encoding: 246 246 183
Width: 1173
GlyphClass: 2
Flags: W
LayerCount: 2
Fore
SplineSet
587 -23 m 128,-1,1
 342 -23 342 -23 199 126 c 128,-1,2
 56 275 56 275 56 537 c 0,3,4
 56 796 56 796 200.5 945.5 c 128,-1,5
 345 1095 345 1095 587 1095 c 0,6,7
 830 1095 830 1095 974 945.5 c 128,-1,8
 1118 796 1118 796 1118 537 c 0,9,10
 1118 274 1118 274 975 125.5 c 128,-1,0
 832 -23 832 -23 587 -23 c 128,-1,1
587 200 m 0,11,12
 695 200 695 200 758 288 c 128,-1,13
 821 376 821 376 821 536 c 0,14,15
 821 694 821 694 758 783 c 128,-1,16
 695 872 695 872 587 872 c 128,-1,17
 479 872 479 872 415.5 783 c 128,-1,18
 352 694 352 694 352 536 c 0,19,20
 352 376 352 376 415 288 c 128,-1,21
 478 200 478 200 587 200 c 0,11,12
383 1220 m 128,-1,23
 326 1220 326 1220 287.5 1258 c 128,-1,24
 249 1296 249 1296 249 1350 c 128,-1,25
 249 1404 249 1404 287.5 1442 c 128,-1,26
 326 1480 326 1480 383 1480 c 128,-1,27
 440 1480 440 1480 478.5 1442 c 128,-1,28
 517 1404 517 1404 517 1350 c 128,-1,29
 517 1296 517 1296 478.5 1258 c 128,-1,22
 440 1220 440 1220 383 1220 c 128,-1,23
791 1220 m 128,-1,31
 734 1220 734 1220 695.5 1258 c 128,-1,32
 657 1296 657 1296 657 1350 c 128,-1,33
 657 1404 657 1404 695.5 1442 c 128,-1,34
 734 1480 734 1480 791 1480 c 128,-1,35
 848 1480 848 1480 886.5 1442 c 128,-1,36
 925 1404 925 1404 925 1350 c 128,-1,37
 925 1296 925 1296 886.5 1258 c 128,-1,30
 848 1220 848 1220 791 1220 c 128,-1,31
EndSplineSet
Substitution2: "'smcp' Lowercase to Small Capitals lookup 6 subtable" Odieresis.sc
EndChar

StartChar: divide
Encoding: 247 247 184
Width: 1326
GlyphClass: 2
Flags: W
LayerCount: 2
Fore
SplineSet
664 810 m 128,-1,1
 590 810 590 810 543.5 854 c 128,-1,2
 497 898 497 898 497 968 c 0,3,4
 497 1039 497 1039 543.5 1083 c 128,-1,5
 590 1127 590 1127 664 1127 c 128,-1,6
 738 1127 738 1127 784.5 1083 c 128,-1,7
 831 1039 831 1039 831 968 c 0,8,9
 831 898 831 898 784.5 854 c 128,-1,0
 738 810 738 810 664 810 c 128,-1,1
664 32 m 128,-1,11
 590 32 590 32 543.5 76 c 128,-1,12
 497 120 497 120 497 190 c 0,13,14
 497 261 497 261 543.5 305 c 128,-1,15
 590 349 590 349 664 349 c 128,-1,16
 738 349 738 349 784.5 305 c 128,-1,17
 831 261 831 261 831 190 c 0,18,19
 831 120 831 120 784.5 76 c 128,-1,10
 738 32 738 32 664 32 c 128,-1,11
1203 470 m 1,20,-1
 124 470 l 1,21,-1
 124 688 l 1,22,-1
 1203 688 l 1,23,-1
 1203 470 l 1,20,-1
EndSplineSet
Substitution2: "'case' Case-Sensitive Forms lookup 7 subtable" divide.uc
Substitution2: "'smcp' Lowercase to Small Capitals lookup 6 subtable" divide.sc
Substitution2: "'c2sc' Capitals to Small Capitals lookup 5 subtable" divide.sc
EndChar

StartChar: oslash
Encoding: 248 248 185
Width: 1173
GlyphClass: 2
Flags: W
LayerCount: 2
Fore
SplineSet
786 733 m 1,0,-1
 473 232 l 1,1,2
 523 200 523 200 587 200 c 0,3,4
 695 200 695 200 758 288 c 128,-1,5
 821 376 821 376 821 536 c 0,6,7
 821 652 821 652 786 733 c 1,0,-1
393 325 m 1,8,-1
 710 833 l 1,9,10
 659 872 659 872 587 872 c 0,11,12
 479 872 479 872 415.5 783 c 128,-1,13
 352 694 352 694 352 536 c 0,14,15
 352 410 352 410 393 325 c 1,8,-1
1004 1082 m 1,16,-1
 939 978 l 1,17,18
 1118 827 1118 827 1118 537 c 0,19,20
 1118 274 1118 274 975 125.5 c 128,-1,21
 832 -23 832 -23 587 -23 c 0,22,23
 450 -23 450 -23 344 25 c 1,24,-1
 285 -70 l 1,25,-1
 185 -9 l 1,26,-1
 244 85 l 1,27,28
 56 234 56 234 56 537 c 0,29,30
 56 796 56 796 200.5 945.5 c 128,-1,31
 345 1095 345 1095 587 1095 c 0,32,33
 729 1095 729 1095 840 1042 c 1,34,-1
 901 1139 l 1,35,-1
 1004 1082 l 1,16,-1
EndSplineSet
Substitution2: "'smcp' Lowercase to Small Capitals lookup 6 subtable" Oslash.sc
EndChar

StartChar: ugrave
Encoding: 249 249 186
Width: 1180
GlyphClass: 2
Flags: W
LayerCount: 2
Fore
SplineSet
1085 1072 m 1,0,-1
 1085 0 l 1,1,-1
 803 0 l 1,2,-1
 803 193 l 1,3,-1
 797 193 l 1,4,5
 713 -20 713 -20 476 -20 c 0,6,7
 300 -20 300 -20 195 87.5 c 128,-1,8
 90 195 90 195 90 381 c 2,9,-1
 90 1072 l 1,10,-1
 382 1072 l 1,11,-1
 382 442 l 2,12,13
 382 335 382 335 433.5 279 c 128,-1,14
 485 223 485 223 582 223 c 128,-1,15
 679 223 679 223 736 287 c 128,-1,16
 793 351 793 351 793 458 c 2,17,-1
 793 1072 l 1,18,-1
 1085 1072 l 1,0,-1
708 1223 m 1,19,-1
 475 1223 l 1,20,-1
 219 1533 l 1,21,-1
 487 1533 l 1,22,-1
 708 1223 l 1,19,-1
EndSplineSet
Substitution2: "'smcp' Lowercase to Small Capitals lookup 6 subtable" Ugrave.sc
EndChar

StartChar: uacute
Encoding: 250 250 187
Width: 1180
GlyphClass: 2
Flags: W
LayerCount: 2
Fore
SplineSet
1085 1072 m 1,0,-1
 1085 0 l 1,1,-1
 803 0 l 1,2,-1
 803 193 l 1,3,-1
 797 193 l 1,4,5
 713 -20 713 -20 476 -20 c 0,6,7
 300 -20 300 -20 195 87.5 c 128,-1,8
 90 195 90 195 90 381 c 2,9,-1
 90 1072 l 1,10,-1
 382 1072 l 1,11,-1
 382 442 l 2,12,13
 382 335 382 335 433.5 279 c 128,-1,14
 485 223 485 223 582 223 c 128,-1,15
 679 223 679 223 736 287 c 128,-1,16
 793 351 793 351 793 458 c 2,17,-1
 793 1072 l 1,18,-1
 1085 1072 l 1,0,-1
703 1223 m 1,19,-1
 470 1223 l 1,20,-1
 691 1533 l 1,21,-1
 959 1533 l 1,22,-1
 703 1223 l 1,19,-1
EndSplineSet
Substitution2: "'smcp' Lowercase to Small Capitals lookup 6 subtable" Uacute.sc
EndChar

StartChar: ucircumflex
Encoding: 251 251 188
Width: 1180
GlyphClass: 2
Flags: W
LayerCount: 2
Fore
SplineSet
1085 1072 m 1,0,-1
 1085 0 l 1,1,-1
 803 0 l 1,2,-1
 803 193 l 1,3,-1
 797 193 l 1,4,5
 713 -20 713 -20 476 -20 c 0,6,7
 300 -20 300 -20 195 87.5 c 128,-1,8
 90 195 90 195 90 381 c 2,9,-1
 90 1072 l 1,10,-1
 382 1072 l 1,11,-1
 382 442 l 2,12,13
 382 335 382 335 433.5 279 c 128,-1,14
 485 223 485 223 582 223 c 128,-1,15
 679 223 679 223 736 287 c 128,-1,16
 793 351 793 351 793 458 c 2,17,-1
 793 1072 l 1,18,-1
 1085 1072 l 1,0,-1
701 1531 m 1,19,-1
 964 1213 l 1,20,-1
 741 1213 l 1,21,-1
 592 1399 l 1,22,-1
 585 1399 l 1,23,-1
 437 1213 l 1,24,-1
 213 1213 l 1,25,-1
 477 1531 l 1,26,-1
 701 1531 l 1,19,-1
EndSplineSet
Substitution2: "'smcp' Lowercase to Small Capitals lookup 6 subtable" Ucircumflex.sc
EndChar

StartChar: udieresis
Encoding: 252 252 189
Width: 1180
GlyphClass: 2
Flags: W
LayerCount: 2
Fore
SplineSet
1085 1072 m 1,0,-1
 1085 0 l 1,1,-1
 803 0 l 1,2,-1
 803 193 l 1,3,-1
 797 193 l 1,4,5
 713 -20 713 -20 476 -20 c 0,6,7
 300 -20 300 -20 195 87.5 c 128,-1,8
 90 195 90 195 90 381 c 2,9,-1
 90 1072 l 1,10,-1
 382 1072 l 1,11,-1
 382 442 l 2,12,13
 382 335 382 335 433.5 279 c 128,-1,14
 485 223 485 223 582 223 c 128,-1,15
 679 223 679 223 736 287 c 128,-1,16
 793 351 793 351 793 458 c 2,17,-1
 793 1072 l 1,18,-1
 1085 1072 l 1,0,-1
385 1220 m 128,-1,20
 328 1220 328 1220 289.5 1258 c 128,-1,21
 251 1296 251 1296 251 1350 c 128,-1,22
 251 1404 251 1404 289.5 1442 c 128,-1,23
 328 1480 328 1480 385 1480 c 128,-1,24
 442 1480 442 1480 480.5 1442 c 128,-1,25
 519 1404 519 1404 519 1350 c 128,-1,26
 519 1296 519 1296 480.5 1258 c 128,-1,19
 442 1220 442 1220 385 1220 c 128,-1,20
793 1220 m 128,-1,28
 736 1220 736 1220 697.5 1258 c 128,-1,29
 659 1296 659 1296 659 1350 c 128,-1,30
 659 1404 659 1404 697.5 1442 c 128,-1,31
 736 1480 736 1480 793 1480 c 128,-1,32
 850 1480 850 1480 888.5 1442 c 128,-1,33
 927 1404 927 1404 927 1350 c 128,-1,34
 927 1296 927 1296 888.5 1258 c 128,-1,27
 850 1220 850 1220 793 1220 c 128,-1,28
EndSplineSet
Substitution2: "'smcp' Lowercase to Small Capitals lookup 6 subtable" Udieresis.sc
EndChar

StartChar: yacute
Encoding: 253 253 190
Width: 1112
GlyphClass: 2
Flags: W
LayerCount: 2
Fore
SplineSet
232 -397 m 0,0,1
 136 -397 136 -397 122 -394 c 1,2,-1
 122 -169 l 1,3,4
 131 -171 131 -171 195 -171 c 0,5,6
 276 -171 276 -171 318 -143.5 c 128,-1,7
 360 -116 360 -116 375 -52 c 0,8,9
 375 -51 375 -51 380 -27 c 128,-1,10
 385 -3 385 -3 384 -1 c 2,11,-1
 11 1072 l 1,12,-1
 332 1072 l 1,13,-1
 560 234 l 1,14,-1
 565 234 l 1,15,-1
 793 1072 l 1,16,-1
 1101 1072 l 1,17,-1
 732 -24 l 2,18,19
 663 -230 663 -230 550.5 -313.5 c 128,-1,20
 438 -397 438 -397 232 -397 c 0,0,1
671 1223 m 1,21,-1
 438 1223 l 1,22,-1
 659 1533 l 1,23,-1
 927 1533 l 1,24,-1
 671 1223 l 1,21,-1
EndSplineSet
Substitution2: "'smcp' Lowercase to Small Capitals lookup 6 subtable" Yacute.sc
EndChar

StartChar: thorn
Encoding: 254 254 191
Width: 1224
GlyphClass: 2
Flags: W
LayerCount: 2
Fore
SplineSet
731 1089 m 0,0,1
 935 1089 935 1089 1050.5 942.5 c 128,-1,2
 1166 796 1166 796 1166 536 c 0,3,4
 1166 277 1166 277 1051 130 c 128,-1,5
 936 -17 936 -17 734 -17 c 0,6,7
 619 -17 619 -17 534.5 30.5 c 128,-1,8
 450 78 450 78 411 164 c 1,9,-1
 393 164 l 1,10,-1
 393 -336 l 1,11,-1
 102 -336 l 1,12,-1
 102 1443 l 1,13,-1
 390 1443 l 1,14,-1
 390 896 l 1,15,-1
 407 896 l 1,16,17
 451 987 451 987 536 1038 c 128,-1,18
 621 1089 621 1089 731 1089 c 0,0,1
629 218 m 0,19,20
 741 218 741 218 804 302.5 c 128,-1,21
 867 387 867 387 867 536 c 128,-1,22
 867 685 867 685 804 770 c 128,-1,23
 741 855 741 855 629 855 c 0,24,25
 519 855 519 855 455 769.5 c 128,-1,26
 391 684 391 684 390 536 c 0,27,28
 391 388 391 388 455 303 c 128,-1,29
 519 218 519 218 629 218 c 0,19,20
EndSplineSet
Substitution2: "'smcp' Lowercase to Small Capitals lookup 6 subtable" Thorn.sc
EndChar

StartChar: ydieresis
Encoding: 255 255 192
Width: 1112
GlyphClass: 2
Flags: W
LayerCount: 2
Fore
SplineSet
232 -397 m 0,0,1
 136 -397 136 -397 122 -394 c 1,2,-1
 122 -169 l 1,3,4
 131 -171 131 -171 195 -171 c 0,5,6
 276 -171 276 -171 318 -143.5 c 128,-1,7
 360 -116 360 -116 375 -52 c 0,8,9
 375 -51 375 -51 380 -27 c 128,-1,10
 385 -3 385 -3 384 -1 c 2,11,-1
 11 1072 l 1,12,-1
 332 1072 l 1,13,-1
 560 234 l 1,14,-1
 565 234 l 1,15,-1
 793 1072 l 1,16,-1
 1101 1072 l 1,17,-1
 732 -24 l 2,18,19
 663 -230 663 -230 550.5 -313.5 c 128,-1,20
 438 -397 438 -397 232 -397 c 0,0,1
353 1220 m 128,-1,22
 296 1220 296 1220 257.5 1258 c 128,-1,23
 219 1296 219 1296 219 1350 c 128,-1,24
 219 1404 219 1404 257.5 1442 c 128,-1,25
 296 1480 296 1480 353 1480 c 128,-1,26
 410 1480 410 1480 448.5 1442 c 128,-1,27
 487 1404 487 1404 487 1350 c 128,-1,28
 487 1296 487 1296 448.5 1258 c 128,-1,21
 410 1220 410 1220 353 1220 c 128,-1,22
761 1220 m 128,-1,30
 704 1220 704 1220 665.5 1258 c 128,-1,31
 627 1296 627 1296 627 1350 c 128,-1,32
 627 1404 627 1404 665.5 1442 c 128,-1,33
 704 1480 704 1480 761 1480 c 128,-1,34
 818 1480 818 1480 856.5 1442 c 128,-1,35
 895 1404 895 1404 895 1350 c 128,-1,36
 895 1296 895 1296 856.5 1258 c 128,-1,29
 818 1220 818 1220 761 1220 c 128,-1,30
EndSplineSet
Substitution2: "'smcp' Lowercase to Small Capitals lookup 6 subtable" Ydieresis.sc
EndChar

StartChar: Amacron
Encoding: 256 256 193
Width: 1413
GlyphClass: 2
Flags: W
LayerCount: 2
Fore
SplineSet
1065 0 m 1,0,-1
 955 350 l 1,1,-1
 448 350 l 1,2,-1
 338 0 l 1,3,-1
 28 0 l 1,4,-1
 529 1443 l 1,5,-1
 884 1443 l 1,6,-1
 1386 0 l 1,7,-1
 1065 0 l 1,0,-1
698 1167 m 1,8,-1
 513 576 l 1,9,-1
 890 576 l 1,10,-1
 705 1167 l 1,11,-1
 698 1167 l 1,8,-1
1053 1768 m 1,12,-1
 1053 1620 l 1,13,-1
 361 1620 l 1,14,-1
 361 1768 l 1,15,-1
 1053 1768 l 1,12,-1
EndSplineSet
Substitution2: "'c2sc' Capitals to Small Capitals lookup 5 subtable" Amacron.sc
EndChar

StartChar: amacron
Encoding: 257 257 194
Width: 1121
GlyphClass: 2
Flags: W
LayerCount: 2
Fore
SplineSet
509 194 m 0,0,1
 606 194 606 194 673.5 250.5 c 128,-1,2
 741 307 741 307 741 393 c 2,3,-1
 741 471 l 1,4,-1
 515 457 l 2,5,6
 433 451 433 451 388.5 416 c 128,-1,7
 344 381 344 381 344 324 c 0,8,9
 344 264 344 264 389 229 c 128,-1,10
 434 194 434 194 509 194 c 0,0,1
413 -17 m 0,11,12
 258 -17 258 -17 156 74 c 128,-1,13
 54 165 54 165 54 308 c 0,14,15
 54 454 54 454 162 537 c 128,-1,16
 270 620 270 620 471 632 c 2,17,-1
 741 648 l 1,18,-1
 741 719 l 2,19,20
 741 793 741 793 692.5 835 c 128,-1,21
 644 877 644 877 561 877 c 0,22,23
 481 877 481 877 430.5 841 c 128,-1,24
 380 805 380 805 369 744 c 1,25,-1
 102 744 l 1,26,27
 110 902 110 902 237 998.5 c 128,-1,28
 364 1095 364 1095 574 1095 c 0,29,30
 780 1095 780 1095 904 997 c 128,-1,31
 1028 899 1028 899 1028 737 c 2,32,-1
 1028 0 l 1,33,-1
 746 0 l 1,34,-1
 746 164 l 1,35,-1
 740 164 l 1,36,37
 696 80 696 80 606 31.5 c 128,-1,38
 516 -17 516 -17 413 -17 c 0,11,12
886 1403 m 1,39,-1
 886 1255 l 1,40,-1
 247 1255 l 1,41,-1
 247 1403 l 1,42,-1
 886 1403 l 1,39,-1
EndSplineSet
Substitution2: "'cv07' Character Variants 07 lookup 27 subtable" amacron.1
Substitution2: "'ss07' Style Set 7 lookup 20 subtable" amacron.1
Substitution2: "'smcp' Lowercase to Small Capitals lookup 6 subtable" Amacron.sc
EndChar

StartChar: Abreve
Encoding: 258 258 195
Width: 1413
GlyphClass: 2
Flags: W
LayerCount: 2
Fore
SplineSet
1065 0 m 1,0,-1
 955 350 l 1,1,-1
 448 350 l 1,2,-1
 338 0 l 1,3,-1
 28 0 l 1,4,-1
 529 1443 l 1,5,-1
 884 1443 l 1,6,-1
 1386 0 l 1,7,-1
 1065 0 l 1,0,-1
698 1167 m 1,8,-1
 513 576 l 1,9,-1
 890 576 l 1,10,-1
 705 1167 l 1,11,-1
 698 1167 l 1,8,-1
349 1859 m 1,12,-1
 530 1859 l 1,13,14
 536 1781 536 1781 583.5 1734.5 c 128,-1,15
 631 1688 631 1688 707 1688 c 128,-1,16
 783 1688 783 1688 830.5 1734.5 c 128,-1,17
 878 1781 878 1781 884 1859 c 1,18,-1
 1065 1859 l 1,19,20
 1058 1723 1058 1723 962.5 1631 c 128,-1,21
 867 1539 867 1539 707 1539 c 128,-1,22
 547 1539 547 1539 451.5 1631 c 128,-1,23
 356 1723 356 1723 349 1859 c 1,12,-1
EndSplineSet
Substitution2: "'c2sc' Capitals to Small Capitals lookup 5 subtable" Abreve.sc
EndChar

StartChar: abreve
Encoding: 259 259 196
Width: 1121
GlyphClass: 2
Flags: W
LayerCount: 2
Fore
SplineSet
509 194 m 0,0,1
 606 194 606 194 673.5 250.5 c 128,-1,2
 741 307 741 307 741 393 c 2,3,-1
 741 471 l 1,4,-1
 515 457 l 2,5,6
 433 451 433 451 388.5 416 c 128,-1,7
 344 381 344 381 344 324 c 0,8,9
 344 264 344 264 389 229 c 128,-1,10
 434 194 434 194 509 194 c 0,0,1
413 -17 m 0,11,12
 258 -17 258 -17 156 74 c 128,-1,13
 54 165 54 165 54 308 c 0,14,15
 54 454 54 454 162 537 c 128,-1,16
 270 620 270 620 471 632 c 2,17,-1
 741 648 l 1,18,-1
 741 719 l 2,19,20
 741 793 741 793 692.5 835 c 128,-1,21
 644 877 644 877 561 877 c 0,22,23
 481 877 481 877 430.5 841 c 128,-1,24
 380 805 380 805 369 744 c 1,25,-1
 102 744 l 1,26,27
 110 902 110 902 237 998.5 c 128,-1,28
 364 1095 364 1095 574 1095 c 0,29,30
 780 1095 780 1095 904 997 c 128,-1,31
 1028 899 1028 899 1028 737 c 2,32,-1
 1028 0 l 1,33,-1
 746 0 l 1,34,-1
 746 164 l 1,35,-1
 740 164 l 1,36,37
 696 80 696 80 606 31.5 c 128,-1,38
 516 -17 516 -17 413 -17 c 0,11,12
207 1530 m 1,39,-1
 388 1530 l 1,40,41
 390 1451 390 1451 437.5 1403 c 128,-1,42
 485 1355 485 1355 565 1355 c 128,-1,43
 645 1355 645 1355 693 1403 c 128,-1,44
 741 1451 741 1451 743 1530 c 1,45,-1
 924 1530 l 1,46,47
 922 1390 922 1390 825.5 1299 c 128,-1,48
 729 1208 729 1208 565 1208 c 128,-1,49
 401 1208 401 1208 305 1299 c 128,-1,50
 209 1390 209 1390 207 1530 c 1,39,-1
EndSplineSet
Substitution2: "'cv07' Character Variants 07 lookup 27 subtable" abreve.1
Substitution2: "'ss07' Style Set 7 lookup 20 subtable" abreve.1
Substitution2: "'smcp' Lowercase to Small Capitals lookup 6 subtable" Abreve.sc
EndChar

StartChar: Aogonek
Encoding: 260 260 197
Width: 1413
GlyphClass: 2
Flags: W
LayerCount: 2
Fore
SplineSet
698 1167 m 1,0,-1
 513 576 l 1,1,-1
 890 576 l 1,2,-1
 705 1167 l 1,3,-1
 698 1167 l 1,0,-1
1317 -441 m 1,4,5
 1270 -462 1270 -462 1172 -462 c 0,6,7
 1054 -462 1054 -462 979.5 -402.5 c 128,-1,8
 905 -343 905 -343 905 -248 c 0,9,10
 905 -102 905 -102 1065 0 c 1,11,-1
 955 350 l 1,12,-1
 448 350 l 1,13,-1
 338 0 l 1,14,-1
 28 0 l 1,15,-1
 529 1443 l 1,16,-1
 884 1443 l 1,17,-1
 1385 2 l 1,18,-1
 1336 -4 l 1,19,20
 1242 -29 1242 -29 1180.5 -84 c 128,-1,21
 1119 -139 1119 -139 1119 -197 c 0,22,23
 1119 -243 1119 -243 1152 -268 c 128,-1,24
 1185 -293 1185 -293 1240 -293 c 0,25,26
 1286 -293 1286 -293 1317 -284 c 1,27,-1
 1317 -441 l 1,4,5
EndSplineSet
Substitution2: "'c2sc' Capitals to Small Capitals lookup 5 subtable" Aogonek.sc
EndChar

StartChar: aogonek
Encoding: 261 261 198
Width: 1121
GlyphClass: 2
Flags: W
LayerCount: 2
Fore
SplineSet
509 194 m 0,0,1
 606 194 606 194 673.5 250.5 c 128,-1,2
 741 307 741 307 741 393 c 2,3,-1
 741 470 l 1,4,-1
 515 456 l 2,5,6
 433 450 433 450 388.5 415.5 c 128,-1,7
 344 381 344 381 344 324 c 0,8,9
 344 264 344 264 389 229 c 128,-1,10
 434 194 434 194 509 194 c 0,0,1
993 -428 m 1,11,12
 949 -450 949 -450 850 -450 c 0,13,14
 733 -450 733 -450 660 -392 c 128,-1,15
 587 -334 587 -334 587 -240 c 0,16,17
 587 -166 587 -166 633 -102.5 c 128,-1,18
 679 -39 679 -39 746 1 c 1,19,-1
 746 164 l 1,20,-1
 740 164 l 1,21,22
 696 80 696 80 605.5 31 c 128,-1,23
 515 -18 515 -18 413 -18 c 0,24,25
 258 -18 258 -18 156 73.5 c 128,-1,26
 54 165 54 165 54 308 c 0,27,28
 54 453 54 453 162 536 c 128,-1,29
 270 619 270 619 471 631 c 2,30,-1
 741 647 l 1,31,-1
 741 717 l 2,32,33
 741 791 741 791 693 832 c 128,-1,34
 645 873 645 873 562 873 c 0,35,36
 484 873 484 873 432.5 837.5 c 128,-1,37
 381 802 381 802 371 743 c 1,38,-1
 105 743 l 1,39,40
 111 899 111 899 240 995 c 128,-1,41
 369 1091 369 1091 575 1091 c 0,42,43
 779 1091 779 1091 903.5 993 c 128,-1,44
 1028 895 1028 895 1028 735 c 2,45,-1
 1028 -1 l 1,46,-1
 994 -7 l 1,47,48
 915 -26 915 -26 857.5 -76 c 128,-1,49
 800 -126 800 -126 800 -188 c 0,50,51
 800 -233 800 -233 831 -257.5 c 128,-1,52
 862 -282 862 -282 918 -282 c 0,53,54
 964 -282 964 -282 993 -273 c 1,55,-1
 993 -428 l 1,11,12
EndSplineSet
Substitution2: "'cv07' Character Variants 07 lookup 27 subtable" aogonek.1
Substitution2: "'ss07' Style Set 7 lookup 20 subtable" aogonek.1
Substitution2: "'smcp' Lowercase to Small Capitals lookup 6 subtable" Aogonek.sc
EndChar

StartChar: Cacute
Encoding: 262 262 199
Width: 1459
GlyphClass: 2
Flags: W
LayerCount: 2
Fore
SplineSet
758 -25 m 0,0,1
 442 -25 442 -25 258.5 174.5 c 128,-1,2
 75 374 75 374 75 722 c 0,3,4
 75 1069 75 1069 259 1268.5 c 128,-1,5
 443 1468 443 1468 758 1468 c 0,6,7
 930 1468 930 1468 1070.5 1400 c 128,-1,8
 1211 1332 1211 1332 1296 1208 c 128,-1,9
 1381 1084 1381 1084 1392 925 c 1,10,-1
 1098 925 l 1,11,12
 1077 1058 1077 1058 983.5 1138 c 128,-1,13
 890 1218 890 1218 758 1218 c 0,14,15
 587 1218 587 1218 485 1084 c 128,-1,16
 383 950 383 950 383 723 c 0,17,18
 383 492 383 492 484 358.5 c 128,-1,19
 585 225 585 225 759 225 c 0,20,21
 893 225 893 225 984 299 c 128,-1,22
 1075 373 1075 373 1099 501 c 1,23,-1
 1393 501 l 1,24,25
 1368 260 1368 260 1196 117.5 c 128,-1,26
 1024 -25 1024 -25 758 -25 c 0,0,1
860 1559 m 1,27,-1
 630 1559 l 1,28,-1
 856 1864 l 1,29,-1
 1127 1864 l 1,30,-1
 860 1559 l 1,27,-1
EndSplineSet
Substitution2: "'c2sc' Capitals to Small Capitals lookup 5 subtable" Cacute.sc
EndChar

StartChar: cacute
Encoding: 263 263 200
Width: 1116
GlyphClass: 2
Flags: W
LayerCount: 2
Fore
SplineSet
1069 673 m 1,0,-1
 798 673 l 1,1,2
 785 760 785 760 729.5 813 c 128,-1,3
 674 866 674 866 586 866 c 0,4,5
 477 866 477 866 414.5 778.5 c 128,-1,6
 352 691 352 691 352 537 c 0,7,8
 352 380 352 380 414.5 293 c 128,-1,9
 477 206 477 206 587 206 c 0,10,11
 674 206 674 206 729 255.5 c 128,-1,12
 784 305 784 305 798 393 c 1,13,-1
 1070 393 l 1,14,15
 1059 203 1059 203 927 90 c 128,-1,16
 795 -23 795 -23 584 -23 c 0,17,18
 340 -23 340 -23 198 126.5 c 128,-1,19
 56 276 56 276 56 537 c 0,20,21
 56 794 56 794 198.5 944.5 c 128,-1,22
 341 1095 341 1095 582 1095 c 0,23,24
 796 1095 796 1095 927.5 977 c 128,-1,25
 1059 859 1059 859 1069 673 c 1,0,-1
682 1223 m 1,26,-1
 449 1223 l 1,27,-1
 670 1533 l 1,28,-1
 938 1533 l 1,29,-1
 682 1223 l 1,26,-1
EndSplineSet
Substitution2: "'smcp' Lowercase to Small Capitals lookup 6 subtable" Cacute.sc
EndChar

StartChar: Ccircumflex
Encoding: 264 264 201
Width: 1459
GlyphClass: 2
Flags: W
LayerCount: 2
Fore
SplineSet
758 -25 m 0,0,1
 442 -25 442 -25 258.5 174.5 c 128,-1,2
 75 374 75 374 75 722 c 0,3,4
 75 1069 75 1069 259 1268.5 c 128,-1,5
 443 1468 443 1468 758 1468 c 0,6,7
 930 1468 930 1468 1070.5 1400 c 128,-1,8
 1211 1332 1211 1332 1296 1208 c 128,-1,9
 1381 1084 1381 1084 1392 925 c 1,10,-1
 1098 925 l 1,11,12
 1077 1058 1077 1058 983.5 1138 c 128,-1,13
 890 1218 890 1218 758 1218 c 0,14,15
 587 1218 587 1218 485 1084 c 128,-1,16
 383 950 383 950 383 723 c 0,17,18
 383 492 383 492 484 358.5 c 128,-1,19
 585 225 585 225 759 225 c 0,20,21
 893 225 893 225 984 299 c 128,-1,22
 1075 373 1075 373 1099 501 c 1,23,-1
 1393 501 l 1,24,25
 1368 260 1368 260 1196 117.5 c 128,-1,26
 1024 -25 1024 -25 758 -25 c 0,0,1
633 1856 m 1,27,-1
 857 1856 l 1,28,-1
 1126 1539 l 1,29,-1
 905 1539 l 1,30,-1
 749 1731 l 1,31,-1
 741 1731 l 1,32,-1
 585 1539 l 1,33,-1
 364 1539 l 1,34,-1
 633 1856 l 1,27,-1
EndSplineSet
Substitution2: "'c2sc' Capitals to Small Capitals lookup 5 subtable" Ccircumflex.sc
EndChar

StartChar: ccircumflex
Encoding: 265 265 202
Width: 1116
GlyphClass: 2
Flags: W
LayerCount: 2
Fore
SplineSet
1069 673 m 1,0,-1
 798 673 l 1,1,2
 785 760 785 760 729.5 813 c 128,-1,3
 674 866 674 866 586 866 c 0,4,5
 477 866 477 866 414.5 778.5 c 128,-1,6
 352 691 352 691 352 537 c 0,7,8
 352 380 352 380 414.5 293 c 128,-1,9
 477 206 477 206 587 206 c 0,10,11
 674 206 674 206 729 255.5 c 128,-1,12
 784 305 784 305 798 393 c 1,13,-1
 1070 393 l 1,14,15
 1059 203 1059 203 927 90 c 128,-1,16
 795 -23 795 -23 584 -23 c 0,17,18
 340 -23 340 -23 198 126.5 c 128,-1,19
 56 276 56 276 56 537 c 0,20,21
 56 794 56 794 198.5 944.5 c 128,-1,22
 341 1095 341 1095 582 1095 c 0,23,24
 796 1095 796 1095 927.5 977 c 128,-1,25
 1059 859 1059 859 1069 673 c 1,0,-1
680 1531 m 1,26,-1
 943 1213 l 1,27,-1
 720 1213 l 1,28,-1
 571 1399 l 1,29,-1
 564 1399 l 1,30,-1
 416 1213 l 1,31,-1
 192 1213 l 1,32,-1
 456 1531 l 1,33,-1
 680 1531 l 1,26,-1
EndSplineSet
Substitution2: "'smcp' Lowercase to Small Capitals lookup 6 subtable" Ccircumflex.sc
EndChar

StartChar: Cdotaccent
Encoding: 266 266 203
Width: 1459
GlyphClass: 2
Flags: W
LayerCount: 2
Fore
SplineSet
758 -25 m 0,0,1
 442 -25 442 -25 258.5 174.5 c 128,-1,2
 75 374 75 374 75 722 c 0,3,4
 75 1069 75 1069 259 1268.5 c 128,-1,5
 443 1468 443 1468 758 1468 c 0,6,7
 930 1468 930 1468 1070.5 1400 c 128,-1,8
 1211 1332 1211 1332 1296 1208 c 128,-1,9
 1381 1084 1381 1084 1392 925 c 1,10,-1
 1098 925 l 1,11,12
 1077 1058 1077 1058 983.5 1138 c 128,-1,13
 890 1218 890 1218 758 1218 c 0,14,15
 587 1218 587 1218 485 1084 c 128,-1,16
 383 950 383 950 383 723 c 0,17,18
 383 492 383 492 484 358.5 c 128,-1,19
 585 225 585 225 759 225 c 0,20,21
 893 225 893 225 984 299 c 128,-1,22
 1075 373 1075 373 1099 501 c 1,23,-1
 1393 501 l 1,24,25
 1368 260 1368 260 1196 117.5 c 128,-1,26
 1024 -25 1024 -25 758 -25 c 0,0,1
745 1562 m 128,-1,28
 682 1562 682 1562 639 1605.5 c 128,-1,29
 596 1649 596 1649 596 1711 c 128,-1,30
 596 1773 596 1773 639 1816.5 c 128,-1,31
 682 1860 682 1860 745 1860 c 128,-1,32
 808 1860 808 1860 851 1816.5 c 128,-1,33
 894 1773 894 1773 894 1711 c 128,-1,34
 894 1649 894 1649 851 1605.5 c 128,-1,27
 808 1562 808 1562 745 1562 c 128,-1,28
EndSplineSet
Substitution2: "'c2sc' Capitals to Small Capitals lookup 5 subtable" Cdotaccent.sc
EndChar

StartChar: cdotaccent
Encoding: 267 267 204
Width: 1116
GlyphClass: 2
Flags: W
LayerCount: 2
Fore
SplineSet
1069 673 m 1,0,-1
 798 673 l 1,1,2
 785 760 785 760 729.5 813 c 128,-1,3
 674 866 674 866 586 866 c 0,4,5
 477 866 477 866 414.5 778.5 c 128,-1,6
 352 691 352 691 352 537 c 0,7,8
 352 380 352 380 414.5 293 c 128,-1,9
 477 206 477 206 587 206 c 0,10,11
 674 206 674 206 729 255.5 c 128,-1,12
 784 305 784 305 798 393 c 1,13,-1
 1070 393 l 1,14,15
 1059 203 1059 203 927 90 c 128,-1,16
 795 -23 795 -23 584 -23 c 0,17,18
 340 -23 340 -23 198 126.5 c 128,-1,19
 56 276 56 276 56 537 c 0,20,21
 56 794 56 794 198.5 944.5 c 128,-1,22
 341 1095 341 1095 582 1095 c 0,23,24
 796 1095 796 1095 927.5 977 c 128,-1,25
 1059 859 1059 859 1069 673 c 1,0,-1
567 1223 m 128,-1,27
 504 1223 504 1223 460 1266.5 c 128,-1,28
 416 1310 416 1310 416 1371 c 0,29,30
 416 1433 416 1433 460 1476.5 c 128,-1,31
 504 1520 504 1520 567 1520 c 128,-1,32
 630 1520 630 1520 673.5 1476.5 c 128,-1,33
 717 1433 717 1433 717 1371 c 0,34,35
 717 1310 717 1310 673.5 1266.5 c 128,-1,26
 630 1223 630 1223 567 1223 c 128,-1,27
EndSplineSet
Substitution2: "'smcp' Lowercase to Small Capitals lookup 6 subtable" Cdotaccent.sc
EndChar

StartChar: Ccaron
Encoding: 268 268 205
Width: 1459
GlyphClass: 2
Flags: W
LayerCount: 2
Fore
SplineSet
758 -25 m 0,0,1
 442 -25 442 -25 258.5 174.5 c 128,-1,2
 75 374 75 374 75 722 c 0,3,4
 75 1069 75 1069 259 1268.5 c 128,-1,5
 443 1468 443 1468 758 1468 c 0,6,7
 930 1468 930 1468 1070.5 1400 c 128,-1,8
 1211 1332 1211 1332 1296 1208 c 128,-1,9
 1381 1084 1381 1084 1392 925 c 1,10,-1
 1098 925 l 1,11,12
 1077 1058 1077 1058 983.5 1138 c 128,-1,13
 890 1218 890 1218 758 1218 c 0,14,15
 587 1218 587 1218 485 1084 c 128,-1,16
 383 950 383 950 383 723 c 0,17,18
 383 492 383 492 484 358.5 c 128,-1,19
 585 225 585 225 759 225 c 0,20,21
 893 225 893 225 984 299 c 128,-1,22
 1075 373 1075 373 1099 501 c 1,23,-1
 1393 501 l 1,24,25
 1368 260 1368 260 1196 117.5 c 128,-1,26
 1024 -25 1024 -25 758 -25 c 0,0,1
633 1544 m 1,27,-1
 364 1861 l 1,28,-1
 585 1861 l 1,29,-1
 741 1669 l 1,30,-1
 749 1669 l 1,31,-1
 905 1861 l 1,32,-1
 1126 1861 l 1,33,-1
 857 1544 l 1,34,-1
 633 1544 l 1,27,-1
EndSplineSet
Substitution2: "'c2sc' Capitals to Small Capitals lookup 5 subtable" Ccaron.sc
EndChar

StartChar: ccaron
Encoding: 269 269 206
Width: 1116
GlyphClass: 2
Flags: W
LayerCount: 2
Fore
SplineSet
1069 673 m 1,0,-1
 798 673 l 1,1,2
 785 760 785 760 729.5 813 c 128,-1,3
 674 866 674 866 586 866 c 0,4,5
 477 866 477 866 414.5 778.5 c 128,-1,6
 352 691 352 691 352 537 c 0,7,8
 352 380 352 380 414.5 293 c 128,-1,9
 477 206 477 206 587 206 c 0,10,11
 674 206 674 206 729 255.5 c 128,-1,12
 784 305 784 305 798 393 c 1,13,-1
 1070 393 l 1,14,15
 1059 203 1059 203 927 90 c 128,-1,16
 795 -23 795 -23 584 -23 c 0,17,18
 340 -23 340 -23 198 126.5 c 128,-1,19
 56 276 56 276 56 537 c 0,20,21
 56 794 56 794 198.5 944.5 c 128,-1,22
 341 1095 341 1095 582 1095 c 0,23,24
 796 1095 796 1095 927.5 977 c 128,-1,25
 1059 859 1059 859 1069 673 c 1,0,-1
680 1213 m 1,26,-1
 456 1213 l 1,27,-1
 192 1531 l 1,28,-1
 416 1531 l 1,29,-1
 564 1343 l 1,30,-1
 571 1343 l 1,31,-1
 720 1531 l 1,32,-1
 943 1531 l 1,33,-1
 680 1213 l 1,26,-1
EndSplineSet
Substitution2: "'smcp' Lowercase to Small Capitals lookup 6 subtable" Ccaron.sc
EndChar

StartChar: Dcaron
Encoding: 270 270 207
Width: 1433
GlyphClass: 2
Flags: W
LayerCount: 2
Fore
SplineSet
120 1443 m 1,0,-1
 671 1443 l 2,1,2
 997 1443 997 1443 1178 1256 c 128,-1,3
 1359 1069 1359 1069 1359 727 c 0,4,5
 1359 384 1359 384 1177.5 192 c 128,-1,6
 996 0 996 0 671 0 c 2,7,-1
 120 0 l 1,8,-1
 120 1443 l 1,0,-1
422 1194 m 1,9,-1
 422 250 l 1,10,-1
 635 250 l 2,11,12
 838 250 838 250 944.5 371.5 c 128,-1,13
 1051 493 1051 493 1051 726 c 0,14,15
 1051 952 1051 952 943 1073 c 128,-1,16
 835 1194 835 1194 635 1194 c 2,17,-1
 422 1194 l 1,9,-1
532 1543 m 1,18,-1
 263 1860 l 1,19,-1
 484 1860 l 1,20,-1
 640 1668 l 1,21,-1
 648 1668 l 1,22,-1
 804 1860 l 1,23,-1
 1025 1860 l 1,24,-1
 756 1543 l 1,25,-1
 532 1543 l 1,18,-1
EndSplineSet
Substitution2: "'c2sc' Capitals to Small Capitals lookup 5 subtable" Dcaron.sc
EndChar

StartChar: dcaron
Encoding: 271 271 208
Width: 1429
GlyphClass: 2
Flags: W
LayerCount: 2
Fore
SplineSet
1268 1443 m 1,0,-1
 1484 1443 l 1,1,-1
 1444 953 l 1,2,-1
 1268 953 l 1,3,-1
 1268 1443 l 1,0,-1
493 -17 m 0,4,5
 292 -17 292 -17 174 132 c 128,-1,6
 56 281 56 281 56 538 c 0,7,8
 56 793 56 793 174.5 941 c 128,-1,9
 293 1089 293 1089 495 1089 c 0,10,11
 609 1089 609 1089 695.5 1034 c 128,-1,12
 782 979 782 979 822 888 c 1,13,-1
 828 888 l 1,14,-1
 828 1443 l 1,15,-1
 1120 1443 l 1,16,-1
 1120 0 l 1,17,-1
 832 0 l 1,18,-1
 832 184 l 1,19,-1
 827 184 l 1,20,21
 787 93 787 93 698 38 c 128,-1,22
 609 -17 609 -17 493 -17 c 0,4,5
592 855 m 0,23,24
 482 855 482 855 418.5 769 c 128,-1,25
 355 683 355 683 355 536 c 0,26,27
 355 388 355 388 418.5 303 c 128,-1,28
 482 218 482 218 592 218 c 0,29,30
 701 218 701 218 765.5 303.5 c 128,-1,31
 830 389 830 389 830 536 c 0,32,33
 830 682 830 682 765.5 768.5 c 128,-1,34
 701 855 701 855 592 855 c 0,23,24
EndSplineSet
Substitution2: "'smcp' Lowercase to Small Capitals lookup 6 subtable" Dcaron.sc
EndChar

StartChar: Dcroat
Encoding: 272 272 209
Width: 1453
GlyphClass: 2
Flags: W
LayerCount: 2
Fore
SplineSet
442 250 m 1,0,-1
 655 250 l 2,1,2
 858 250 858 250 964.5 371.5 c 128,-1,3
 1071 493 1071 493 1071 726 c 0,4,5
 1071 952 1071 952 963 1073 c 128,-1,6
 855 1194 855 1194 655 1194 c 2,7,-1
 442 1194 l 1,8,-1
 442 843 l 1,9,-1
 697 843 l 1,10,-1
 697 622 l 1,11,-1
 442 622 l 1,12,-1
 442 250 l 1,0,-1
140 1443 m 1,13,-1
 691 1443 l 2,14,15
 1017 1443 1017 1443 1198 1256 c 128,-1,16
 1379 1069 1379 1069 1379 727 c 0,17,18
 1379 384 1379 384 1197.5 192 c 128,-1,19
 1016 0 1016 0 691 0 c 2,20,-1
 140 0 l 1,21,-1
 140 622 l 1,22,-1
 42 622 l 1,23,-1
 42 843 l 1,24,-1
 140 843 l 1,25,-1
 140 1443 l 1,13,-1
EndSplineSet
Substitution2: "'c2sc' Capitals to Small Capitals lookup 5 subtable" Dcroat.sc
EndChar

StartChar: dcroat
Encoding: 273 273 210
Width: 1244
GlyphClass: 2
Flags: W
LayerCount: 2
Fore
SplineSet
592 222 m 128,-1,1
 701 222 701 222 765.5 307 c 128,-1,2
 830 392 830 392 830 536 c 0,3,4
 830 679 830 679 765.5 764.5 c 128,-1,5
 701 850 701 850 592 850 c 128,-1,6
 483 850 483 850 419 765 c 128,-1,7
 355 680 355 680 355 536 c 0,8,9
 355 391 355 391 419 306.5 c 128,-1,0
 483 222 483 222 592 222 c 128,-1,1
1218 1341 m 1,10,-1
 1218 1193 l 1,11,-1
 1120 1193 l 1,12,-1
 1120 0 l 1,13,-1
 832 0 l 1,14,-1
 832 184 l 1,15,-1
 827 184 l 1,16,17
 787 94 787 94 698.5 40.5 c 128,-1,18
 610 -13 610 -13 493 -13 c 0,19,20
 293 -13 293 -13 174.5 135.5 c 128,-1,21
 56 284 56 284 56 538 c 0,22,23
 56 789 56 789 175 937 c 128,-1,24
 294 1085 294 1085 495 1085 c 0,25,26
 609 1085 609 1085 695.5 1032 c 128,-1,27
 782 979 782 979 822 888 c 1,28,-1
 828 888 l 1,29,-1
 828 1193 l 1,30,-1
 624 1193 l 1,31,-1
 624 1341 l 1,32,-1
 828 1341 l 1,33,-1
 828 1443 l 1,34,-1
 1120 1443 l 1,35,-1
 1120 1341 l 1,36,-1
 1218 1341 l 1,10,-1
EndSplineSet
Substitution2: "'smcp' Lowercase to Small Capitals lookup 6 subtable" Dcroat.sc
EndChar

StartChar: Emacron
Encoding: 274 274 211
Width: 1174
GlyphClass: 2
Flags: W
LayerCount: 2
Fore
SplineSet
1076 250 m 1,0,-1
 1076 0 l 1,1,-1
 120 0 l 1,2,-1
 120 1443 l 1,3,-1
 1076 1443 l 1,4,-1
 1076 1194 l 1,5,-1
 422 1194 l 1,6,-1
 422 846 l 1,7,-1
 1039 846 l 1,8,-1
 1039 614 l 1,9,-1
 422 614 l 1,10,-1
 422 250 l 1,11,-1
 1076 250 l 1,0,-1
944 1768 m 1,12,-1
 944 1620 l 1,13,-1
 252 1620 l 1,14,-1
 252 1768 l 1,15,-1
 944 1768 l 1,12,-1
EndSplineSet
Substitution2: "'c2sc' Capitals to Small Capitals lookup 5 subtable" Emacron.sc
EndChar

StartChar: emacron
Encoding: 275 275 212
Width: 1137
GlyphClass: 2
Flags: W
LayerCount: 2
Fore
SplineSet
576 879 m 0,0,1
 481 879 481 879 417.5 814 c 128,-1,2
 354 749 354 749 346 648 c 1,3,-1
 801 648 l 1,4,5
 796 751 796 751 734.5 815 c 128,-1,6
 673 879 673 879 576 879 c 0,0,1
805 328 m 1,7,-1
 1073 328 l 1,8,9
 1049 170 1049 170 915.5 73.5 c 128,-1,10
 782 -23 782 -23 584 -23 c 0,11,12
 337 -23 337 -23 196.5 125 c 128,-1,13
 56 273 56 273 56 531 c 0,14,15
 56 788 56 788 196 941.5 c 128,-1,16
 336 1095 336 1095 573 1095 c 0,17,18
 806 1095 806 1095 944 949 c 128,-1,19
 1082 803 1082 803 1082 558 c 2,20,-1
 1082 469 l 1,21,-1
 343 469 l 1,22,-1
 343 451 l 2,23,24
 343 336 343 336 410.5 264.5 c 128,-1,25
 478 193 478 193 589 193 c 0,26,27
 669 193 669 193 727 229.5 c 128,-1,28
 785 266 785 266 805 328 c 1,7,-1
893 1403 m 1,29,-1
 893 1255 l 1,30,-1
 254 1255 l 1,31,-1
 254 1403 l 1,32,-1
 893 1403 l 1,29,-1
EndSplineSet
Substitution2: "'smcp' Lowercase to Small Capitals lookup 6 subtable" Emacron.sc
EndChar

StartChar: Ebreve
Encoding: 276 276 213
Width: 1174
GlyphClass: 2
Flags: W
LayerCount: 2
Fore
SplineSet
1076 250 m 1,0,-1
 1076 0 l 1,1,-1
 120 0 l 1,2,-1
 120 1443 l 1,3,-1
 1076 1443 l 1,4,-1
 1076 1194 l 1,5,-1
 422 1194 l 1,6,-1
 422 846 l 1,7,-1
 1039 846 l 1,8,-1
 1039 614 l 1,9,-1
 422 614 l 1,10,-1
 422 250 l 1,11,-1
 1076 250 l 1,0,-1
240 1859 m 1,12,-1
 421 1859 l 1,13,14
 427 1781 427 1781 474.5 1734.5 c 128,-1,15
 522 1688 522 1688 598 1688 c 128,-1,16
 674 1688 674 1688 721.5 1734.5 c 128,-1,17
 769 1781 769 1781 775 1859 c 1,18,-1
 956 1859 l 1,19,20
 949 1723 949 1723 853.5 1631 c 128,-1,21
 758 1539 758 1539 598 1539 c 128,-1,22
 438 1539 438 1539 342.5 1631 c 128,-1,23
 247 1723 247 1723 240 1859 c 1,12,-1
EndSplineSet
Substitution2: "'c2sc' Capitals to Small Capitals lookup 5 subtable" Ebreve.sc
EndChar

StartChar: ebreve
Encoding: 277 277 214
Width: 1137
GlyphClass: 2
Flags: W
LayerCount: 2
Fore
SplineSet
576 879 m 0,0,1
 481 879 481 879 417.5 814 c 128,-1,2
 354 749 354 749 346 648 c 1,3,-1
 801 648 l 1,4,5
 796 751 796 751 734.5 815 c 128,-1,6
 673 879 673 879 576 879 c 0,0,1
805 328 m 1,7,-1
 1073 328 l 1,8,9
 1049 170 1049 170 915.5 73.5 c 128,-1,10
 782 -23 782 -23 584 -23 c 0,11,12
 337 -23 337 -23 196.5 125 c 128,-1,13
 56 273 56 273 56 531 c 0,14,15
 56 788 56 788 196 941.5 c 128,-1,16
 336 1095 336 1095 573 1095 c 0,17,18
 806 1095 806 1095 944 949 c 128,-1,19
 1082 803 1082 803 1082 558 c 2,20,-1
 1082 469 l 1,21,-1
 343 469 l 1,22,-1
 343 451 l 2,23,24
 343 336 343 336 410.5 264.5 c 128,-1,25
 478 193 478 193 589 193 c 0,26,27
 669 193 669 193 727 229.5 c 128,-1,28
 785 266 785 266 805 328 c 1,7,-1
214 1530 m 1,29,-1
 395 1530 l 1,30,31
 397 1451 397 1451 444.5 1403 c 128,-1,32
 492 1355 492 1355 572 1355 c 128,-1,33
 652 1355 652 1355 700 1403 c 128,-1,34
 748 1451 748 1451 750 1530 c 1,35,-1
 931 1530 l 1,36,37
 929 1390 929 1390 832.5 1299 c 128,-1,38
 736 1208 736 1208 572 1208 c 128,-1,39
 408 1208 408 1208 312 1299 c 128,-1,40
 216 1390 216 1390 214 1530 c 1,29,-1
EndSplineSet
Substitution2: "'smcp' Lowercase to Small Capitals lookup 6 subtable" Ebreve.sc
EndChar

StartChar: Edotaccent
Encoding: 278 278 215
Width: 1174
GlyphClass: 2
Flags: W
LayerCount: 2
Fore
SplineSet
1076 250 m 1,0,-1
 1076 0 l 1,1,-1
 120 0 l 1,2,-1
 120 1443 l 1,3,-1
 1076 1443 l 1,4,-1
 1076 1194 l 1,5,-1
 422 1194 l 1,6,-1
 422 846 l 1,7,-1
 1039 846 l 1,8,-1
 1039 614 l 1,9,-1
 422 614 l 1,10,-1
 422 250 l 1,11,-1
 1076 250 l 1,0,-1
598 1561 m 128,-1,13
 535 1561 535 1561 492 1604.5 c 128,-1,14
 449 1648 449 1648 449 1710 c 128,-1,15
 449 1772 449 1772 492 1815.5 c 128,-1,16
 535 1859 535 1859 598 1859 c 128,-1,17
 661 1859 661 1859 704 1815.5 c 128,-1,18
 747 1772 747 1772 747 1710 c 128,-1,19
 747 1648 747 1648 704 1604.5 c 128,-1,12
 661 1561 661 1561 598 1561 c 128,-1,13
EndSplineSet
Substitution2: "'c2sc' Capitals to Small Capitals lookup 5 subtable" Edotaccent.sc
EndChar

StartChar: edotaccent
Encoding: 279 279 216
Width: 1137
GlyphClass: 2
Flags: W
LayerCount: 2
Fore
SplineSet
576 879 m 0,0,1
 481 879 481 879 417.5 814 c 128,-1,2
 354 749 354 749 346 648 c 1,3,-1
 801 648 l 1,4,5
 796 751 796 751 734.5 815 c 128,-1,6
 673 879 673 879 576 879 c 0,0,1
805 328 m 1,7,-1
 1073 328 l 1,8,9
 1049 170 1049 170 915.5 73.5 c 128,-1,10
 782 -23 782 -23 584 -23 c 0,11,12
 337 -23 337 -23 196.5 125 c 128,-1,13
 56 273 56 273 56 531 c 0,14,15
 56 788 56 788 196 941.5 c 128,-1,16
 336 1095 336 1095 573 1095 c 0,17,18
 806 1095 806 1095 944 949 c 128,-1,19
 1082 803 1082 803 1082 558 c 2,20,-1
 1082 469 l 1,21,-1
 343 469 l 1,22,-1
 343 451 l 2,23,24
 343 336 343 336 410.5 264.5 c 128,-1,25
 478 193 478 193 589 193 c 0,26,27
 669 193 669 193 727 229.5 c 128,-1,28
 785 266 785 266 805 328 c 1,7,-1
572 1223 m 128,-1,30
 509 1223 509 1223 465 1266.5 c 128,-1,31
 421 1310 421 1310 421 1371 c 0,32,33
 421 1433 421 1433 465 1476.5 c 128,-1,34
 509 1520 509 1520 572 1520 c 128,-1,35
 635 1520 635 1520 678.5 1476.5 c 128,-1,36
 722 1433 722 1433 722 1371 c 0,37,38
 722 1310 722 1310 678.5 1266.5 c 128,-1,29
 635 1223 635 1223 572 1223 c 128,-1,30
EndSplineSet
Substitution2: "'smcp' Lowercase to Small Capitals lookup 6 subtable" Edotaccent.sc
EndChar

StartChar: Eogonek
Encoding: 280 280 217
Width: 1174
GlyphClass: 2
Flags: W
LayerCount: 2
Fore
SplineSet
120 0 m 1,0,-1
 120 1443 l 1,1,-1
 1076 1443 l 1,2,-1
 1076 1194 l 1,3,-1
 422 1194 l 1,4,-1
 422 846 l 1,5,-1
 1039 846 l 1,6,-1
 1039 614 l 1,7,-1
 422 614 l 1,8,-1
 422 250 l 1,9,-1
 1076 250 l 1,10,-1
 1076 7 l 1,11,-1
 1041 -1 l 1,12,13
 949 -29 949 -29 889.5 -85 c 128,-1,14
 830 -141 830 -141 830 -197 c 0,15,16
 830 -243 830 -243 863 -268 c 128,-1,17
 896 -293 896 -293 952 -293 c 0,18,19
 999 -293 999 -293 1028 -284 c 1,20,-1
 1028 -441 l 1,21,22
 983 -462 983 -462 883 -462 c 0,23,24
 766 -462 766 -462 691.5 -403 c 128,-1,25
 617 -344 617 -344 617 -249 c 0,26,27
 617 -178 617 -178 658.5 -113.5 c 128,-1,28
 700 -49 700 -49 773 -4 c 1,29,-1
 773 0 l 1,30,-1
 120 0 l 1,0,-1
EndSplineSet
Substitution2: "'c2sc' Capitals to Small Capitals lookup 5 subtable" Eogonek.sc
EndChar

StartChar: eogonek
Encoding: 281 281 218
Width: 1137
GlyphClass: 2
Flags: W
LayerCount: 2
Fore
SplineSet
777 -450 m 0,0,1
 661 -450 661 -450 587.5 -392 c 128,-1,2
 514 -334 514 -334 514 -241 c 0,3,4
 514 -178 514 -178 550 -121.5 c 128,-1,5
 586 -65 586 -65 653 -24 c 1,6,-1
 653 -18 l 1,7,8
 632 -23 632 -23 584 -23 c 0,9,10
 337 -23 337 -23 196.5 125 c 128,-1,11
 56 273 56 273 56 531 c 0,12,13
 56 788 56 788 196 941.5 c 128,-1,14
 336 1095 336 1095 573 1095 c 0,15,16
 806 1095 806 1095 944 949 c 128,-1,17
 1082 803 1082 803 1082 558 c 2,18,-1
 1082 469 l 1,19,-1
 343 469 l 1,20,-1
 343 451 l 2,21,22
 343 336 343 336 410.5 264.5 c 128,-1,23
 478 193 478 193 589 193 c 0,24,25
 669 193 669 193 726.5 229.5 c 128,-1,26
 784 266 784 266 805 328 c 1,27,-1
 1073 328 l 1,28,29
 1050 183 1050 183 910 70 c 0,30,31
 817 -6 817 -6 771.5 -67 c 128,-1,32
 726 -128 726 -128 726 -183 c 0,33,34
 726 -231 726 -231 758 -256.5 c 128,-1,35
 790 -282 790 -282 845 -282 c 0,36,37
 891 -282 891 -282 920 -273 c 1,38,-1
 920 -428 l 1,39,40
 873 -450 873 -450 777 -450 c 0,0,1
576 879 m 0,41,42
 481 879 481 879 417.5 814 c 128,-1,43
 354 749 354 749 346 648 c 1,44,-1
 801 648 l 1,45,46
 796 751 796 751 734.5 815 c 128,-1,47
 673 879 673 879 576 879 c 0,41,42
EndSplineSet
Substitution2: "'smcp' Lowercase to Small Capitals lookup 6 subtable" Eogonek.sc
EndChar

StartChar: Ecaron
Encoding: 282 282 219
Width: 1174
GlyphClass: 2
Flags: W
LayerCount: 2
Fore
SplineSet
1076 250 m 1,0,-1
 1076 0 l 1,1,-1
 120 0 l 1,2,-1
 120 1443 l 1,3,-1
 1076 1443 l 1,4,-1
 1076 1194 l 1,5,-1
 422 1194 l 1,6,-1
 422 846 l 1,7,-1
 1039 846 l 1,8,-1
 1039 614 l 1,9,-1
 422 614 l 1,10,-1
 422 250 l 1,11,-1
 1076 250 l 1,0,-1
486 1543 m 1,12,-1
 217 1860 l 1,13,-1
 438 1860 l 1,14,-1
 594 1668 l 1,15,-1
 602 1668 l 1,16,-1
 758 1860 l 1,17,-1
 979 1860 l 1,18,-1
 710 1543 l 1,19,-1
 486 1543 l 1,12,-1
EndSplineSet
Substitution2: "'c2sc' Capitals to Small Capitals lookup 5 subtable" Ecaron.sc
EndChar

StartChar: ecaron
Encoding: 283 283 220
Width: 1137
GlyphClass: 2
Flags: W
LayerCount: 2
Fore
SplineSet
576 879 m 0,0,1
 481 879 481 879 417.5 814 c 128,-1,2
 354 749 354 749 346 648 c 1,3,-1
 801 648 l 1,4,5
 796 751 796 751 734.5 815 c 128,-1,6
 673 879 673 879 576 879 c 0,0,1
805 328 m 1,7,-1
 1073 328 l 1,8,9
 1049 170 1049 170 915.5 73.5 c 128,-1,10
 782 -23 782 -23 584 -23 c 0,11,12
 337 -23 337 -23 196.5 125 c 128,-1,13
 56 273 56 273 56 531 c 0,14,15
 56 788 56 788 196 941.5 c 128,-1,16
 336 1095 336 1095 573 1095 c 0,17,18
 806 1095 806 1095 944 949 c 128,-1,19
 1082 803 1082 803 1082 558 c 2,20,-1
 1082 469 l 1,21,-1
 343 469 l 1,22,-1
 343 451 l 2,23,24
 343 336 343 336 410.5 264.5 c 128,-1,25
 478 193 478 193 589 193 c 0,26,27
 669 193 669 193 727 229.5 c 128,-1,28
 785 266 785 266 805 328 c 1,7,-1
685 1213 m 1,29,-1
 461 1213 l 1,30,-1
 197 1531 l 1,31,-1
 421 1531 l 1,32,-1
 569 1343 l 1,33,-1
 576 1343 l 1,34,-1
 725 1531 l 1,35,-1
 948 1531 l 1,36,-1
 685 1213 l 1,29,-1
EndSplineSet
Substitution2: "'smcp' Lowercase to Small Capitals lookup 6 subtable" Ecaron.sc
EndChar

